G04 (created by PCBNEW (2012-nov-02)-testing) date Tue 08 Jan 2013 11:00:24 PM EST*
%MOIN*%
G04 Gerber Fmt 3.4, Leading zero omitted, Abs format*
%FSLAX34Y34*%
G01*
G70*
G90*
G04 APERTURE LIST*
%ADD10C,0.006*%
%ADD11C,0.00590551*%
%ADD12C,0.0593*%
%ADD13R,0.0551X0.063*%
%ADD14R,0.0748X0.0709*%
%ADD15R,0.0748X0.0748*%
%ADD16R,0.0531X0.0157*%
%ADD17R,0.144X0.08*%
%ADD18R,0.04X0.08*%
%ADD19R,0.08X0.144*%
%ADD20R,0.08X0.04*%
%ADD21R,0.02X0.045*%
%ADD22R,0.055X0.035*%
%ADD23R,0.035X0.055*%
%ADD24R,0.0590551X0.0314961*%
%ADD25R,0.0748031X0.0551181*%
%ADD26R,0.0551181X0.0708661*%
%ADD27R,0.0314961X0.0334646*%
%ADD28R,0.0598425X0.0401575*%
%ADD29R,0.063X0.0866*%
%ADD30R,0.0255906X0.0866142*%
%ADD31R,0.0472441X0.011811*%
%ADD32R,0.011811X0.0472441*%
%ADD33R,0.08X0.06*%
%ADD34C,0.1771*%
%ADD35R,0.156X0.156*%
%ADD36R,0.15X0.15*%
G04 APERTURE END LIST*
G54D10*
G54D11*
X39370Y-59055D02*
X39370Y-39370D01*
X78740Y-59055D02*
X39370Y-59055D01*
X78740Y-39370D02*
X78740Y-59055D01*
X39370Y-39370D02*
X78740Y-39370D01*
G54D12*
X52870Y-44870D03*
X53870Y-44870D03*
X52870Y-45870D03*
X53870Y-45870D03*
X52870Y-46870D03*
X53870Y-46870D03*
X52870Y-47870D03*
X53870Y-47870D03*
X52870Y-48870D03*
X53870Y-48870D03*
X52870Y-49870D03*
X53870Y-49870D03*
X52870Y-50870D03*
X53870Y-50870D03*
X52870Y-51870D03*
X53870Y-51870D03*
X52870Y-52870D03*
X53870Y-52870D03*
X52870Y-53870D03*
X53870Y-53870D03*
G54D13*
X41295Y-45630D03*
G54D14*
X40370Y-45945D03*
X40370Y-42795D03*
G54D15*
X40370Y-44842D03*
X40370Y-43898D03*
G54D13*
X41295Y-43110D03*
G54D16*
X41423Y-43858D03*
X41423Y-44114D03*
X41423Y-44370D03*
X41423Y-44626D03*
X41423Y-44882D03*
G54D17*
X47870Y-52170D03*
G54D18*
X47870Y-49570D03*
X46970Y-49570D03*
X48770Y-49570D03*
G54D19*
X45420Y-50620D03*
G54D20*
X42820Y-50620D03*
X42820Y-51520D03*
X42820Y-49720D03*
G54D21*
X47620Y-53370D03*
X48120Y-53370D03*
X48620Y-53370D03*
X49120Y-53370D03*
X49120Y-55870D03*
X48620Y-55870D03*
X48120Y-55870D03*
X47620Y-55870D03*
G54D22*
X59370Y-43095D03*
X59370Y-43845D03*
G54D23*
X70495Y-57370D03*
X71245Y-57370D03*
X68445Y-47070D03*
X67695Y-47070D03*
X71645Y-45870D03*
X70895Y-45870D03*
X61145Y-49470D03*
X60395Y-49470D03*
X72745Y-57370D03*
X73495Y-57370D03*
X70895Y-45070D03*
X71645Y-45070D03*
X74995Y-57370D03*
X75745Y-57370D03*
X67695Y-46270D03*
X68445Y-46270D03*
X74995Y-58370D03*
X75745Y-58370D03*
G54D22*
X46120Y-45995D03*
X46120Y-45245D03*
X46620Y-54495D03*
X46620Y-53745D03*
X46620Y-56245D03*
X46620Y-55495D03*
G54D23*
X46995Y-57120D03*
X46245Y-57120D03*
X48495Y-57120D03*
X47745Y-57120D03*
X47995Y-48370D03*
X48745Y-48370D03*
G54D22*
X41620Y-46995D03*
X41620Y-47745D03*
X71620Y-43495D03*
X71620Y-42745D03*
G54D23*
X49995Y-55870D03*
X50745Y-55870D03*
X57795Y-43870D03*
X58545Y-43870D03*
X57345Y-48570D03*
X56595Y-48570D03*
X56995Y-50670D03*
X57745Y-50670D03*
G54D22*
X66120Y-46995D03*
X66120Y-47745D03*
X66120Y-45245D03*
X66120Y-44495D03*
X62370Y-50745D03*
X62370Y-49995D03*
X63370Y-50745D03*
X63370Y-49995D03*
G54D23*
X57395Y-56270D03*
X58145Y-56270D03*
X49995Y-54870D03*
X50745Y-54870D03*
X49995Y-53870D03*
X50745Y-53870D03*
X57795Y-43070D03*
X58545Y-43070D03*
X42495Y-45370D03*
X43245Y-45370D03*
X42495Y-44370D03*
X43245Y-44370D03*
X44245Y-45370D03*
X44995Y-45370D03*
G54D22*
X62470Y-46195D03*
X62470Y-46945D03*
G54D24*
X76620Y-44104D03*
X76462Y-44537D03*
X76620Y-44970D03*
X76698Y-45403D03*
X76620Y-45836D03*
X76698Y-46269D03*
X76620Y-46702D03*
X76620Y-47135D03*
G54D25*
X78135Y-42427D03*
X77742Y-47604D03*
G54D26*
X72564Y-46816D03*
X72564Y-44572D03*
G54D27*
X67198Y-56415D03*
X67698Y-56415D03*
X68198Y-56415D03*
X68698Y-56415D03*
X69198Y-56415D03*
X69698Y-56415D03*
X70198Y-56415D03*
X70698Y-56415D03*
X71198Y-56415D03*
X71698Y-56415D03*
X72198Y-56415D03*
X72698Y-56415D03*
X73198Y-56415D03*
X73698Y-56415D03*
X74198Y-56415D03*
X74698Y-56415D03*
X75198Y-56415D03*
X75698Y-56415D03*
X75698Y-48324D03*
X75198Y-48324D03*
X74698Y-48324D03*
X74198Y-48324D03*
X73698Y-48324D03*
X73198Y-48324D03*
X72698Y-48324D03*
X72198Y-48324D03*
X71698Y-48324D03*
X71198Y-48324D03*
X70698Y-48324D03*
X70198Y-48324D03*
X69698Y-48324D03*
X69198Y-48324D03*
X68698Y-48324D03*
X68198Y-48324D03*
X67698Y-48324D03*
X67198Y-48324D03*
G54D28*
X41620Y-49970D03*
X41620Y-48769D03*
G54D29*
X40122Y-51620D03*
X41618Y-51620D03*
G54D30*
X47874Y-47098D03*
X47874Y-45641D03*
G54D31*
X60923Y-48082D03*
X60923Y-47885D03*
X60923Y-47688D03*
X60923Y-47492D03*
X60923Y-47295D03*
X60923Y-47098D03*
X60923Y-46901D03*
X60923Y-46704D03*
X60923Y-46507D03*
X60923Y-46311D03*
X60923Y-46114D03*
X60923Y-45917D03*
G54D32*
X60332Y-45326D03*
X60135Y-45326D03*
X59938Y-45326D03*
X59742Y-45326D03*
X59545Y-45326D03*
X59348Y-45326D03*
X59151Y-45326D03*
X58954Y-45326D03*
X58757Y-45326D03*
X58561Y-45326D03*
X58364Y-45326D03*
X58167Y-45326D03*
G54D31*
X57576Y-45917D03*
X57576Y-46114D03*
X57576Y-46311D03*
X57576Y-46507D03*
X57576Y-46704D03*
X57576Y-46901D03*
X57576Y-47098D03*
X57576Y-47295D03*
X57576Y-47492D03*
X57576Y-47688D03*
X57576Y-47885D03*
X57576Y-48082D03*
G54D32*
X58167Y-48673D03*
X58364Y-48673D03*
X58561Y-48673D03*
X58757Y-48673D03*
X58954Y-48673D03*
X59151Y-48673D03*
X59348Y-48673D03*
X59545Y-48673D03*
X59742Y-48673D03*
X59938Y-48673D03*
X60135Y-48673D03*
X60332Y-48673D03*
G54D33*
X40370Y-47970D03*
X40370Y-49270D03*
G54D19*
X45420Y-47620D03*
G54D20*
X42820Y-47620D03*
X42820Y-48520D03*
X42820Y-46720D03*
G54D34*
X44673Y-54316D03*
X43492Y-56088D03*
X42264Y-54316D03*
G54D35*
X45870Y-42120D03*
G54D36*
X48970Y-42120D03*
X42770Y-42120D03*
M02*
