M48
;DRILL file {Pcbnew (2012-nov-02)-testing} date Tue 08 Jan 2013 11:00:26 PM EST
;FORMAT={-:-/ absolute / inch / decimal}
FMAT,2
INCH,TZ
T1C0.025
T2C0.030
T3C0.032
T4C0.039
T5C0.040
T6C0.041
T7C0.120
T8C0.125
%
G90
G05
M72
T1
X4.077Y-5.017
X4.197Y-4.557
X4.357Y-5.047
X4.447Y-4.217
X4.447Y-4.677
X4.457Y-5.057
X4.5Y-5.76
X4.587Y-5.627
X4.617Y-4.467
X4.627Y-5.797
X4.65Y-4.84
X4.687Y-5.287
X4.727Y-4.557
X4.75Y-4.84
X4.777Y-4.267
X4.797Y-4.307
X4.907Y-5.717
X4.927Y-4.837
X4.967Y-5.197
X5.287Y-5.677
X5.397Y-5.477
X5.467Y-4.897
X5.467Y-4.987
X5.477Y-4.737
X5.497Y-5.677
X5.537Y-4.687
X5.537Y-4.767
X5.537Y-4.937
X5.567Y-4.977
X5.597Y-4.827
X5.607Y-5.077
X5.617Y-4.307
X5.617Y-4.907
X5.657Y-4.267
X5.757Y-4.517
X5.777Y-4.857
X5.817Y-4.757
X5.827Y-5.067
X5.857Y-4.777
X5.857Y-5.597
X5.887Y-4.737
X5.907Y-4.697
X5.947Y-4.677
X5.952Y-5.697
X5.997Y-4.777
X6.027Y-4.317
X6.027Y-4.587
X6.027Y-5.037
X6.037Y-4.687
X6.067Y-4.297
X6.077Y-4.857
X6.077Y-5.037
X6.107Y-5.077
X6.137Y-5.117
X6.167Y-5.157
X6.197Y-5.227
X6.237Y-4.957
X6.257Y-4.857
X6.287Y-5.217
X6.327Y-4.207
X6.327Y-4.667
X6.327Y-4.817
X6.337Y-5.277
X6.357Y-4.607
X6.437Y-4.817
X6.457Y-4.607
X6.507Y-4.317
X6.697Y-4.357
X6.697Y-4.737
X6.697Y-5.267
X6.717Y-4.897
X6.767Y-4.897
X6.817Y-4.357
X6.817Y-4.777
X6.817Y-4.917
X6.897Y-5.577
X6.907Y-4.627
X6.917Y-4.777
X6.967Y-4.777
X7.017Y-5.377
X7.017Y-5.447
X7.027Y-4.897
X7.027Y-5.087
X7.077Y-5.207
X7.087Y-4.277
X7.087Y-4.437
X7.137Y-5.147
X7.147Y-5.577
X7.257Y-5.087
X7.437Y-4.767
X7.497Y-4.497
X7.547Y-4.667
X7.557Y-4.897
X7.587Y-4.787
X7.737Y-4.487
X7.747Y-4.617
T2
X6.412Y-4.537
X6.412Y-4.737
T3
X6.237Y-5.157
X6.337Y-5.157
T4
X5.287Y-4.487
X5.287Y-4.587
X5.287Y-4.687
X5.287Y-4.787
X5.287Y-4.887
X5.287Y-4.987
X5.287Y-5.087
X5.287Y-5.187
X5.287Y-5.287
X5.287Y-5.387
X5.387Y-4.487
X5.387Y-4.587
X5.387Y-4.687
X5.387Y-4.787
X5.387Y-4.887
X5.387Y-4.987
X5.387Y-5.087
X5.387Y-5.187
X5.387Y-5.287
X5.387Y-5.387
T5
X4.977Y-4.387
X4.977Y-4.487
X4.977Y-4.587
X5.037Y-4.037
X5.037Y-5.837
X5.087Y-5.087
X5.087Y-5.187
X5.137Y-4.037
X5.137Y-5.837
X5.237Y-4.037
X5.237Y-5.837
X5.337Y-4.037
X5.337Y-5.837
X5.437Y-4.037
X5.437Y-5.837
X5.537Y-4.037
X5.537Y-5.837
X5.637Y-4.037
X5.637Y-5.527
X5.637Y-5.837
X5.737Y-4.037
X5.737Y-5.527
X5.737Y-5.837
X5.837Y-4.037
X5.837Y-5.527
X5.837Y-5.837
X5.937Y-4.037
X5.937Y-5.837
X6.037Y-4.037
X6.037Y-5.837
X6.137Y-4.037
X6.137Y-5.837
X6.237Y-4.037
X6.237Y-5.837
X6.337Y-4.037
X6.337Y-5.837
X6.437Y-4.037
X6.437Y-5.837
X6.462Y-5.012
X6.462Y-5.112
X6.462Y-5.212
X6.462Y-5.312
X6.462Y-5.412
X6.537Y-4.037
X6.537Y-5.837
X6.562Y-5.012
X6.562Y-5.112
X6.562Y-5.212
X6.562Y-5.312
X6.562Y-5.412
X6.637Y-4.037
X6.637Y-5.837
X6.737Y-4.037
X6.737Y-5.837
X6.837Y-4.037
X6.837Y-5.837
X6.937Y-4.037
X6.937Y-5.837
X6.947Y-4.707
X7.047Y-4.707
X7.147Y-4.707
T6
X5.6484Y-5.1591
X5.6484Y-5.415
X5.8256Y-5.1591
X5.8256Y-5.415
T7
X4.087Y-4.087
X4.087Y-5.762
X7.737Y-4.087
X7.737Y-5.762
T8
X4.2264Y-5.4316
X4.3492Y-5.6088
X4.4673Y-5.4316
T0
M30
