G04 (created by PCBNEW (2012-nov-02)-testing) date Thu 10 Jan 2013 08:49:02 AM EST*
%MOIN*%
G04 Gerber Fmt 3.4, Leading zero omitted, Abs format*
%FSLAX34Y34*%
G01*
G70*
G90*
G04 APERTURE LIST*
%ADD10C,0.006*%
%ADD11C,0.00393701*%
%ADD12C,0.00590551*%
%ADD13C,0.0035*%
G04 APERTURE END LIST*
G54D10*
G54D11*
X75928Y-40262D02*
X75885Y-40276D01*
X75815Y-40276D01*
X75787Y-40262D01*
X75773Y-40248D01*
X75759Y-40220D01*
X75759Y-40192D01*
X75773Y-40164D01*
X75787Y-40150D01*
X75815Y-40136D01*
X75871Y-40122D01*
X75899Y-40108D01*
X75913Y-40094D01*
X75928Y-40066D01*
X75928Y-40037D01*
X75913Y-40009D01*
X75899Y-39995D01*
X75871Y-39981D01*
X75801Y-39981D01*
X75759Y-39995D01*
X75674Y-39981D02*
X75506Y-39981D01*
X75590Y-40276D02*
X75590Y-39981D01*
X75407Y-40276D02*
X75407Y-39981D01*
X75309Y-40192D01*
X75210Y-39981D01*
X75210Y-40276D01*
X75098Y-39981D02*
X74915Y-39981D01*
X75014Y-40094D01*
X74971Y-40094D01*
X74943Y-40108D01*
X74929Y-40122D01*
X74915Y-40150D01*
X74915Y-40220D01*
X74929Y-40248D01*
X74943Y-40262D01*
X74971Y-40276D01*
X75056Y-40276D01*
X75084Y-40262D01*
X75098Y-40248D01*
X74803Y-40009D02*
X74789Y-39995D01*
X74760Y-39981D01*
X74690Y-39981D01*
X74662Y-39995D01*
X74648Y-40009D01*
X74634Y-40037D01*
X74634Y-40066D01*
X74648Y-40108D01*
X74817Y-40276D01*
X74634Y-40276D01*
X74409Y-40122D02*
X74507Y-40122D01*
X74507Y-40276D02*
X74507Y-39981D01*
X74367Y-39981D01*
X74100Y-40276D02*
X74268Y-40276D01*
X74184Y-40276D02*
X74184Y-39981D01*
X74212Y-40023D01*
X74240Y-40052D01*
X74268Y-40066D01*
X73973Y-40276D02*
X73973Y-39981D01*
X73903Y-39981D01*
X73861Y-39995D01*
X73832Y-40023D01*
X73818Y-40052D01*
X73804Y-40108D01*
X73804Y-40150D01*
X73818Y-40206D01*
X73832Y-40234D01*
X73861Y-40262D01*
X73903Y-40276D01*
X73973Y-40276D01*
X73565Y-40262D02*
X73593Y-40276D01*
X73650Y-40276D01*
X73678Y-40262D01*
X73692Y-40234D01*
X73692Y-40122D01*
X73678Y-40094D01*
X73650Y-40080D01*
X73593Y-40080D01*
X73565Y-40094D01*
X73551Y-40122D01*
X73551Y-40150D01*
X73692Y-40178D01*
X73453Y-40080D02*
X73383Y-40276D01*
X73312Y-40080D01*
X73101Y-40122D02*
X73059Y-40136D01*
X73045Y-40150D01*
X73031Y-40178D01*
X73031Y-40220D01*
X73045Y-40248D01*
X73059Y-40262D01*
X73087Y-40276D01*
X73200Y-40276D01*
X73200Y-39981D01*
X73101Y-39981D01*
X73073Y-39995D01*
X73059Y-40009D01*
X73045Y-40037D01*
X73045Y-40066D01*
X73059Y-40094D01*
X73073Y-40108D01*
X73101Y-40122D01*
X73200Y-40122D01*
X72862Y-40276D02*
X72890Y-40262D01*
X72904Y-40248D01*
X72919Y-40220D01*
X72919Y-40136D01*
X72904Y-40108D01*
X72890Y-40094D01*
X72862Y-40080D01*
X72820Y-40080D01*
X72792Y-40094D01*
X72778Y-40108D01*
X72764Y-40136D01*
X72764Y-40220D01*
X72778Y-40248D01*
X72792Y-40262D01*
X72820Y-40276D01*
X72862Y-40276D01*
X72511Y-40276D02*
X72511Y-40122D01*
X72525Y-40094D01*
X72553Y-40080D01*
X72609Y-40080D01*
X72637Y-40094D01*
X72511Y-40262D02*
X72539Y-40276D01*
X72609Y-40276D01*
X72637Y-40262D01*
X72651Y-40234D01*
X72651Y-40206D01*
X72637Y-40178D01*
X72609Y-40164D01*
X72539Y-40164D01*
X72511Y-40150D01*
X72370Y-40276D02*
X72370Y-40080D01*
X72370Y-40136D02*
X72356Y-40108D01*
X72342Y-40094D01*
X72314Y-40080D01*
X72286Y-40080D01*
X72061Y-40276D02*
X72061Y-39981D01*
X72061Y-40262D02*
X72089Y-40276D01*
X72145Y-40276D01*
X72173Y-40262D01*
X72187Y-40248D01*
X72201Y-40220D01*
X72201Y-40136D01*
X72187Y-40108D01*
X72173Y-40094D01*
X72145Y-40080D01*
X72089Y-40080D01*
X72061Y-40094D01*
X75956Y-40434D02*
X75857Y-40729D01*
X75759Y-40434D01*
X75548Y-40715D02*
X75576Y-40729D01*
X75632Y-40729D01*
X75660Y-40715D01*
X75674Y-40687D01*
X75674Y-40575D01*
X75660Y-40546D01*
X75632Y-40532D01*
X75576Y-40532D01*
X75548Y-40546D01*
X75534Y-40575D01*
X75534Y-40603D01*
X75674Y-40631D01*
X75407Y-40729D02*
X75407Y-40532D01*
X75407Y-40589D02*
X75393Y-40561D01*
X75379Y-40546D01*
X75351Y-40532D01*
X75323Y-40532D01*
X75239Y-40715D02*
X75210Y-40729D01*
X75154Y-40729D01*
X75126Y-40715D01*
X75112Y-40687D01*
X75112Y-40673D01*
X75126Y-40645D01*
X75154Y-40631D01*
X75196Y-40631D01*
X75224Y-40617D01*
X75239Y-40589D01*
X75239Y-40575D01*
X75224Y-40546D01*
X75196Y-40532D01*
X75154Y-40532D01*
X75126Y-40546D01*
X74985Y-40729D02*
X74985Y-40532D01*
X74985Y-40434D02*
X75000Y-40448D01*
X74985Y-40462D01*
X74971Y-40448D01*
X74985Y-40434D01*
X74985Y-40462D01*
X74803Y-40729D02*
X74831Y-40715D01*
X74845Y-40701D01*
X74859Y-40673D01*
X74859Y-40589D01*
X74845Y-40561D01*
X74831Y-40546D01*
X74803Y-40532D01*
X74760Y-40532D01*
X74732Y-40546D01*
X74718Y-40561D01*
X74704Y-40589D01*
X74704Y-40673D01*
X74718Y-40701D01*
X74732Y-40715D01*
X74760Y-40729D01*
X74803Y-40729D01*
X74578Y-40532D02*
X74578Y-40729D01*
X74578Y-40561D02*
X74564Y-40546D01*
X74535Y-40532D01*
X74493Y-40532D01*
X74465Y-40546D01*
X74451Y-40575D01*
X74451Y-40729D01*
X74311Y-40701D02*
X74296Y-40715D01*
X74311Y-40729D01*
X74325Y-40715D01*
X74311Y-40701D01*
X74311Y-40729D01*
X74311Y-40546D02*
X74296Y-40561D01*
X74311Y-40575D01*
X74325Y-40561D01*
X74311Y-40546D01*
X74311Y-40575D01*
X73790Y-40729D02*
X73959Y-40729D01*
X73875Y-40729D02*
X73875Y-40434D01*
X73903Y-40476D01*
X73931Y-40504D01*
X73959Y-40518D01*
X75815Y-41027D02*
X75773Y-41041D01*
X75759Y-41055D01*
X75745Y-41084D01*
X75745Y-41126D01*
X75759Y-41154D01*
X75773Y-41168D01*
X75801Y-41182D01*
X75913Y-41182D01*
X75913Y-40887D01*
X75815Y-40887D01*
X75787Y-40901D01*
X75773Y-40915D01*
X75759Y-40943D01*
X75759Y-40971D01*
X75773Y-40999D01*
X75787Y-41013D01*
X75815Y-41027D01*
X75913Y-41027D01*
X75646Y-40985D02*
X75576Y-41182D01*
X75506Y-40985D02*
X75576Y-41182D01*
X75604Y-41252D01*
X75618Y-41266D01*
X75646Y-41280D01*
X75393Y-41154D02*
X75379Y-41168D01*
X75393Y-41182D01*
X75407Y-41168D01*
X75393Y-41154D01*
X75393Y-41182D01*
X75393Y-40999D02*
X75379Y-41013D01*
X75393Y-41027D01*
X75407Y-41013D01*
X75393Y-40999D01*
X75393Y-41027D01*
X74943Y-40887D02*
X74943Y-41098D01*
X74957Y-41140D01*
X74985Y-41168D01*
X75028Y-41182D01*
X75056Y-41182D01*
X74760Y-41182D02*
X74789Y-41168D01*
X74803Y-41154D01*
X74817Y-41126D01*
X74817Y-41041D01*
X74803Y-41013D01*
X74789Y-40999D01*
X74760Y-40985D01*
X74718Y-40985D01*
X74690Y-40999D01*
X74676Y-41013D01*
X74662Y-41041D01*
X74662Y-41126D01*
X74676Y-41154D01*
X74690Y-41168D01*
X74718Y-41182D01*
X74760Y-41182D01*
X74423Y-41168D02*
X74451Y-41182D01*
X74507Y-41182D01*
X74535Y-41168D01*
X74550Y-41140D01*
X74550Y-41027D01*
X74535Y-40999D01*
X74507Y-40985D01*
X74451Y-40985D01*
X74423Y-40999D01*
X74409Y-41027D01*
X74409Y-41055D01*
X74550Y-41084D01*
X73959Y-41027D02*
X74057Y-41027D01*
X74057Y-41182D02*
X74057Y-40887D01*
X73917Y-40887D01*
X73692Y-41168D02*
X73720Y-41182D01*
X73776Y-41182D01*
X73804Y-41168D01*
X73818Y-41140D01*
X73818Y-41027D01*
X73804Y-40999D01*
X73776Y-40985D01*
X73720Y-40985D01*
X73692Y-40999D01*
X73678Y-41027D01*
X73678Y-41055D01*
X73818Y-41084D01*
X73551Y-41182D02*
X73551Y-40985D01*
X73551Y-41041D02*
X73537Y-41013D01*
X73523Y-40999D01*
X73495Y-40985D01*
X73467Y-40985D01*
X73368Y-40985D02*
X73368Y-41182D01*
X73368Y-41013D02*
X73354Y-40999D01*
X73326Y-40985D01*
X73284Y-40985D01*
X73256Y-40999D01*
X73242Y-41027D01*
X73242Y-41182D01*
X72989Y-41168D02*
X73017Y-41182D01*
X73073Y-41182D01*
X73101Y-41168D01*
X73115Y-41140D01*
X73115Y-41027D01*
X73101Y-40999D01*
X73073Y-40985D01*
X73017Y-40985D01*
X72989Y-40999D01*
X72975Y-41027D01*
X72975Y-41055D01*
X73115Y-41084D01*
X72848Y-41182D02*
X72848Y-40985D01*
X72848Y-41041D02*
X72834Y-41013D01*
X72820Y-40999D01*
X72792Y-40985D01*
X72764Y-40985D01*
X75857Y-41339D02*
X75801Y-41339D01*
X75773Y-41354D01*
X75745Y-41382D01*
X75731Y-41438D01*
X75731Y-41536D01*
X75745Y-41593D01*
X75773Y-41621D01*
X75801Y-41635D01*
X75857Y-41635D01*
X75885Y-41621D01*
X75913Y-41593D01*
X75928Y-41536D01*
X75928Y-41438D01*
X75913Y-41382D01*
X75885Y-41354D01*
X75857Y-41339D01*
X75604Y-41438D02*
X75604Y-41733D01*
X75604Y-41452D02*
X75576Y-41438D01*
X75520Y-41438D01*
X75492Y-41452D01*
X75478Y-41466D01*
X75464Y-41494D01*
X75464Y-41579D01*
X75478Y-41607D01*
X75492Y-41621D01*
X75520Y-41635D01*
X75576Y-41635D01*
X75604Y-41621D01*
X75224Y-41621D02*
X75253Y-41635D01*
X75309Y-41635D01*
X75337Y-41621D01*
X75351Y-41593D01*
X75351Y-41480D01*
X75337Y-41452D01*
X75309Y-41438D01*
X75253Y-41438D01*
X75224Y-41452D01*
X75210Y-41480D01*
X75210Y-41508D01*
X75351Y-41536D01*
X75084Y-41438D02*
X75084Y-41635D01*
X75084Y-41466D02*
X75070Y-41452D01*
X75042Y-41438D01*
X75000Y-41438D01*
X74971Y-41452D01*
X74957Y-41480D01*
X74957Y-41635D01*
X74606Y-41621D02*
X74564Y-41635D01*
X74493Y-41635D01*
X74465Y-41621D01*
X74451Y-41607D01*
X74437Y-41579D01*
X74437Y-41550D01*
X74451Y-41522D01*
X74465Y-41508D01*
X74493Y-41494D01*
X74550Y-41480D01*
X74578Y-41466D01*
X74592Y-41452D01*
X74606Y-41424D01*
X74606Y-41396D01*
X74592Y-41368D01*
X74578Y-41354D01*
X74550Y-41339D01*
X74479Y-41339D01*
X74437Y-41354D01*
X74268Y-41635D02*
X74296Y-41621D01*
X74311Y-41607D01*
X74325Y-41579D01*
X74325Y-41494D01*
X74311Y-41466D01*
X74296Y-41452D01*
X74268Y-41438D01*
X74226Y-41438D01*
X74198Y-41452D01*
X74184Y-41466D01*
X74170Y-41494D01*
X74170Y-41579D01*
X74184Y-41607D01*
X74198Y-41621D01*
X74226Y-41635D01*
X74268Y-41635D01*
X73917Y-41438D02*
X73917Y-41635D01*
X74043Y-41438D02*
X74043Y-41593D01*
X74029Y-41621D01*
X74001Y-41635D01*
X73959Y-41635D01*
X73931Y-41621D01*
X73917Y-41607D01*
X73776Y-41635D02*
X73776Y-41438D01*
X73776Y-41494D02*
X73762Y-41466D01*
X73748Y-41452D01*
X73720Y-41438D01*
X73692Y-41438D01*
X73467Y-41621D02*
X73495Y-41635D01*
X73551Y-41635D01*
X73579Y-41621D01*
X73593Y-41607D01*
X73607Y-41579D01*
X73607Y-41494D01*
X73593Y-41466D01*
X73579Y-41452D01*
X73551Y-41438D01*
X73495Y-41438D01*
X73467Y-41452D01*
X73228Y-41621D02*
X73256Y-41635D01*
X73312Y-41635D01*
X73340Y-41621D01*
X73354Y-41593D01*
X73354Y-41480D01*
X73340Y-41452D01*
X73312Y-41438D01*
X73256Y-41438D01*
X73228Y-41452D01*
X73214Y-41480D01*
X73214Y-41508D01*
X73354Y-41536D01*
X72862Y-41635D02*
X72862Y-41339D01*
X72862Y-41480D02*
X72694Y-41480D01*
X72694Y-41635D02*
X72694Y-41339D01*
X72426Y-41635D02*
X72426Y-41480D01*
X72440Y-41452D01*
X72469Y-41438D01*
X72525Y-41438D01*
X72553Y-41452D01*
X72426Y-41621D02*
X72455Y-41635D01*
X72525Y-41635D01*
X72553Y-41621D01*
X72567Y-41593D01*
X72567Y-41564D01*
X72553Y-41536D01*
X72525Y-41522D01*
X72455Y-41522D01*
X72426Y-41508D01*
X72286Y-41635D02*
X72286Y-41438D01*
X72286Y-41494D02*
X72272Y-41466D01*
X72258Y-41452D01*
X72230Y-41438D01*
X72201Y-41438D01*
X71976Y-41635D02*
X71976Y-41339D01*
X71976Y-41621D02*
X72005Y-41635D01*
X72061Y-41635D01*
X72089Y-41621D01*
X72103Y-41607D01*
X72117Y-41579D01*
X72117Y-41494D01*
X72103Y-41466D01*
X72089Y-41452D01*
X72061Y-41438D01*
X72005Y-41438D01*
X71976Y-41452D01*
X71864Y-41438D02*
X71808Y-41635D01*
X71751Y-41494D01*
X71695Y-41635D01*
X71639Y-41438D01*
X71400Y-41635D02*
X71400Y-41480D01*
X71414Y-41452D01*
X71442Y-41438D01*
X71498Y-41438D01*
X71526Y-41452D01*
X71400Y-41621D02*
X71428Y-41635D01*
X71498Y-41635D01*
X71526Y-41621D01*
X71541Y-41593D01*
X71541Y-41564D01*
X71526Y-41536D01*
X71498Y-41522D01*
X71428Y-41522D01*
X71400Y-41508D01*
X71259Y-41635D02*
X71259Y-41438D01*
X71259Y-41494D02*
X71245Y-41466D01*
X71231Y-41452D01*
X71203Y-41438D01*
X71175Y-41438D01*
X70964Y-41621D02*
X70992Y-41635D01*
X71048Y-41635D01*
X71077Y-41621D01*
X71091Y-41593D01*
X71091Y-41480D01*
X71077Y-41452D01*
X71048Y-41438D01*
X70992Y-41438D01*
X70964Y-41452D01*
X70950Y-41480D01*
X70950Y-41508D01*
X71091Y-41536D01*
X75913Y-42088D02*
X75913Y-41792D01*
X75787Y-42088D02*
X75787Y-41933D01*
X75801Y-41905D01*
X75829Y-41891D01*
X75871Y-41891D01*
X75899Y-41905D01*
X75913Y-41919D01*
X75688Y-41891D02*
X75576Y-41891D01*
X75646Y-41792D02*
X75646Y-42045D01*
X75632Y-42073D01*
X75604Y-42088D01*
X75576Y-42088D01*
X75520Y-41891D02*
X75407Y-41891D01*
X75478Y-41792D02*
X75478Y-42045D01*
X75464Y-42073D01*
X75435Y-42088D01*
X75407Y-42088D01*
X75309Y-41891D02*
X75309Y-42186D01*
X75309Y-41905D02*
X75281Y-41891D01*
X75224Y-41891D01*
X75196Y-41905D01*
X75182Y-41919D01*
X75168Y-41947D01*
X75168Y-42031D01*
X75182Y-42059D01*
X75196Y-42073D01*
X75224Y-42088D01*
X75281Y-42088D01*
X75309Y-42073D01*
X75056Y-42073D02*
X75028Y-42088D01*
X74971Y-42088D01*
X74943Y-42073D01*
X74929Y-42045D01*
X74929Y-42031D01*
X74943Y-42003D01*
X74971Y-41989D01*
X75014Y-41989D01*
X75042Y-41975D01*
X75056Y-41947D01*
X75056Y-41933D01*
X75042Y-41905D01*
X75014Y-41891D01*
X74971Y-41891D01*
X74943Y-41905D01*
X74803Y-42059D02*
X74789Y-42073D01*
X74803Y-42088D01*
X74817Y-42073D01*
X74803Y-42059D01*
X74803Y-42088D01*
X74803Y-41905D02*
X74789Y-41919D01*
X74803Y-41933D01*
X74817Y-41919D01*
X74803Y-41905D01*
X74803Y-41933D01*
X74451Y-41778D02*
X74704Y-42158D01*
X74142Y-41778D02*
X74395Y-42158D01*
X73917Y-41891D02*
X73917Y-42130D01*
X73931Y-42158D01*
X73945Y-42172D01*
X73973Y-42186D01*
X74015Y-42186D01*
X74043Y-42172D01*
X73917Y-42073D02*
X73945Y-42088D01*
X74001Y-42088D01*
X74029Y-42073D01*
X74043Y-42059D01*
X74057Y-42031D01*
X74057Y-41947D01*
X74043Y-41919D01*
X74029Y-41905D01*
X74001Y-41891D01*
X73945Y-41891D01*
X73917Y-41905D01*
X73776Y-42088D02*
X73776Y-41891D01*
X73776Y-41792D02*
X73790Y-41806D01*
X73776Y-41820D01*
X73762Y-41806D01*
X73776Y-41792D01*
X73776Y-41820D01*
X73678Y-41891D02*
X73565Y-41891D01*
X73636Y-41792D02*
X73636Y-42045D01*
X73622Y-42073D01*
X73593Y-42088D01*
X73565Y-42088D01*
X73467Y-42088D02*
X73467Y-41792D01*
X73340Y-42088D02*
X73340Y-41933D01*
X73354Y-41905D01*
X73383Y-41891D01*
X73425Y-41891D01*
X73453Y-41905D01*
X73467Y-41919D01*
X73073Y-41891D02*
X73073Y-42088D01*
X73200Y-41891D02*
X73200Y-42045D01*
X73186Y-42073D01*
X73158Y-42088D01*
X73115Y-42088D01*
X73087Y-42073D01*
X73073Y-42059D01*
X72933Y-42088D02*
X72933Y-41792D01*
X72933Y-41905D02*
X72904Y-41891D01*
X72848Y-41891D01*
X72820Y-41905D01*
X72806Y-41919D01*
X72792Y-41947D01*
X72792Y-42031D01*
X72806Y-42059D01*
X72820Y-42073D01*
X72848Y-42088D01*
X72904Y-42088D01*
X72933Y-42073D01*
X72665Y-42059D02*
X72651Y-42073D01*
X72665Y-42088D01*
X72679Y-42073D01*
X72665Y-42059D01*
X72665Y-42088D01*
X72398Y-42073D02*
X72426Y-42088D01*
X72483Y-42088D01*
X72511Y-42073D01*
X72525Y-42059D01*
X72539Y-42031D01*
X72539Y-41947D01*
X72525Y-41919D01*
X72511Y-41905D01*
X72483Y-41891D01*
X72426Y-41891D01*
X72398Y-41905D01*
X72230Y-42088D02*
X72258Y-42073D01*
X72272Y-42059D01*
X72286Y-42031D01*
X72286Y-41947D01*
X72272Y-41919D01*
X72258Y-41905D01*
X72230Y-41891D01*
X72187Y-41891D01*
X72159Y-41905D01*
X72145Y-41919D01*
X72131Y-41947D01*
X72131Y-42031D01*
X72145Y-42059D01*
X72159Y-42073D01*
X72187Y-42088D01*
X72230Y-42088D01*
X72005Y-42088D02*
X72005Y-41891D01*
X72005Y-41919D02*
X71991Y-41905D01*
X71962Y-41891D01*
X71920Y-41891D01*
X71892Y-41905D01*
X71878Y-41933D01*
X71878Y-42088D01*
X71878Y-41933D02*
X71864Y-41905D01*
X71836Y-41891D01*
X71794Y-41891D01*
X71766Y-41905D01*
X71751Y-41933D01*
X71751Y-42088D01*
X71400Y-41778D02*
X71653Y-42158D01*
X71302Y-41891D02*
X71302Y-42144D01*
X71316Y-42172D01*
X71344Y-42186D01*
X71358Y-42186D01*
X71302Y-41792D02*
X71316Y-41806D01*
X71302Y-41820D01*
X71287Y-41806D01*
X71302Y-41792D01*
X71302Y-41820D01*
X71119Y-42088D02*
X71147Y-42073D01*
X71161Y-42059D01*
X71175Y-42031D01*
X71175Y-41947D01*
X71161Y-41919D01*
X71147Y-41905D01*
X71119Y-41891D01*
X71077Y-41891D01*
X71048Y-41905D01*
X71034Y-41919D01*
X71020Y-41947D01*
X71020Y-42031D01*
X71034Y-42059D01*
X71048Y-42073D01*
X71077Y-42088D01*
X71119Y-42088D01*
X70781Y-42073D02*
X70809Y-42088D01*
X70866Y-42088D01*
X70894Y-42073D01*
X70908Y-42045D01*
X70908Y-41933D01*
X70894Y-41905D01*
X70866Y-41891D01*
X70809Y-41891D01*
X70781Y-41905D01*
X70767Y-41933D01*
X70767Y-41961D01*
X70908Y-41989D01*
X70683Y-41891D02*
X70570Y-41891D01*
X70641Y-42088D02*
X70641Y-41834D01*
X70627Y-41806D01*
X70598Y-41792D01*
X70570Y-41792D01*
X70359Y-42073D02*
X70388Y-42088D01*
X70444Y-42088D01*
X70472Y-42073D01*
X70486Y-42045D01*
X70486Y-41933D01*
X70472Y-41905D01*
X70444Y-41891D01*
X70388Y-41891D01*
X70359Y-41905D01*
X70345Y-41933D01*
X70345Y-41961D01*
X70486Y-41989D01*
X70219Y-42088D02*
X70219Y-41891D01*
X70219Y-41947D02*
X70205Y-41919D01*
X70191Y-41905D01*
X70163Y-41891D01*
X70134Y-41891D01*
X70036Y-41891D02*
X70036Y-42088D01*
X70036Y-41919D02*
X70022Y-41905D01*
X69994Y-41891D01*
X69952Y-41891D01*
X69924Y-41905D01*
X69910Y-41933D01*
X69910Y-42088D01*
X69656Y-42073D02*
X69685Y-42088D01*
X69741Y-42088D01*
X69769Y-42073D01*
X69783Y-42045D01*
X69783Y-41933D01*
X69769Y-41905D01*
X69741Y-41891D01*
X69685Y-41891D01*
X69656Y-41905D01*
X69642Y-41933D01*
X69642Y-41961D01*
X69783Y-41989D01*
X69516Y-42088D02*
X69516Y-41891D01*
X69516Y-41947D02*
X69502Y-41919D01*
X69488Y-41905D01*
X69460Y-41891D01*
X69431Y-41891D01*
X69122Y-41778D02*
X69375Y-42158D01*
X69038Y-42073D02*
X69010Y-42088D01*
X68953Y-42088D01*
X68925Y-42073D01*
X68911Y-42045D01*
X68911Y-42031D01*
X68925Y-42003D01*
X68953Y-41989D01*
X68996Y-41989D01*
X69024Y-41975D01*
X69038Y-41947D01*
X69038Y-41933D01*
X69024Y-41905D01*
X68996Y-41891D01*
X68953Y-41891D01*
X68925Y-41905D01*
X68827Y-41891D02*
X68714Y-41891D01*
X68785Y-41792D02*
X68785Y-42045D01*
X68771Y-42073D01*
X68742Y-42088D01*
X68714Y-42088D01*
X68616Y-42088D02*
X68616Y-41891D01*
X68616Y-41919D02*
X68602Y-41905D01*
X68574Y-41891D01*
X68532Y-41891D01*
X68503Y-41905D01*
X68489Y-41933D01*
X68489Y-42088D01*
X68489Y-41933D02*
X68475Y-41905D01*
X68447Y-41891D01*
X68405Y-41891D01*
X68377Y-41905D01*
X68363Y-41933D01*
X68363Y-42088D01*
X68250Y-41792D02*
X68068Y-41792D01*
X68166Y-41905D01*
X68124Y-41905D01*
X68096Y-41919D01*
X68082Y-41933D01*
X68068Y-41961D01*
X68068Y-42031D01*
X68082Y-42059D01*
X68096Y-42073D01*
X68124Y-42088D01*
X68208Y-42088D01*
X68236Y-42073D01*
X68250Y-42059D01*
X67955Y-41820D02*
X67941Y-41806D01*
X67913Y-41792D01*
X67843Y-41792D01*
X67814Y-41806D01*
X67800Y-41820D01*
X67786Y-41848D01*
X67786Y-41877D01*
X67800Y-41919D01*
X67969Y-42088D01*
X67786Y-42088D01*
X67702Y-41891D02*
X67589Y-41891D01*
X67660Y-42088D02*
X67660Y-41834D01*
X67646Y-41806D01*
X67618Y-41792D01*
X67589Y-41792D01*
X67336Y-42088D02*
X67505Y-42088D01*
X67421Y-42088D02*
X67421Y-41792D01*
X67449Y-41834D01*
X67477Y-41863D01*
X67505Y-41877D01*
X67210Y-42088D02*
X67210Y-41792D01*
X67140Y-41792D01*
X67097Y-41806D01*
X67069Y-41834D01*
X67055Y-41863D01*
X67041Y-41919D01*
X67041Y-41961D01*
X67055Y-42017D01*
X67069Y-42045D01*
X67097Y-42073D01*
X67140Y-42088D01*
X67210Y-42088D01*
X66802Y-42073D02*
X66830Y-42088D01*
X66886Y-42088D01*
X66915Y-42073D01*
X66929Y-42045D01*
X66929Y-41933D01*
X66915Y-41905D01*
X66886Y-41891D01*
X66830Y-41891D01*
X66802Y-41905D01*
X66788Y-41933D01*
X66788Y-41961D01*
X66929Y-41989D01*
X66690Y-41891D02*
X66619Y-42088D01*
X66549Y-41891D01*
X66338Y-41933D02*
X66296Y-41947D01*
X66282Y-41961D01*
X66268Y-41989D01*
X66268Y-42031D01*
X66282Y-42059D01*
X66296Y-42073D01*
X66324Y-42088D01*
X66437Y-42088D01*
X66437Y-41792D01*
X66338Y-41792D01*
X66310Y-41806D01*
X66296Y-41820D01*
X66282Y-41848D01*
X66282Y-41877D01*
X66296Y-41905D01*
X66310Y-41919D01*
X66338Y-41933D01*
X66437Y-41933D01*
X66099Y-42088D02*
X66127Y-42073D01*
X66141Y-42059D01*
X66155Y-42031D01*
X66155Y-41947D01*
X66141Y-41919D01*
X66127Y-41905D01*
X66099Y-41891D01*
X66057Y-41891D01*
X66029Y-41905D01*
X66015Y-41919D01*
X66001Y-41947D01*
X66001Y-42031D01*
X66015Y-42059D01*
X66029Y-42073D01*
X66057Y-42088D01*
X66099Y-42088D01*
X65748Y-42088D02*
X65748Y-41933D01*
X65762Y-41905D01*
X65790Y-41891D01*
X65846Y-41891D01*
X65874Y-41905D01*
X65748Y-42073D02*
X65776Y-42088D01*
X65846Y-42088D01*
X65874Y-42073D01*
X65888Y-42045D01*
X65888Y-42017D01*
X65874Y-41989D01*
X65846Y-41975D01*
X65776Y-41975D01*
X65748Y-41961D01*
X65607Y-42088D02*
X65607Y-41891D01*
X65607Y-41947D02*
X65593Y-41919D01*
X65579Y-41905D01*
X65551Y-41891D01*
X65523Y-41891D01*
X65298Y-42088D02*
X65298Y-41792D01*
X65298Y-42073D02*
X65326Y-42088D01*
X65382Y-42088D01*
X65410Y-42073D01*
X65424Y-42059D01*
X65438Y-42031D01*
X65438Y-41947D01*
X65424Y-41919D01*
X65410Y-41905D01*
X65382Y-41891D01*
X65326Y-41891D01*
X65298Y-41905D01*
G54D12*
X39370Y-59055D02*
X39370Y-39370D01*
X78740Y-59055D02*
X39370Y-59055D01*
X78740Y-39370D02*
X78740Y-59055D01*
X39370Y-39370D02*
X78740Y-39370D01*
G54D13*
X44125Y-53151D02*
X44482Y-53151D01*
X44554Y-53175D01*
X44601Y-53223D01*
X44625Y-53294D01*
X44625Y-53342D01*
X44173Y-52937D02*
X44149Y-52913D01*
X44125Y-52866D01*
X44125Y-52746D01*
X44149Y-52699D01*
X44173Y-52675D01*
X44220Y-52651D01*
X44268Y-52651D01*
X44339Y-52675D01*
X44625Y-52961D01*
X44625Y-52651D01*
X40779Y-53544D02*
X40779Y-53235D01*
X40969Y-53401D01*
X40969Y-53330D01*
X40993Y-53282D01*
X41017Y-53259D01*
X41065Y-53235D01*
X41184Y-53235D01*
X41231Y-53259D01*
X41255Y-53282D01*
X41279Y-53330D01*
X41279Y-53473D01*
X41255Y-53520D01*
X41231Y-53544D01*
X41441Y-52739D02*
X41822Y-52881D01*
X41441Y-53024D01*
X42060Y-53072D02*
X42060Y-52572D01*
X42346Y-53072D01*
X42346Y-52572D01*
X42560Y-52929D02*
X42798Y-52929D01*
X42512Y-53072D02*
X42679Y-52572D01*
X42846Y-53072D01*
X43012Y-53072D02*
X43012Y-52572D01*
X43179Y-52929D01*
X43346Y-52572D01*
X43346Y-53072D01*
X43584Y-52810D02*
X43751Y-52810D01*
X43822Y-53072D02*
X43584Y-53072D01*
X43584Y-52572D01*
X43822Y-52572D01*
M02*
