G04 (created by PCBNEW (2012-nov-02)-testing) date Thu 10 Jan 2013 08:49:02 AM EST*
%MOIN*%
G04 Gerber Fmt 3.4, Leading zero omitted, Abs format*
%FSLAX34Y34*%
G01*
G70*
G90*
G04 APERTURE LIST*
%ADD10C,0.006*%
%ADD11C,0.00984252*%
%ADD12C,0.005*%
%ADD13C,0.00625*%
%ADD14C,0.00590551*%
%ADD15C,0.008*%
%ADD16C,0.0039*%
%ADD17C,0.0125*%
%ADD18C,0.01*%
%ADD19C,0.015*%
%ADD20C,0.012*%
%ADD21C,0.0043*%
%ADD22C,0.0047*%
%ADD23C,0.0035*%
G04 APERTURE END LIST*
G54D10*
G54D11*
X59129Y-53551D02*
X58941Y-53682D01*
X59129Y-53776D02*
X58735Y-53776D01*
X58735Y-53626D01*
X58754Y-53588D01*
X58773Y-53570D01*
X58810Y-53551D01*
X58866Y-53551D01*
X58904Y-53570D01*
X58923Y-53588D01*
X58941Y-53626D01*
X58941Y-53776D01*
X58923Y-53382D02*
X58923Y-53251D01*
X59129Y-53195D02*
X59129Y-53382D01*
X58735Y-53382D01*
X58735Y-53195D01*
X59110Y-53045D02*
X59129Y-52988D01*
X59129Y-52895D01*
X59110Y-52857D01*
X59091Y-52838D01*
X59054Y-52820D01*
X59016Y-52820D01*
X58979Y-52838D01*
X58960Y-52857D01*
X58941Y-52895D01*
X58923Y-52970D01*
X58904Y-53007D01*
X58885Y-53026D01*
X58848Y-53045D01*
X58810Y-53045D01*
X58773Y-53026D01*
X58754Y-53007D01*
X58735Y-52970D01*
X58735Y-52876D01*
X58754Y-52820D01*
X58923Y-52651D02*
X58923Y-52520D01*
X59129Y-52464D02*
X59129Y-52651D01*
X58735Y-52651D01*
X58735Y-52464D01*
X58735Y-52351D02*
X58735Y-52126D01*
X59129Y-52239D02*
X58735Y-52239D01*
G54D12*
X55712Y-56040D02*
X55748Y-56052D01*
X55760Y-56064D01*
X55772Y-56087D01*
X55772Y-56123D01*
X55760Y-56147D01*
X55748Y-56159D01*
X55724Y-56171D01*
X55629Y-56171D01*
X55629Y-55921D01*
X55712Y-55921D01*
X55736Y-55933D01*
X55748Y-55945D01*
X55760Y-55968D01*
X55760Y-55992D01*
X55748Y-56016D01*
X55736Y-56028D01*
X55712Y-56040D01*
X55629Y-56040D01*
X55927Y-55921D02*
X55974Y-55921D01*
X55998Y-55933D01*
X56022Y-55956D01*
X56034Y-56004D01*
X56034Y-56087D01*
X56022Y-56135D01*
X55998Y-56159D01*
X55974Y-56171D01*
X55927Y-56171D01*
X55903Y-56159D01*
X55879Y-56135D01*
X55867Y-56087D01*
X55867Y-56004D01*
X55879Y-55956D01*
X55903Y-55933D01*
X55927Y-55921D01*
X56189Y-55921D02*
X56236Y-55921D01*
X56260Y-55933D01*
X56284Y-55956D01*
X56296Y-56004D01*
X56296Y-56087D01*
X56284Y-56135D01*
X56260Y-56159D01*
X56236Y-56171D01*
X56189Y-56171D01*
X56165Y-56159D01*
X56141Y-56135D01*
X56129Y-56087D01*
X56129Y-56004D01*
X56141Y-55956D01*
X56165Y-55933D01*
X56189Y-55921D01*
X56367Y-55921D02*
X56510Y-55921D01*
X56439Y-56171D02*
X56439Y-55921D01*
X56641Y-55921D02*
X56665Y-55921D01*
X56689Y-55933D01*
X56701Y-55945D01*
X56712Y-55968D01*
X56724Y-56016D01*
X56724Y-56076D01*
X56712Y-56123D01*
X56701Y-56147D01*
X56689Y-56159D01*
X56665Y-56171D01*
X56641Y-56171D01*
X56617Y-56159D01*
X56605Y-56147D01*
X56593Y-56123D01*
X56581Y-56076D01*
X56581Y-56016D01*
X56593Y-55968D01*
X56605Y-55945D01*
X56617Y-55933D01*
X56641Y-55921D01*
X59140Y-55627D02*
X59140Y-55710D01*
X59271Y-55710D02*
X59021Y-55710D01*
X59021Y-55591D01*
X59271Y-55377D02*
X59271Y-55496D01*
X59021Y-55496D01*
X59199Y-55305D02*
X59199Y-55186D01*
X59271Y-55329D02*
X59021Y-55246D01*
X59271Y-55162D01*
X59259Y-55091D02*
X59271Y-55055D01*
X59271Y-54996D01*
X59259Y-54972D01*
X59247Y-54960D01*
X59223Y-54948D01*
X59199Y-54948D01*
X59176Y-54960D01*
X59164Y-54972D01*
X59152Y-54996D01*
X59140Y-55043D01*
X59128Y-55067D01*
X59116Y-55079D01*
X59092Y-55091D01*
X59068Y-55091D01*
X59045Y-55079D01*
X59033Y-55067D01*
X59021Y-55043D01*
X59021Y-54984D01*
X59033Y-54948D01*
X59271Y-54841D02*
X59021Y-54841D01*
X59140Y-54841D02*
X59140Y-54698D01*
X59271Y-54698D02*
X59021Y-54698D01*
X69005Y-46221D02*
X69065Y-46471D01*
X69112Y-46292D01*
X69160Y-46471D01*
X69220Y-46221D01*
X69315Y-46471D02*
X69315Y-46221D01*
X69517Y-46340D02*
X69434Y-46340D01*
X69434Y-46471D02*
X69434Y-46221D01*
X69553Y-46221D01*
X69648Y-46471D02*
X69648Y-46221D01*
X69958Y-46471D02*
X69958Y-46221D01*
X70017Y-46221D01*
X70053Y-46233D01*
X70077Y-46256D01*
X70089Y-46280D01*
X70101Y-46328D01*
X70101Y-46364D01*
X70089Y-46411D01*
X70077Y-46435D01*
X70053Y-46459D01*
X70017Y-46471D01*
X69958Y-46471D01*
X70291Y-46340D02*
X70327Y-46352D01*
X70339Y-46364D01*
X70351Y-46387D01*
X70351Y-46423D01*
X70339Y-46447D01*
X70327Y-46459D01*
X70303Y-46471D01*
X70208Y-46471D01*
X70208Y-46221D01*
X70291Y-46221D01*
X70315Y-46233D01*
X70327Y-46245D01*
X70339Y-46268D01*
X70339Y-46292D01*
X70327Y-46316D01*
X70315Y-46328D01*
X70291Y-46340D01*
X70208Y-46340D01*
X70589Y-46233D02*
X70565Y-46221D01*
X70529Y-46221D01*
X70493Y-46233D01*
X70470Y-46256D01*
X70458Y-46280D01*
X70446Y-46328D01*
X70446Y-46364D01*
X70458Y-46411D01*
X70470Y-46435D01*
X70493Y-46459D01*
X70529Y-46471D01*
X70553Y-46471D01*
X70589Y-46459D01*
X70601Y-46447D01*
X70601Y-46364D01*
X70553Y-46364D01*
X64505Y-54721D02*
X64565Y-54971D01*
X64612Y-54792D01*
X64660Y-54971D01*
X64720Y-54721D01*
X64815Y-54971D02*
X64815Y-54721D01*
X65017Y-54840D02*
X64934Y-54840D01*
X64934Y-54971D02*
X64934Y-54721D01*
X65053Y-54721D01*
X65148Y-54971D02*
X65148Y-54721D01*
X65458Y-54840D02*
X65541Y-54840D01*
X65577Y-54971D02*
X65458Y-54971D01*
X65458Y-54721D01*
X65577Y-54721D01*
X65684Y-54971D02*
X65684Y-54721D01*
X65827Y-54971D01*
X65827Y-54721D01*
X55659Y-55522D02*
X55671Y-55486D01*
X55671Y-55427D01*
X55659Y-55403D01*
X55647Y-55391D01*
X55623Y-55379D01*
X55599Y-55379D01*
X55576Y-55391D01*
X55564Y-55403D01*
X55552Y-55427D01*
X55540Y-55474D01*
X55528Y-55498D01*
X55516Y-55510D01*
X55492Y-55522D01*
X55468Y-55522D01*
X55445Y-55510D01*
X55433Y-55498D01*
X55421Y-55474D01*
X55421Y-55415D01*
X55433Y-55379D01*
X55552Y-55224D02*
X55671Y-55224D01*
X55421Y-55308D02*
X55552Y-55224D01*
X55421Y-55141D01*
X55659Y-55070D02*
X55671Y-55034D01*
X55671Y-54974D01*
X55659Y-54951D01*
X55647Y-54939D01*
X55623Y-54927D01*
X55599Y-54927D01*
X55576Y-54939D01*
X55564Y-54951D01*
X55552Y-54974D01*
X55540Y-55022D01*
X55528Y-55046D01*
X55516Y-55058D01*
X55492Y-55070D01*
X55468Y-55070D01*
X55445Y-55058D01*
X55433Y-55046D01*
X55421Y-55022D01*
X55421Y-54962D01*
X55433Y-54927D01*
X50021Y-51939D02*
X50199Y-51939D01*
X50235Y-51951D01*
X50259Y-51974D01*
X50271Y-52010D01*
X50271Y-52034D01*
X50021Y-51855D02*
X50021Y-51712D01*
X50271Y-51784D02*
X50021Y-51784D01*
X50199Y-51641D02*
X50199Y-51522D01*
X50271Y-51665D02*
X50021Y-51581D01*
X50271Y-51498D01*
X50033Y-51284D02*
X50021Y-51308D01*
X50021Y-51343D01*
X50033Y-51379D01*
X50056Y-51403D01*
X50080Y-51415D01*
X50128Y-51427D01*
X50164Y-51427D01*
X50211Y-51415D01*
X50235Y-51403D01*
X50259Y-51379D01*
X50271Y-51343D01*
X50271Y-51320D01*
X50259Y-51284D01*
X50247Y-51272D01*
X50164Y-51272D01*
X50164Y-51320D01*
X50140Y-50974D02*
X50140Y-50891D01*
X50271Y-50855D02*
X50271Y-50974D01*
X50021Y-50974D01*
X50021Y-50855D01*
X50271Y-50748D02*
X50021Y-50748D01*
X50271Y-50605D01*
X50021Y-50605D01*
X50405Y-45721D02*
X50560Y-45721D01*
X50477Y-45816D01*
X50512Y-45816D01*
X50536Y-45828D01*
X50548Y-45840D01*
X50560Y-45864D01*
X50560Y-45923D01*
X50548Y-45947D01*
X50536Y-45959D01*
X50512Y-45971D01*
X50441Y-45971D01*
X50417Y-45959D01*
X50405Y-45947D01*
X50667Y-45947D02*
X50679Y-45959D01*
X50667Y-45971D01*
X50655Y-45959D01*
X50667Y-45947D01*
X50667Y-45971D01*
X50762Y-45721D02*
X50917Y-45721D01*
X50834Y-45816D01*
X50870Y-45816D01*
X50893Y-45828D01*
X50905Y-45840D01*
X50917Y-45864D01*
X50917Y-45923D01*
X50905Y-45947D01*
X50893Y-45959D01*
X50870Y-45971D01*
X50798Y-45971D01*
X50774Y-45959D01*
X50762Y-45947D01*
X50989Y-45721D02*
X51072Y-45971D01*
X51155Y-45721D01*
X50512Y-43840D02*
X50548Y-43852D01*
X50560Y-43864D01*
X50572Y-43887D01*
X50572Y-43923D01*
X50560Y-43947D01*
X50548Y-43959D01*
X50524Y-43971D01*
X50429Y-43971D01*
X50429Y-43721D01*
X50512Y-43721D01*
X50536Y-43733D01*
X50548Y-43745D01*
X50560Y-43768D01*
X50560Y-43792D01*
X50548Y-43816D01*
X50536Y-43828D01*
X50512Y-43840D01*
X50429Y-43840D01*
X50667Y-43899D02*
X50786Y-43899D01*
X50643Y-43971D02*
X50727Y-43721D01*
X50810Y-43971D01*
X50858Y-43721D02*
X51001Y-43721D01*
X50929Y-43971D02*
X50929Y-43721D01*
G54D13*
X69233Y-57579D02*
X69221Y-57603D01*
X69221Y-57639D01*
X69233Y-57674D01*
X69256Y-57698D01*
X69280Y-57710D01*
X69328Y-57722D01*
X69364Y-57722D01*
X69411Y-57710D01*
X69435Y-57698D01*
X69459Y-57674D01*
X69471Y-57639D01*
X69471Y-57615D01*
X69459Y-57579D01*
X69447Y-57567D01*
X69364Y-57567D01*
X69364Y-57615D01*
X69471Y-57460D02*
X69221Y-57460D01*
X69471Y-57317D01*
X69221Y-57317D01*
X69471Y-57198D02*
X69221Y-57198D01*
X69221Y-57139D01*
X69233Y-57103D01*
X69256Y-57079D01*
X69280Y-57067D01*
X69328Y-57055D01*
X69364Y-57055D01*
X69411Y-57067D01*
X69435Y-57079D01*
X69459Y-57103D01*
X69471Y-57139D01*
X69471Y-57198D01*
G54D12*
X68221Y-57734D02*
X68221Y-57579D01*
X68316Y-57662D01*
X68316Y-57627D01*
X68328Y-57603D01*
X68340Y-57591D01*
X68364Y-57579D01*
X68423Y-57579D01*
X68447Y-57591D01*
X68459Y-57603D01*
X68471Y-57627D01*
X68471Y-57698D01*
X68459Y-57722D01*
X68447Y-57734D01*
X68447Y-57472D02*
X68459Y-57460D01*
X68471Y-57472D01*
X68459Y-57484D01*
X68447Y-57472D01*
X68471Y-57472D01*
X68221Y-57377D02*
X68221Y-57222D01*
X68316Y-57305D01*
X68316Y-57270D01*
X68328Y-57246D01*
X68340Y-57234D01*
X68364Y-57222D01*
X68423Y-57222D01*
X68447Y-57234D01*
X68459Y-57246D01*
X68471Y-57270D01*
X68471Y-57341D01*
X68459Y-57365D01*
X68447Y-57377D01*
X68221Y-57151D02*
X68471Y-57067D01*
X68221Y-56984D01*
G54D11*
X67135Y-57488D02*
X67135Y-57676D01*
X67323Y-57695D01*
X67304Y-57676D01*
X67285Y-57638D01*
X67285Y-57545D01*
X67304Y-57507D01*
X67323Y-57488D01*
X67360Y-57470D01*
X67454Y-57470D01*
X67491Y-57488D01*
X67510Y-57507D01*
X67529Y-57545D01*
X67529Y-57638D01*
X67510Y-57676D01*
X67491Y-57695D01*
X67135Y-57357D02*
X67529Y-57226D01*
X67135Y-57095D01*
X66529Y-57676D02*
X66135Y-57676D01*
X66135Y-57526D01*
X66154Y-57488D01*
X66173Y-57470D01*
X66210Y-57451D01*
X66266Y-57451D01*
X66304Y-57470D01*
X66323Y-57488D01*
X66341Y-57526D01*
X66341Y-57676D01*
X66491Y-57057D02*
X66510Y-57076D01*
X66529Y-57132D01*
X66529Y-57170D01*
X66510Y-57226D01*
X66473Y-57263D01*
X66435Y-57282D01*
X66360Y-57301D01*
X66304Y-57301D01*
X66229Y-57282D01*
X66191Y-57263D01*
X66154Y-57226D01*
X66135Y-57170D01*
X66135Y-57132D01*
X66154Y-57076D01*
X66173Y-57057D01*
X66529Y-56682D02*
X66529Y-56907D01*
X66529Y-56795D02*
X66135Y-56795D01*
X66191Y-56832D01*
X66229Y-56870D01*
X66248Y-56907D01*
X66135Y-56551D02*
X66135Y-56307D01*
X66285Y-56438D01*
X66285Y-56382D01*
X66304Y-56345D01*
X66323Y-56326D01*
X66360Y-56307D01*
X66454Y-56307D01*
X66491Y-56326D01*
X66510Y-56345D01*
X66529Y-56382D01*
X66529Y-56495D01*
X66510Y-56532D01*
X66491Y-56551D01*
X65529Y-57676D02*
X65135Y-57676D01*
X65135Y-57526D01*
X65154Y-57488D01*
X65173Y-57470D01*
X65210Y-57451D01*
X65266Y-57451D01*
X65304Y-57470D01*
X65323Y-57488D01*
X65341Y-57526D01*
X65341Y-57676D01*
X65323Y-57151D02*
X65341Y-57095D01*
X65360Y-57076D01*
X65398Y-57057D01*
X65454Y-57057D01*
X65491Y-57076D01*
X65510Y-57095D01*
X65529Y-57132D01*
X65529Y-57282D01*
X65135Y-57282D01*
X65135Y-57151D01*
X65154Y-57113D01*
X65173Y-57095D01*
X65210Y-57076D01*
X65248Y-57076D01*
X65285Y-57095D01*
X65304Y-57113D01*
X65323Y-57151D01*
X65323Y-57282D01*
X65529Y-56682D02*
X65529Y-56907D01*
X65529Y-56795D02*
X65135Y-56795D01*
X65191Y-56832D01*
X65229Y-56870D01*
X65248Y-56907D01*
X65135Y-56326D02*
X65135Y-56513D01*
X65323Y-56532D01*
X65304Y-56513D01*
X65285Y-56476D01*
X65285Y-56382D01*
X65304Y-56345D01*
X65323Y-56326D01*
X65360Y-56307D01*
X65454Y-56307D01*
X65491Y-56326D01*
X65510Y-56345D01*
X65529Y-56382D01*
X65529Y-56476D01*
X65510Y-56513D01*
X65491Y-56532D01*
X64529Y-57676D02*
X64135Y-57676D01*
X64135Y-57526D01*
X64154Y-57488D01*
X64173Y-57470D01*
X64210Y-57451D01*
X64266Y-57451D01*
X64304Y-57470D01*
X64323Y-57488D01*
X64341Y-57526D01*
X64341Y-57676D01*
X64323Y-57151D02*
X64341Y-57095D01*
X64360Y-57076D01*
X64398Y-57057D01*
X64454Y-57057D01*
X64491Y-57076D01*
X64510Y-57095D01*
X64529Y-57132D01*
X64529Y-57282D01*
X64135Y-57282D01*
X64135Y-57151D01*
X64154Y-57113D01*
X64173Y-57095D01*
X64210Y-57076D01*
X64248Y-57076D01*
X64285Y-57095D01*
X64304Y-57113D01*
X64323Y-57151D01*
X64323Y-57282D01*
X64529Y-56682D02*
X64529Y-56907D01*
X64529Y-56795D02*
X64135Y-56795D01*
X64191Y-56832D01*
X64229Y-56870D01*
X64248Y-56907D01*
X64266Y-56345D02*
X64529Y-56345D01*
X64116Y-56438D02*
X64398Y-56532D01*
X64398Y-56289D01*
X63529Y-57676D02*
X63135Y-57676D01*
X63135Y-57526D01*
X63154Y-57488D01*
X63173Y-57470D01*
X63210Y-57451D01*
X63266Y-57451D01*
X63304Y-57470D01*
X63323Y-57488D01*
X63341Y-57526D01*
X63341Y-57676D01*
X63323Y-57151D02*
X63341Y-57095D01*
X63360Y-57076D01*
X63398Y-57057D01*
X63454Y-57057D01*
X63491Y-57076D01*
X63510Y-57095D01*
X63529Y-57132D01*
X63529Y-57282D01*
X63135Y-57282D01*
X63135Y-57151D01*
X63154Y-57113D01*
X63173Y-57095D01*
X63210Y-57076D01*
X63248Y-57076D01*
X63285Y-57095D01*
X63304Y-57113D01*
X63323Y-57151D01*
X63323Y-57282D01*
X63529Y-56682D02*
X63529Y-56907D01*
X63529Y-56795D02*
X63135Y-56795D01*
X63191Y-56832D01*
X63229Y-56870D01*
X63248Y-56907D01*
X63135Y-56551D02*
X63135Y-56307D01*
X63285Y-56438D01*
X63285Y-56382D01*
X63304Y-56345D01*
X63323Y-56326D01*
X63360Y-56307D01*
X63454Y-56307D01*
X63491Y-56326D01*
X63510Y-56345D01*
X63529Y-56382D01*
X63529Y-56495D01*
X63510Y-56532D01*
X63491Y-56551D01*
X62529Y-57676D02*
X62135Y-57676D01*
X62135Y-57526D01*
X62154Y-57488D01*
X62173Y-57470D01*
X62210Y-57451D01*
X62266Y-57451D01*
X62304Y-57470D01*
X62323Y-57488D01*
X62341Y-57526D01*
X62341Y-57676D01*
X62323Y-57151D02*
X62341Y-57095D01*
X62360Y-57076D01*
X62398Y-57057D01*
X62454Y-57057D01*
X62491Y-57076D01*
X62510Y-57095D01*
X62529Y-57132D01*
X62529Y-57282D01*
X62135Y-57282D01*
X62135Y-57151D01*
X62154Y-57113D01*
X62173Y-57095D01*
X62210Y-57076D01*
X62248Y-57076D01*
X62285Y-57095D01*
X62304Y-57113D01*
X62323Y-57151D01*
X62323Y-57282D01*
X62529Y-56682D02*
X62529Y-56907D01*
X62529Y-56795D02*
X62135Y-56795D01*
X62191Y-56832D01*
X62229Y-56870D01*
X62248Y-56907D01*
X62173Y-56532D02*
X62154Y-56513D01*
X62135Y-56476D01*
X62135Y-56382D01*
X62154Y-56345D01*
X62173Y-56326D01*
X62210Y-56307D01*
X62248Y-56307D01*
X62304Y-56326D01*
X62529Y-56551D01*
X62529Y-56307D01*
X61529Y-57676D02*
X61135Y-57676D01*
X61135Y-57526D01*
X61154Y-57488D01*
X61173Y-57470D01*
X61210Y-57451D01*
X61266Y-57451D01*
X61304Y-57470D01*
X61323Y-57488D01*
X61341Y-57526D01*
X61341Y-57676D01*
X61323Y-57151D02*
X61341Y-57095D01*
X61360Y-57076D01*
X61398Y-57057D01*
X61454Y-57057D01*
X61491Y-57076D01*
X61510Y-57095D01*
X61529Y-57132D01*
X61529Y-57282D01*
X61135Y-57282D01*
X61135Y-57151D01*
X61154Y-57113D01*
X61173Y-57095D01*
X61210Y-57076D01*
X61248Y-57076D01*
X61285Y-57095D01*
X61304Y-57113D01*
X61323Y-57151D01*
X61323Y-57282D01*
X61529Y-56682D02*
X61529Y-56907D01*
X61529Y-56795D02*
X61135Y-56795D01*
X61191Y-56832D01*
X61229Y-56870D01*
X61248Y-56907D01*
X61529Y-56307D02*
X61529Y-56532D01*
X61529Y-56420D02*
X61135Y-56420D01*
X61191Y-56457D01*
X61229Y-56495D01*
X61248Y-56532D01*
X60529Y-57676D02*
X60135Y-57676D01*
X60135Y-57526D01*
X60154Y-57488D01*
X60173Y-57470D01*
X60210Y-57451D01*
X60266Y-57451D01*
X60304Y-57470D01*
X60323Y-57488D01*
X60341Y-57526D01*
X60341Y-57676D01*
X60323Y-57151D02*
X60341Y-57095D01*
X60360Y-57076D01*
X60398Y-57057D01*
X60454Y-57057D01*
X60491Y-57076D01*
X60510Y-57095D01*
X60529Y-57132D01*
X60529Y-57282D01*
X60135Y-57282D01*
X60135Y-57151D01*
X60154Y-57113D01*
X60173Y-57095D01*
X60210Y-57076D01*
X60248Y-57076D01*
X60285Y-57095D01*
X60304Y-57113D01*
X60323Y-57151D01*
X60323Y-57282D01*
X60529Y-56682D02*
X60529Y-56907D01*
X60529Y-56795D02*
X60135Y-56795D01*
X60191Y-56832D01*
X60229Y-56870D01*
X60248Y-56907D01*
X60135Y-56438D02*
X60135Y-56401D01*
X60154Y-56364D01*
X60173Y-56345D01*
X60210Y-56326D01*
X60285Y-56307D01*
X60379Y-56307D01*
X60454Y-56326D01*
X60491Y-56345D01*
X60510Y-56364D01*
X60529Y-56401D01*
X60529Y-56438D01*
X60510Y-56476D01*
X60491Y-56495D01*
X60454Y-56513D01*
X60379Y-56532D01*
X60285Y-56532D01*
X60210Y-56513D01*
X60173Y-56495D01*
X60154Y-56476D01*
X60135Y-56438D01*
X59529Y-57676D02*
X59135Y-57676D01*
X59135Y-57526D01*
X59154Y-57488D01*
X59173Y-57470D01*
X59210Y-57451D01*
X59266Y-57451D01*
X59304Y-57470D01*
X59323Y-57488D01*
X59341Y-57526D01*
X59341Y-57676D01*
X59323Y-57151D02*
X59341Y-57095D01*
X59360Y-57076D01*
X59398Y-57057D01*
X59454Y-57057D01*
X59491Y-57076D01*
X59510Y-57095D01*
X59529Y-57132D01*
X59529Y-57282D01*
X59135Y-57282D01*
X59135Y-57151D01*
X59154Y-57113D01*
X59173Y-57095D01*
X59210Y-57076D01*
X59248Y-57076D01*
X59285Y-57095D01*
X59304Y-57113D01*
X59323Y-57151D01*
X59323Y-57282D01*
X59529Y-56870D02*
X59529Y-56795D01*
X59510Y-56757D01*
X59491Y-56738D01*
X59435Y-56701D01*
X59360Y-56682D01*
X59210Y-56682D01*
X59173Y-56701D01*
X59154Y-56720D01*
X59135Y-56757D01*
X59135Y-56832D01*
X59154Y-56870D01*
X59173Y-56888D01*
X59210Y-56907D01*
X59304Y-56907D01*
X59341Y-56888D01*
X59360Y-56870D01*
X59379Y-56832D01*
X59379Y-56757D01*
X59360Y-56720D01*
X59341Y-56701D01*
X59304Y-56682D01*
X58529Y-57676D02*
X58135Y-57676D01*
X58135Y-57526D01*
X58154Y-57488D01*
X58173Y-57470D01*
X58210Y-57451D01*
X58266Y-57451D01*
X58304Y-57470D01*
X58323Y-57488D01*
X58341Y-57526D01*
X58341Y-57676D01*
X58323Y-57151D02*
X58341Y-57095D01*
X58360Y-57076D01*
X58398Y-57057D01*
X58454Y-57057D01*
X58491Y-57076D01*
X58510Y-57095D01*
X58529Y-57132D01*
X58529Y-57282D01*
X58135Y-57282D01*
X58135Y-57151D01*
X58154Y-57113D01*
X58173Y-57095D01*
X58210Y-57076D01*
X58248Y-57076D01*
X58285Y-57095D01*
X58304Y-57113D01*
X58323Y-57151D01*
X58323Y-57282D01*
X58304Y-56832D02*
X58285Y-56870D01*
X58266Y-56888D01*
X58229Y-56907D01*
X58210Y-56907D01*
X58173Y-56888D01*
X58154Y-56870D01*
X58135Y-56832D01*
X58135Y-56757D01*
X58154Y-56720D01*
X58173Y-56701D01*
X58210Y-56682D01*
X58229Y-56682D01*
X58266Y-56701D01*
X58285Y-56720D01*
X58304Y-56757D01*
X58304Y-56832D01*
X58323Y-56870D01*
X58341Y-56888D01*
X58379Y-56907D01*
X58454Y-56907D01*
X58491Y-56888D01*
X58510Y-56870D01*
X58529Y-56832D01*
X58529Y-56757D01*
X58510Y-56720D01*
X58491Y-56701D01*
X58454Y-56682D01*
X58379Y-56682D01*
X58341Y-56701D01*
X58323Y-56720D01*
X58304Y-56757D01*
X57529Y-57676D02*
X57135Y-57676D01*
X57135Y-57526D01*
X57154Y-57488D01*
X57173Y-57470D01*
X57210Y-57451D01*
X57266Y-57451D01*
X57304Y-57470D01*
X57323Y-57488D01*
X57341Y-57526D01*
X57341Y-57676D01*
X57323Y-57151D02*
X57341Y-57095D01*
X57360Y-57076D01*
X57398Y-57057D01*
X57454Y-57057D01*
X57491Y-57076D01*
X57510Y-57095D01*
X57529Y-57132D01*
X57529Y-57282D01*
X57135Y-57282D01*
X57135Y-57151D01*
X57154Y-57113D01*
X57173Y-57095D01*
X57210Y-57076D01*
X57248Y-57076D01*
X57285Y-57095D01*
X57304Y-57113D01*
X57323Y-57151D01*
X57323Y-57282D01*
X57135Y-56926D02*
X57135Y-56663D01*
X57529Y-56832D01*
X56529Y-57676D02*
X56135Y-57676D01*
X56135Y-57526D01*
X56154Y-57488D01*
X56173Y-57470D01*
X56210Y-57451D01*
X56266Y-57451D01*
X56304Y-57470D01*
X56323Y-57488D01*
X56341Y-57526D01*
X56341Y-57676D01*
X56323Y-57151D02*
X56341Y-57095D01*
X56360Y-57076D01*
X56398Y-57057D01*
X56454Y-57057D01*
X56491Y-57076D01*
X56510Y-57095D01*
X56529Y-57132D01*
X56529Y-57282D01*
X56135Y-57282D01*
X56135Y-57151D01*
X56154Y-57113D01*
X56173Y-57095D01*
X56210Y-57076D01*
X56248Y-57076D01*
X56285Y-57095D01*
X56304Y-57113D01*
X56323Y-57151D01*
X56323Y-57282D01*
X56135Y-56720D02*
X56135Y-56795D01*
X56154Y-56832D01*
X56173Y-56851D01*
X56229Y-56888D01*
X56304Y-56907D01*
X56454Y-56907D01*
X56491Y-56888D01*
X56510Y-56870D01*
X56529Y-56832D01*
X56529Y-56757D01*
X56510Y-56720D01*
X56491Y-56701D01*
X56454Y-56682D01*
X56360Y-56682D01*
X56323Y-56701D01*
X56304Y-56720D01*
X56285Y-56757D01*
X56285Y-56832D01*
X56304Y-56870D01*
X56323Y-56888D01*
X56360Y-56907D01*
X55529Y-57676D02*
X55135Y-57676D01*
X55135Y-57526D01*
X55154Y-57488D01*
X55173Y-57470D01*
X55210Y-57451D01*
X55266Y-57451D01*
X55304Y-57470D01*
X55323Y-57488D01*
X55341Y-57526D01*
X55341Y-57676D01*
X55323Y-57151D02*
X55341Y-57095D01*
X55360Y-57076D01*
X55398Y-57057D01*
X55454Y-57057D01*
X55491Y-57076D01*
X55510Y-57095D01*
X55529Y-57132D01*
X55529Y-57282D01*
X55135Y-57282D01*
X55135Y-57151D01*
X55154Y-57113D01*
X55173Y-57095D01*
X55210Y-57076D01*
X55248Y-57076D01*
X55285Y-57095D01*
X55304Y-57113D01*
X55323Y-57151D01*
X55323Y-57282D01*
X55135Y-56701D02*
X55135Y-56888D01*
X55323Y-56907D01*
X55304Y-56888D01*
X55285Y-56851D01*
X55285Y-56757D01*
X55304Y-56720D01*
X55323Y-56701D01*
X55360Y-56682D01*
X55454Y-56682D01*
X55491Y-56701D01*
X55510Y-56720D01*
X55529Y-56757D01*
X55529Y-56851D01*
X55510Y-56888D01*
X55491Y-56907D01*
X54529Y-57676D02*
X54135Y-57676D01*
X54135Y-57526D01*
X54154Y-57488D01*
X54173Y-57470D01*
X54210Y-57451D01*
X54266Y-57451D01*
X54304Y-57470D01*
X54323Y-57488D01*
X54341Y-57526D01*
X54341Y-57676D01*
X54323Y-57151D02*
X54341Y-57095D01*
X54360Y-57076D01*
X54398Y-57057D01*
X54454Y-57057D01*
X54491Y-57076D01*
X54510Y-57095D01*
X54529Y-57132D01*
X54529Y-57282D01*
X54135Y-57282D01*
X54135Y-57151D01*
X54154Y-57113D01*
X54173Y-57095D01*
X54210Y-57076D01*
X54248Y-57076D01*
X54285Y-57095D01*
X54304Y-57113D01*
X54323Y-57151D01*
X54323Y-57282D01*
X54266Y-56720D02*
X54529Y-56720D01*
X54116Y-56813D02*
X54398Y-56907D01*
X54398Y-56663D01*
X53529Y-57676D02*
X53135Y-57676D01*
X53135Y-57526D01*
X53154Y-57488D01*
X53173Y-57470D01*
X53210Y-57451D01*
X53266Y-57451D01*
X53304Y-57470D01*
X53323Y-57488D01*
X53341Y-57526D01*
X53341Y-57676D01*
X53323Y-57151D02*
X53341Y-57095D01*
X53360Y-57076D01*
X53398Y-57057D01*
X53454Y-57057D01*
X53491Y-57076D01*
X53510Y-57095D01*
X53529Y-57132D01*
X53529Y-57282D01*
X53135Y-57282D01*
X53135Y-57151D01*
X53154Y-57113D01*
X53173Y-57095D01*
X53210Y-57076D01*
X53248Y-57076D01*
X53285Y-57095D01*
X53304Y-57113D01*
X53323Y-57151D01*
X53323Y-57282D01*
X53135Y-56926D02*
X53135Y-56682D01*
X53285Y-56813D01*
X53285Y-56757D01*
X53304Y-56720D01*
X53323Y-56701D01*
X53360Y-56682D01*
X53454Y-56682D01*
X53491Y-56701D01*
X53510Y-56720D01*
X53529Y-56757D01*
X53529Y-56870D01*
X53510Y-56907D01*
X53491Y-56926D01*
X52529Y-57676D02*
X52135Y-57676D01*
X52135Y-57526D01*
X52154Y-57488D01*
X52173Y-57470D01*
X52210Y-57451D01*
X52266Y-57451D01*
X52304Y-57470D01*
X52323Y-57488D01*
X52341Y-57526D01*
X52341Y-57676D01*
X52323Y-57151D02*
X52341Y-57095D01*
X52360Y-57076D01*
X52398Y-57057D01*
X52454Y-57057D01*
X52491Y-57076D01*
X52510Y-57095D01*
X52529Y-57132D01*
X52529Y-57282D01*
X52135Y-57282D01*
X52135Y-57151D01*
X52154Y-57113D01*
X52173Y-57095D01*
X52210Y-57076D01*
X52248Y-57076D01*
X52285Y-57095D01*
X52304Y-57113D01*
X52323Y-57151D01*
X52323Y-57282D01*
X52173Y-56907D02*
X52154Y-56888D01*
X52135Y-56851D01*
X52135Y-56757D01*
X52154Y-56720D01*
X52173Y-56701D01*
X52210Y-56682D01*
X52248Y-56682D01*
X52304Y-56701D01*
X52529Y-56926D01*
X52529Y-56682D01*
X51529Y-57676D02*
X51135Y-57676D01*
X51135Y-57526D01*
X51154Y-57488D01*
X51173Y-57470D01*
X51210Y-57451D01*
X51266Y-57451D01*
X51304Y-57470D01*
X51323Y-57488D01*
X51341Y-57526D01*
X51341Y-57676D01*
X51323Y-57151D02*
X51341Y-57095D01*
X51360Y-57076D01*
X51398Y-57057D01*
X51454Y-57057D01*
X51491Y-57076D01*
X51510Y-57095D01*
X51529Y-57132D01*
X51529Y-57282D01*
X51135Y-57282D01*
X51135Y-57151D01*
X51154Y-57113D01*
X51173Y-57095D01*
X51210Y-57076D01*
X51248Y-57076D01*
X51285Y-57095D01*
X51304Y-57113D01*
X51323Y-57151D01*
X51323Y-57282D01*
X51529Y-56682D02*
X51529Y-56907D01*
X51529Y-56795D02*
X51135Y-56795D01*
X51191Y-56832D01*
X51229Y-56870D01*
X51248Y-56907D01*
X50529Y-57676D02*
X50135Y-57676D01*
X50135Y-57526D01*
X50154Y-57488D01*
X50173Y-57470D01*
X50210Y-57451D01*
X50266Y-57451D01*
X50304Y-57470D01*
X50323Y-57488D01*
X50341Y-57526D01*
X50341Y-57676D01*
X50323Y-57151D02*
X50341Y-57095D01*
X50360Y-57076D01*
X50398Y-57057D01*
X50454Y-57057D01*
X50491Y-57076D01*
X50510Y-57095D01*
X50529Y-57132D01*
X50529Y-57282D01*
X50135Y-57282D01*
X50135Y-57151D01*
X50154Y-57113D01*
X50173Y-57095D01*
X50210Y-57076D01*
X50248Y-57076D01*
X50285Y-57095D01*
X50304Y-57113D01*
X50323Y-57151D01*
X50323Y-57282D01*
X50135Y-56813D02*
X50135Y-56776D01*
X50154Y-56738D01*
X50173Y-56720D01*
X50210Y-56701D01*
X50285Y-56682D01*
X50379Y-56682D01*
X50454Y-56701D01*
X50491Y-56720D01*
X50510Y-56738D01*
X50529Y-56776D01*
X50529Y-56813D01*
X50510Y-56851D01*
X50491Y-56870D01*
X50454Y-56888D01*
X50379Y-56907D01*
X50285Y-56907D01*
X50210Y-56888D01*
X50173Y-56870D01*
X50154Y-56851D01*
X50135Y-56813D01*
X69529Y-41982D02*
X69135Y-41982D01*
X69135Y-41832D01*
X69154Y-41794D01*
X69173Y-41776D01*
X69210Y-41757D01*
X69266Y-41757D01*
X69304Y-41776D01*
X69323Y-41794D01*
X69341Y-41832D01*
X69341Y-41982D01*
X69416Y-41607D02*
X69416Y-41420D01*
X69529Y-41644D02*
X69135Y-41513D01*
X69529Y-41382D01*
X69135Y-41176D02*
X69135Y-41138D01*
X69154Y-41101D01*
X69173Y-41082D01*
X69210Y-41063D01*
X69285Y-41045D01*
X69379Y-41045D01*
X69454Y-41063D01*
X69491Y-41082D01*
X69510Y-41101D01*
X69529Y-41138D01*
X69529Y-41176D01*
X69510Y-41213D01*
X69491Y-41232D01*
X69454Y-41251D01*
X69379Y-41270D01*
X69285Y-41270D01*
X69210Y-41251D01*
X69173Y-41232D01*
X69154Y-41213D01*
X69135Y-41176D01*
X68529Y-41982D02*
X68135Y-41982D01*
X68135Y-41832D01*
X68154Y-41794D01*
X68173Y-41776D01*
X68210Y-41757D01*
X68266Y-41757D01*
X68304Y-41776D01*
X68323Y-41794D01*
X68341Y-41832D01*
X68341Y-41982D01*
X68416Y-41607D02*
X68416Y-41420D01*
X68529Y-41644D02*
X68135Y-41513D01*
X68529Y-41382D01*
X68529Y-41045D02*
X68529Y-41270D01*
X68529Y-41157D02*
X68135Y-41157D01*
X68191Y-41195D01*
X68229Y-41232D01*
X68248Y-41270D01*
X67529Y-41982D02*
X67135Y-41982D01*
X67135Y-41832D01*
X67154Y-41794D01*
X67173Y-41776D01*
X67210Y-41757D01*
X67266Y-41757D01*
X67304Y-41776D01*
X67323Y-41794D01*
X67341Y-41832D01*
X67341Y-41982D01*
X67416Y-41607D02*
X67416Y-41420D01*
X67529Y-41644D02*
X67135Y-41513D01*
X67529Y-41382D01*
X67173Y-41270D02*
X67154Y-41251D01*
X67135Y-41213D01*
X67135Y-41120D01*
X67154Y-41082D01*
X67173Y-41063D01*
X67210Y-41045D01*
X67248Y-41045D01*
X67304Y-41063D01*
X67529Y-41288D01*
X67529Y-41045D01*
X66529Y-41982D02*
X66135Y-41982D01*
X66135Y-41832D01*
X66154Y-41794D01*
X66173Y-41776D01*
X66210Y-41757D01*
X66266Y-41757D01*
X66304Y-41776D01*
X66323Y-41794D01*
X66341Y-41832D01*
X66341Y-41982D01*
X66416Y-41607D02*
X66416Y-41420D01*
X66529Y-41644D02*
X66135Y-41513D01*
X66529Y-41382D01*
X66135Y-41288D02*
X66135Y-41045D01*
X66285Y-41176D01*
X66285Y-41120D01*
X66304Y-41082D01*
X66323Y-41063D01*
X66360Y-41045D01*
X66454Y-41045D01*
X66491Y-41063D01*
X66510Y-41082D01*
X66529Y-41120D01*
X66529Y-41232D01*
X66510Y-41270D01*
X66491Y-41288D01*
X65529Y-41982D02*
X65135Y-41982D01*
X65135Y-41832D01*
X65154Y-41794D01*
X65173Y-41776D01*
X65210Y-41757D01*
X65266Y-41757D01*
X65304Y-41776D01*
X65323Y-41794D01*
X65341Y-41832D01*
X65341Y-41982D01*
X65416Y-41607D02*
X65416Y-41420D01*
X65529Y-41644D02*
X65135Y-41513D01*
X65529Y-41382D01*
X65266Y-41082D02*
X65529Y-41082D01*
X65116Y-41176D02*
X65398Y-41270D01*
X65398Y-41026D01*
X64529Y-41982D02*
X64135Y-41982D01*
X64135Y-41832D01*
X64154Y-41794D01*
X64173Y-41776D01*
X64210Y-41757D01*
X64266Y-41757D01*
X64304Y-41776D01*
X64323Y-41794D01*
X64341Y-41832D01*
X64341Y-41982D01*
X64416Y-41607D02*
X64416Y-41420D01*
X64529Y-41644D02*
X64135Y-41513D01*
X64529Y-41382D01*
X64135Y-41063D02*
X64135Y-41251D01*
X64323Y-41270D01*
X64304Y-41251D01*
X64285Y-41213D01*
X64285Y-41120D01*
X64304Y-41082D01*
X64323Y-41063D01*
X64360Y-41045D01*
X64454Y-41045D01*
X64491Y-41063D01*
X64510Y-41082D01*
X64529Y-41120D01*
X64529Y-41213D01*
X64510Y-41251D01*
X64491Y-41270D01*
X63529Y-41982D02*
X63135Y-41982D01*
X63135Y-41832D01*
X63154Y-41794D01*
X63173Y-41776D01*
X63210Y-41757D01*
X63266Y-41757D01*
X63304Y-41776D01*
X63323Y-41794D01*
X63341Y-41832D01*
X63341Y-41982D01*
X63416Y-41607D02*
X63416Y-41420D01*
X63529Y-41644D02*
X63135Y-41513D01*
X63529Y-41382D01*
X63135Y-41082D02*
X63135Y-41157D01*
X63154Y-41195D01*
X63173Y-41213D01*
X63229Y-41251D01*
X63304Y-41270D01*
X63454Y-41270D01*
X63491Y-41251D01*
X63510Y-41232D01*
X63529Y-41195D01*
X63529Y-41120D01*
X63510Y-41082D01*
X63491Y-41063D01*
X63454Y-41045D01*
X63360Y-41045D01*
X63323Y-41063D01*
X63304Y-41082D01*
X63285Y-41120D01*
X63285Y-41195D01*
X63304Y-41232D01*
X63323Y-41251D01*
X63360Y-41270D01*
X62529Y-41982D02*
X62135Y-41982D01*
X62135Y-41832D01*
X62154Y-41794D01*
X62173Y-41776D01*
X62210Y-41757D01*
X62266Y-41757D01*
X62304Y-41776D01*
X62323Y-41794D01*
X62341Y-41832D01*
X62341Y-41982D01*
X62416Y-41607D02*
X62416Y-41420D01*
X62529Y-41644D02*
X62135Y-41513D01*
X62529Y-41382D01*
X62135Y-41288D02*
X62135Y-41026D01*
X62529Y-41195D01*
X61529Y-41982D02*
X61135Y-41982D01*
X61135Y-41832D01*
X61154Y-41794D01*
X61173Y-41776D01*
X61210Y-41757D01*
X61266Y-41757D01*
X61304Y-41776D01*
X61323Y-41794D01*
X61341Y-41832D01*
X61341Y-41982D01*
X61416Y-41607D02*
X61416Y-41420D01*
X61529Y-41644D02*
X61135Y-41513D01*
X61529Y-41382D01*
X61304Y-41195D02*
X61285Y-41232D01*
X61266Y-41251D01*
X61229Y-41270D01*
X61210Y-41270D01*
X61173Y-41251D01*
X61154Y-41232D01*
X61135Y-41195D01*
X61135Y-41120D01*
X61154Y-41082D01*
X61173Y-41063D01*
X61210Y-41045D01*
X61229Y-41045D01*
X61266Y-41063D01*
X61285Y-41082D01*
X61304Y-41120D01*
X61304Y-41195D01*
X61323Y-41232D01*
X61341Y-41251D01*
X61379Y-41270D01*
X61454Y-41270D01*
X61491Y-41251D01*
X61510Y-41232D01*
X61529Y-41195D01*
X61529Y-41120D01*
X61510Y-41082D01*
X61491Y-41063D01*
X61454Y-41045D01*
X61379Y-41045D01*
X61341Y-41063D01*
X61323Y-41082D01*
X61304Y-41120D01*
X60529Y-41982D02*
X60135Y-41982D01*
X60135Y-41832D01*
X60154Y-41794D01*
X60173Y-41776D01*
X60210Y-41757D01*
X60266Y-41757D01*
X60304Y-41776D01*
X60323Y-41794D01*
X60341Y-41832D01*
X60341Y-41982D01*
X60416Y-41607D02*
X60416Y-41420D01*
X60529Y-41644D02*
X60135Y-41513D01*
X60529Y-41382D01*
X60529Y-41232D02*
X60529Y-41157D01*
X60510Y-41120D01*
X60491Y-41101D01*
X60435Y-41063D01*
X60360Y-41045D01*
X60210Y-41045D01*
X60173Y-41063D01*
X60154Y-41082D01*
X60135Y-41120D01*
X60135Y-41195D01*
X60154Y-41232D01*
X60173Y-41251D01*
X60210Y-41270D01*
X60304Y-41270D01*
X60341Y-41251D01*
X60360Y-41232D01*
X60379Y-41195D01*
X60379Y-41120D01*
X60360Y-41082D01*
X60341Y-41063D01*
X60304Y-41045D01*
X59529Y-42357D02*
X59135Y-42357D01*
X59135Y-42207D01*
X59154Y-42169D01*
X59173Y-42151D01*
X59210Y-42132D01*
X59266Y-42132D01*
X59304Y-42151D01*
X59323Y-42169D01*
X59341Y-42207D01*
X59341Y-42357D01*
X59416Y-41982D02*
X59416Y-41794D01*
X59529Y-42019D02*
X59135Y-41888D01*
X59529Y-41757D01*
X59529Y-41420D02*
X59529Y-41644D01*
X59529Y-41532D02*
X59135Y-41532D01*
X59191Y-41570D01*
X59229Y-41607D01*
X59248Y-41644D01*
X59135Y-41176D02*
X59135Y-41138D01*
X59154Y-41101D01*
X59173Y-41082D01*
X59210Y-41063D01*
X59285Y-41045D01*
X59379Y-41045D01*
X59454Y-41063D01*
X59491Y-41082D01*
X59510Y-41101D01*
X59529Y-41138D01*
X59529Y-41176D01*
X59510Y-41213D01*
X59491Y-41232D01*
X59454Y-41251D01*
X59379Y-41270D01*
X59285Y-41270D01*
X59210Y-41251D01*
X59173Y-41232D01*
X59154Y-41213D01*
X59135Y-41176D01*
X58529Y-42357D02*
X58135Y-42357D01*
X58135Y-42207D01*
X58154Y-42169D01*
X58173Y-42151D01*
X58210Y-42132D01*
X58266Y-42132D01*
X58304Y-42151D01*
X58323Y-42169D01*
X58341Y-42207D01*
X58341Y-42357D01*
X58416Y-41982D02*
X58416Y-41794D01*
X58529Y-42019D02*
X58135Y-41888D01*
X58529Y-41757D01*
X58529Y-41420D02*
X58529Y-41644D01*
X58529Y-41532D02*
X58135Y-41532D01*
X58191Y-41570D01*
X58229Y-41607D01*
X58248Y-41644D01*
X58135Y-41288D02*
X58135Y-41045D01*
X58285Y-41176D01*
X58285Y-41120D01*
X58304Y-41082D01*
X58323Y-41063D01*
X58360Y-41045D01*
X58454Y-41045D01*
X58491Y-41063D01*
X58510Y-41082D01*
X58529Y-41120D01*
X58529Y-41232D01*
X58510Y-41270D01*
X58491Y-41288D01*
X57529Y-42357D02*
X57135Y-42357D01*
X57135Y-42207D01*
X57154Y-42169D01*
X57173Y-42151D01*
X57210Y-42132D01*
X57266Y-42132D01*
X57304Y-42151D01*
X57323Y-42169D01*
X57341Y-42207D01*
X57341Y-42357D01*
X57416Y-41982D02*
X57416Y-41794D01*
X57529Y-42019D02*
X57135Y-41888D01*
X57529Y-41757D01*
X57529Y-41420D02*
X57529Y-41644D01*
X57529Y-41532D02*
X57135Y-41532D01*
X57191Y-41570D01*
X57229Y-41607D01*
X57248Y-41644D01*
X57266Y-41082D02*
X57529Y-41082D01*
X57116Y-41176D02*
X57398Y-41270D01*
X57398Y-41026D01*
X56529Y-42357D02*
X56135Y-42357D01*
X56135Y-42207D01*
X56154Y-42169D01*
X56173Y-42151D01*
X56210Y-42132D01*
X56266Y-42132D01*
X56304Y-42151D01*
X56323Y-42169D01*
X56341Y-42207D01*
X56341Y-42357D01*
X56416Y-41982D02*
X56416Y-41794D01*
X56529Y-42019D02*
X56135Y-41888D01*
X56529Y-41757D01*
X56529Y-41420D02*
X56529Y-41644D01*
X56529Y-41532D02*
X56135Y-41532D01*
X56191Y-41570D01*
X56229Y-41607D01*
X56248Y-41644D01*
X56135Y-41063D02*
X56135Y-41251D01*
X56323Y-41270D01*
X56304Y-41251D01*
X56285Y-41213D01*
X56285Y-41120D01*
X56304Y-41082D01*
X56323Y-41063D01*
X56360Y-41045D01*
X56454Y-41045D01*
X56491Y-41063D01*
X56510Y-41082D01*
X56529Y-41120D01*
X56529Y-41213D01*
X56510Y-41251D01*
X56491Y-41270D01*
X52135Y-41401D02*
X52135Y-41588D01*
X52323Y-41607D01*
X52304Y-41588D01*
X52285Y-41551D01*
X52285Y-41457D01*
X52304Y-41420D01*
X52323Y-41401D01*
X52360Y-41382D01*
X52454Y-41382D01*
X52491Y-41401D01*
X52510Y-41420D01*
X52529Y-41457D01*
X52529Y-41551D01*
X52510Y-41588D01*
X52491Y-41607D01*
X52135Y-41270D02*
X52529Y-41138D01*
X52135Y-41007D01*
X51135Y-42188D02*
X51135Y-41944D01*
X51285Y-42076D01*
X51285Y-42019D01*
X51304Y-41982D01*
X51323Y-41963D01*
X51360Y-41944D01*
X51454Y-41944D01*
X51491Y-41963D01*
X51510Y-41982D01*
X51529Y-42019D01*
X51529Y-42132D01*
X51510Y-42169D01*
X51491Y-42188D01*
X51491Y-41776D02*
X51510Y-41757D01*
X51529Y-41776D01*
X51510Y-41794D01*
X51491Y-41776D01*
X51529Y-41776D01*
X51135Y-41626D02*
X51135Y-41382D01*
X51285Y-41513D01*
X51285Y-41457D01*
X51304Y-41420D01*
X51323Y-41401D01*
X51360Y-41382D01*
X51454Y-41382D01*
X51491Y-41401D01*
X51510Y-41420D01*
X51529Y-41457D01*
X51529Y-41570D01*
X51510Y-41607D01*
X51491Y-41626D01*
X51135Y-41270D02*
X51529Y-41138D01*
X51135Y-41007D01*
X50154Y-41869D02*
X50135Y-41907D01*
X50135Y-41963D01*
X50154Y-42019D01*
X50191Y-42057D01*
X50229Y-42076D01*
X50304Y-42094D01*
X50360Y-42094D01*
X50435Y-42076D01*
X50473Y-42057D01*
X50510Y-42019D01*
X50529Y-41963D01*
X50529Y-41926D01*
X50510Y-41869D01*
X50491Y-41851D01*
X50360Y-41851D01*
X50360Y-41926D01*
X50529Y-41682D02*
X50135Y-41682D01*
X50529Y-41457D01*
X50135Y-41457D01*
X50529Y-41270D02*
X50135Y-41270D01*
X50135Y-41176D01*
X50154Y-41120D01*
X50191Y-41082D01*
X50229Y-41063D01*
X50304Y-41045D01*
X50360Y-41045D01*
X50435Y-41063D01*
X50473Y-41082D01*
X50510Y-41120D01*
X50529Y-41176D01*
X50529Y-41270D01*
G54D14*
X39370Y-59055D02*
X39370Y-39370D01*
X78740Y-59055D02*
X39370Y-59055D01*
X78740Y-39370D02*
X78740Y-59055D01*
X39370Y-39370D02*
X78740Y-39370D01*
X49870Y-57870D02*
X69870Y-57870D01*
X69870Y-57870D02*
X69870Y-58870D01*
X69870Y-58870D02*
X49870Y-58870D01*
X49870Y-58870D02*
X49870Y-57870D01*
X69870Y-40870D02*
X49870Y-40870D01*
X49870Y-40870D02*
X49870Y-39870D01*
X49870Y-39870D02*
X69870Y-39870D01*
X69870Y-39870D02*
X69870Y-40870D01*
G54D15*
X49270Y-50270D02*
X49270Y-49070D01*
X49270Y-49070D02*
X46470Y-49070D01*
X46470Y-49070D02*
X46470Y-50270D01*
X49270Y-51470D02*
X49270Y-51770D01*
X49270Y-51770D02*
X48670Y-52670D01*
X48670Y-52670D02*
X47070Y-52670D01*
X47070Y-52670D02*
X46470Y-51770D01*
X46470Y-51770D02*
X46470Y-51470D01*
X43520Y-49220D02*
X42320Y-49220D01*
X42320Y-49220D02*
X42320Y-52020D01*
X42320Y-52020D02*
X43520Y-52020D01*
X44720Y-49220D02*
X45020Y-49220D01*
X45020Y-49220D02*
X45920Y-49820D01*
X45920Y-49820D02*
X45920Y-51420D01*
X45920Y-51420D02*
X45020Y-52020D01*
X45020Y-52020D02*
X44720Y-52020D01*
G54D12*
X47370Y-53720D02*
X49370Y-53720D01*
X49370Y-53720D02*
X49370Y-55520D01*
X49370Y-55520D02*
X47370Y-55520D01*
X47370Y-55520D02*
X47370Y-53720D01*
X47370Y-54320D02*
X47570Y-54320D01*
X47570Y-54320D02*
X47570Y-54820D01*
X47570Y-54820D02*
X47370Y-54820D01*
G54D16*
X59120Y-42820D02*
G75*
G03X59120Y-42820I-50J0D01*
G74*
G01*
X59070Y-43270D02*
X59070Y-42870D01*
X59070Y-42870D02*
X59670Y-42870D01*
X59670Y-42870D02*
X59670Y-43270D01*
X59670Y-43670D02*
X59670Y-44070D01*
X59670Y-44070D02*
X59070Y-44070D01*
X59070Y-44070D02*
X59070Y-43670D01*
X70270Y-57670D02*
G75*
G03X70270Y-57670I-50J0D01*
G74*
G01*
X70670Y-57670D02*
X70270Y-57670D01*
X70270Y-57670D02*
X70270Y-57070D01*
X70270Y-57070D02*
X70670Y-57070D01*
X71070Y-57070D02*
X71470Y-57070D01*
X71470Y-57070D02*
X71470Y-57670D01*
X71470Y-57670D02*
X71070Y-57670D01*
X68770Y-46770D02*
G75*
G03X68770Y-46770I-50J0D01*
G74*
G01*
X68270Y-46770D02*
X68670Y-46770D01*
X68670Y-46770D02*
X68670Y-47370D01*
X68670Y-47370D02*
X68270Y-47370D01*
X67870Y-47370D02*
X67470Y-47370D01*
X67470Y-47370D02*
X67470Y-46770D01*
X67470Y-46770D02*
X67870Y-46770D01*
X71970Y-45570D02*
G75*
G03X71970Y-45570I-50J0D01*
G74*
G01*
X71470Y-45570D02*
X71870Y-45570D01*
X71870Y-45570D02*
X71870Y-46170D01*
X71870Y-46170D02*
X71470Y-46170D01*
X71070Y-46170D02*
X70670Y-46170D01*
X70670Y-46170D02*
X70670Y-45570D01*
X70670Y-45570D02*
X71070Y-45570D01*
X61470Y-49170D02*
G75*
G03X61470Y-49170I-50J0D01*
G74*
G01*
X60970Y-49170D02*
X61370Y-49170D01*
X61370Y-49170D02*
X61370Y-49770D01*
X61370Y-49770D02*
X60970Y-49770D01*
X60570Y-49770D02*
X60170Y-49770D01*
X60170Y-49770D02*
X60170Y-49170D01*
X60170Y-49170D02*
X60570Y-49170D01*
X72520Y-57670D02*
G75*
G03X72520Y-57670I-50J0D01*
G74*
G01*
X72920Y-57670D02*
X72520Y-57670D01*
X72520Y-57670D02*
X72520Y-57070D01*
X72520Y-57070D02*
X72920Y-57070D01*
X73320Y-57070D02*
X73720Y-57070D01*
X73720Y-57070D02*
X73720Y-57670D01*
X73720Y-57670D02*
X73320Y-57670D01*
X70670Y-45370D02*
G75*
G03X70670Y-45370I-50J0D01*
G74*
G01*
X71070Y-45370D02*
X70670Y-45370D01*
X70670Y-45370D02*
X70670Y-44770D01*
X70670Y-44770D02*
X71070Y-44770D01*
X71470Y-44770D02*
X71870Y-44770D01*
X71870Y-44770D02*
X71870Y-45370D01*
X71870Y-45370D02*
X71470Y-45370D01*
X74770Y-57670D02*
G75*
G03X74770Y-57670I-50J0D01*
G74*
G01*
X75170Y-57670D02*
X74770Y-57670D01*
X74770Y-57670D02*
X74770Y-57070D01*
X74770Y-57070D02*
X75170Y-57070D01*
X75570Y-57070D02*
X75970Y-57070D01*
X75970Y-57070D02*
X75970Y-57670D01*
X75970Y-57670D02*
X75570Y-57670D01*
X67470Y-46570D02*
G75*
G03X67470Y-46570I-50J0D01*
G74*
G01*
X67870Y-46570D02*
X67470Y-46570D01*
X67470Y-46570D02*
X67470Y-45970D01*
X67470Y-45970D02*
X67870Y-45970D01*
X68270Y-45970D02*
X68670Y-45970D01*
X68670Y-45970D02*
X68670Y-46570D01*
X68670Y-46570D02*
X68270Y-46570D01*
X74770Y-58670D02*
G75*
G03X74770Y-58670I-50J0D01*
G74*
G01*
X75170Y-58670D02*
X74770Y-58670D01*
X74770Y-58670D02*
X74770Y-58070D01*
X74770Y-58070D02*
X75170Y-58070D01*
X75570Y-58070D02*
X75970Y-58070D01*
X75970Y-58070D02*
X75970Y-58670D01*
X75970Y-58670D02*
X75570Y-58670D01*
X46470Y-46270D02*
G75*
G03X46470Y-46270I-50J0D01*
G74*
G01*
X46420Y-45820D02*
X46420Y-46220D01*
X46420Y-46220D02*
X45820Y-46220D01*
X45820Y-46220D02*
X45820Y-45820D01*
X45820Y-45420D02*
X45820Y-45020D01*
X45820Y-45020D02*
X46420Y-45020D01*
X46420Y-45020D02*
X46420Y-45420D01*
X46970Y-54770D02*
G75*
G03X46970Y-54770I-50J0D01*
G74*
G01*
X46920Y-54320D02*
X46920Y-54720D01*
X46920Y-54720D02*
X46320Y-54720D01*
X46320Y-54720D02*
X46320Y-54320D01*
X46320Y-53920D02*
X46320Y-53520D01*
X46320Y-53520D02*
X46920Y-53520D01*
X46920Y-53520D02*
X46920Y-53920D01*
X46970Y-56520D02*
G75*
G03X46970Y-56520I-50J0D01*
G74*
G01*
X46920Y-56070D02*
X46920Y-56470D01*
X46920Y-56470D02*
X46320Y-56470D01*
X46320Y-56470D02*
X46320Y-56070D01*
X46320Y-55670D02*
X46320Y-55270D01*
X46320Y-55270D02*
X46920Y-55270D01*
X46920Y-55270D02*
X46920Y-55670D01*
X47320Y-56820D02*
G75*
G03X47320Y-56820I-50J0D01*
G74*
G01*
X46820Y-56820D02*
X47220Y-56820D01*
X47220Y-56820D02*
X47220Y-57420D01*
X47220Y-57420D02*
X46820Y-57420D01*
X46420Y-57420D02*
X46020Y-57420D01*
X46020Y-57420D02*
X46020Y-56820D01*
X46020Y-56820D02*
X46420Y-56820D01*
X48820Y-56820D02*
G75*
G03X48820Y-56820I-50J0D01*
G74*
G01*
X48320Y-56820D02*
X48720Y-56820D01*
X48720Y-56820D02*
X48720Y-57420D01*
X48720Y-57420D02*
X48320Y-57420D01*
X47920Y-57420D02*
X47520Y-57420D01*
X47520Y-57420D02*
X47520Y-56820D01*
X47520Y-56820D02*
X47920Y-56820D01*
X47770Y-48670D02*
G75*
G03X47770Y-48670I-50J0D01*
G74*
G01*
X48170Y-48670D02*
X47770Y-48670D01*
X47770Y-48670D02*
X47770Y-48070D01*
X47770Y-48070D02*
X48170Y-48070D01*
X48570Y-48070D02*
X48970Y-48070D01*
X48970Y-48070D02*
X48970Y-48670D01*
X48970Y-48670D02*
X48570Y-48670D01*
X41370Y-46720D02*
G75*
G03X41370Y-46720I-50J0D01*
G74*
G01*
X41320Y-47170D02*
X41320Y-46770D01*
X41320Y-46770D02*
X41920Y-46770D01*
X41920Y-46770D02*
X41920Y-47170D01*
X41920Y-47570D02*
X41920Y-47970D01*
X41920Y-47970D02*
X41320Y-47970D01*
X41320Y-47970D02*
X41320Y-47570D01*
X71970Y-43770D02*
G75*
G03X71970Y-43770I-50J0D01*
G74*
G01*
X71920Y-43320D02*
X71920Y-43720D01*
X71920Y-43720D02*
X71320Y-43720D01*
X71320Y-43720D02*
X71320Y-43320D01*
X71320Y-42920D02*
X71320Y-42520D01*
X71320Y-42520D02*
X71920Y-42520D01*
X71920Y-42520D02*
X71920Y-42920D01*
X49770Y-56170D02*
G75*
G03X49770Y-56170I-50J0D01*
G74*
G01*
X50170Y-56170D02*
X49770Y-56170D01*
X49770Y-56170D02*
X49770Y-55570D01*
X49770Y-55570D02*
X50170Y-55570D01*
X50570Y-55570D02*
X50970Y-55570D01*
X50970Y-55570D02*
X50970Y-56170D01*
X50970Y-56170D02*
X50570Y-56170D01*
X57570Y-44170D02*
G75*
G03X57570Y-44170I-50J0D01*
G74*
G01*
X57970Y-44170D02*
X57570Y-44170D01*
X57570Y-44170D02*
X57570Y-43570D01*
X57570Y-43570D02*
X57970Y-43570D01*
X58370Y-43570D02*
X58770Y-43570D01*
X58770Y-43570D02*
X58770Y-44170D01*
X58770Y-44170D02*
X58370Y-44170D01*
X57670Y-48270D02*
G75*
G03X57670Y-48270I-50J0D01*
G74*
G01*
X57170Y-48270D02*
X57570Y-48270D01*
X57570Y-48270D02*
X57570Y-48870D01*
X57570Y-48870D02*
X57170Y-48870D01*
X56770Y-48870D02*
X56370Y-48870D01*
X56370Y-48870D02*
X56370Y-48270D01*
X56370Y-48270D02*
X56770Y-48270D01*
X56770Y-50970D02*
G75*
G03X56770Y-50970I-50J0D01*
G74*
G01*
X57170Y-50970D02*
X56770Y-50970D01*
X56770Y-50970D02*
X56770Y-50370D01*
X56770Y-50370D02*
X57170Y-50370D01*
X57570Y-50370D02*
X57970Y-50370D01*
X57970Y-50370D02*
X57970Y-50970D01*
X57970Y-50970D02*
X57570Y-50970D01*
X65870Y-46720D02*
G75*
G03X65870Y-46720I-50J0D01*
G74*
G01*
X65820Y-47170D02*
X65820Y-46770D01*
X65820Y-46770D02*
X66420Y-46770D01*
X66420Y-46770D02*
X66420Y-47170D01*
X66420Y-47570D02*
X66420Y-47970D01*
X66420Y-47970D02*
X65820Y-47970D01*
X65820Y-47970D02*
X65820Y-47570D01*
X66470Y-45520D02*
G75*
G03X66470Y-45520I-50J0D01*
G74*
G01*
X66420Y-45070D02*
X66420Y-45470D01*
X66420Y-45470D02*
X65820Y-45470D01*
X65820Y-45470D02*
X65820Y-45070D01*
X65820Y-44670D02*
X65820Y-44270D01*
X65820Y-44270D02*
X66420Y-44270D01*
X66420Y-44270D02*
X66420Y-44670D01*
X62720Y-51020D02*
G75*
G03X62720Y-51020I-50J0D01*
G74*
G01*
X62670Y-50570D02*
X62670Y-50970D01*
X62670Y-50970D02*
X62070Y-50970D01*
X62070Y-50970D02*
X62070Y-50570D01*
X62070Y-50170D02*
X62070Y-49770D01*
X62070Y-49770D02*
X62670Y-49770D01*
X62670Y-49770D02*
X62670Y-50170D01*
X63720Y-51020D02*
G75*
G03X63720Y-51020I-50J0D01*
G74*
G01*
X63670Y-50570D02*
X63670Y-50970D01*
X63670Y-50970D02*
X63070Y-50970D01*
X63070Y-50970D02*
X63070Y-50570D01*
X63070Y-50170D02*
X63070Y-49770D01*
X63070Y-49770D02*
X63670Y-49770D01*
X63670Y-49770D02*
X63670Y-50170D01*
X57170Y-56570D02*
G75*
G03X57170Y-56570I-50J0D01*
G74*
G01*
X57570Y-56570D02*
X57170Y-56570D01*
X57170Y-56570D02*
X57170Y-55970D01*
X57170Y-55970D02*
X57570Y-55970D01*
X57970Y-55970D02*
X58370Y-55970D01*
X58370Y-55970D02*
X58370Y-56570D01*
X58370Y-56570D02*
X57970Y-56570D01*
X49770Y-55170D02*
G75*
G03X49770Y-55170I-50J0D01*
G74*
G01*
X50170Y-55170D02*
X49770Y-55170D01*
X49770Y-55170D02*
X49770Y-54570D01*
X49770Y-54570D02*
X50170Y-54570D01*
X50570Y-54570D02*
X50970Y-54570D01*
X50970Y-54570D02*
X50970Y-55170D01*
X50970Y-55170D02*
X50570Y-55170D01*
X49770Y-54170D02*
G75*
G03X49770Y-54170I-50J0D01*
G74*
G01*
X50170Y-54170D02*
X49770Y-54170D01*
X49770Y-54170D02*
X49770Y-53570D01*
X49770Y-53570D02*
X50170Y-53570D01*
X50570Y-53570D02*
X50970Y-53570D01*
X50970Y-53570D02*
X50970Y-54170D01*
X50970Y-54170D02*
X50570Y-54170D01*
X57570Y-43370D02*
G75*
G03X57570Y-43370I-50J0D01*
G74*
G01*
X57970Y-43370D02*
X57570Y-43370D01*
X57570Y-43370D02*
X57570Y-42770D01*
X57570Y-42770D02*
X57970Y-42770D01*
X58370Y-42770D02*
X58770Y-42770D01*
X58770Y-42770D02*
X58770Y-43370D01*
X58770Y-43370D02*
X58370Y-43370D01*
X42270Y-45670D02*
G75*
G03X42270Y-45670I-50J0D01*
G74*
G01*
X42670Y-45670D02*
X42270Y-45670D01*
X42270Y-45670D02*
X42270Y-45070D01*
X42270Y-45070D02*
X42670Y-45070D01*
X43070Y-45070D02*
X43470Y-45070D01*
X43470Y-45070D02*
X43470Y-45670D01*
X43470Y-45670D02*
X43070Y-45670D01*
X42270Y-44670D02*
G75*
G03X42270Y-44670I-50J0D01*
G74*
G01*
X42670Y-44670D02*
X42270Y-44670D01*
X42270Y-44670D02*
X42270Y-44070D01*
X42270Y-44070D02*
X42670Y-44070D01*
X43070Y-44070D02*
X43470Y-44070D01*
X43470Y-44070D02*
X43470Y-44670D01*
X43470Y-44670D02*
X43070Y-44670D01*
X44020Y-45670D02*
G75*
G03X44020Y-45670I-50J0D01*
G74*
G01*
X44420Y-45670D02*
X44020Y-45670D01*
X44020Y-45670D02*
X44020Y-45070D01*
X44020Y-45070D02*
X44420Y-45070D01*
X44820Y-45070D02*
X45220Y-45070D01*
X45220Y-45070D02*
X45220Y-45670D01*
X45220Y-45670D02*
X44820Y-45670D01*
X62220Y-45920D02*
G75*
G03X62220Y-45920I-50J0D01*
G74*
G01*
X62170Y-46370D02*
X62170Y-45970D01*
X62170Y-45970D02*
X62770Y-45970D01*
X62770Y-45970D02*
X62770Y-46370D01*
X62770Y-46770D02*
X62770Y-47170D01*
X62770Y-47170D02*
X62170Y-47170D01*
X62170Y-47170D02*
X62170Y-46770D01*
G54D14*
X78431Y-42269D02*
X72407Y-42269D01*
X72407Y-42269D02*
X72407Y-47781D01*
X78431Y-42269D02*
X78431Y-44021D01*
X78431Y-44021D02*
X77761Y-44021D01*
X77761Y-44021D02*
X77761Y-47781D01*
X77761Y-47781D02*
X72407Y-47781D01*
X67702Y-55570D02*
G75*
G03X67702Y-55570I-282J0D01*
G74*
G01*
X66517Y-56503D02*
X66517Y-48236D01*
X66517Y-48236D02*
X78722Y-48236D01*
X78722Y-48236D02*
X78722Y-56503D01*
X78722Y-56503D02*
X66517Y-56503D01*
X41816Y-49488D02*
X41423Y-49488D01*
X41816Y-49173D02*
X41423Y-49173D01*
X41423Y-49173D02*
X41620Y-49488D01*
X41620Y-49488D02*
X41816Y-49173D01*
X41187Y-49133D02*
X41187Y-49606D01*
X42053Y-49133D02*
X42053Y-49606D01*
G54D17*
X63120Y-45120D02*
X63120Y-47620D01*
X65120Y-45120D02*
X65120Y-47620D01*
X64120Y-48620D02*
G75*
G03X65120Y-47620I0J1000D01*
G74*
G01*
X63120Y-47620D02*
G75*
G03X64120Y-48620I1000J0D01*
G74*
G01*
X65120Y-45120D02*
G75*
G03X64120Y-44120I-1000J0D01*
G74*
G01*
X64120Y-44120D02*
G75*
G03X63120Y-45120I0J-1000D01*
G74*
G01*
G54D12*
X40570Y-51620D02*
X40490Y-51620D01*
X39970Y-50870D02*
X41770Y-50870D01*
X41770Y-50870D02*
X41770Y-51120D01*
X41130Y-52370D02*
X41130Y-50870D01*
X41260Y-52370D02*
X41260Y-50870D01*
X39970Y-52120D02*
X39970Y-52370D01*
X39970Y-52370D02*
X41770Y-52370D01*
X41770Y-52370D02*
X41770Y-52120D01*
X39970Y-51120D02*
X39970Y-50870D01*
X40820Y-51620D02*
X40570Y-51433D01*
X40570Y-51433D02*
X40570Y-51620D01*
X40570Y-51620D02*
X40570Y-51807D01*
X40570Y-51807D02*
X40820Y-51620D01*
X40820Y-51620D02*
X40820Y-51495D01*
X40820Y-51495D02*
X40758Y-51433D01*
X40820Y-51620D02*
X40820Y-51745D01*
X40820Y-51745D02*
X40882Y-51807D01*
X40820Y-51620D02*
X41257Y-51620D01*
G54D14*
X48370Y-47377D02*
X48917Y-46830D01*
X46830Y-46830D02*
X47377Y-47377D01*
X47377Y-47377D02*
X48370Y-47377D01*
X48917Y-45330D02*
X48917Y-46830D01*
X46830Y-45330D02*
X46830Y-46830D01*
X46830Y-45330D02*
X48917Y-45330D01*
X60431Y-47984D02*
G75*
G03X60431Y-47984I-196J0D01*
G74*
G01*
X57872Y-48377D02*
X57872Y-45622D01*
X57872Y-45622D02*
X60627Y-45622D01*
X60627Y-45622D02*
X60627Y-48377D01*
X60627Y-48377D02*
X57872Y-48377D01*
G54D12*
X40820Y-47620D02*
X39920Y-47620D01*
X39920Y-47620D02*
X39920Y-48270D01*
X40820Y-48970D02*
X40820Y-49620D01*
X40820Y-49620D02*
X39920Y-49620D01*
X39920Y-49620D02*
X39920Y-48970D01*
X40820Y-48270D02*
X40820Y-47620D01*
G54D15*
X43520Y-46220D02*
X42320Y-46220D01*
X42320Y-46220D02*
X42320Y-49020D01*
X42320Y-49020D02*
X43520Y-49020D01*
X44720Y-46220D02*
X45020Y-46220D01*
X45020Y-46220D02*
X45920Y-46820D01*
X45920Y-46820D02*
X45920Y-48420D01*
X45920Y-48420D02*
X45020Y-49020D01*
X45020Y-49020D02*
X44720Y-49020D01*
G54D14*
X44427Y-39888D02*
G75*
G03X47391Y-39816I1442J1653D01*
G74*
G01*
X44442Y-39899D02*
G75*
G03X43268Y-40292I-495J-470D01*
G74*
G01*
X47297Y-39899D02*
G75*
G02X48472Y-40292I495J-470D01*
G74*
G01*
X48470Y-43580D02*
X48470Y-40120D01*
X43270Y-43580D02*
X43270Y-40120D01*
X47275Y-44775D02*
X48470Y-43580D01*
X44465Y-44775D02*
X43270Y-43580D01*
X44465Y-44775D02*
X47275Y-44775D01*
X49595Y-42745D02*
X48465Y-42745D01*
X49595Y-41495D02*
X49595Y-42745D01*
X49595Y-41495D02*
X48465Y-41495D01*
X42145Y-42745D02*
X43275Y-42745D01*
X42145Y-41495D02*
X42145Y-42745D01*
X42145Y-41495D02*
X43275Y-41495D01*
G54D18*
X51870Y-55620D02*
X51620Y-55870D01*
X54870Y-55620D02*
X55120Y-55870D01*
X51870Y-43120D02*
X51620Y-42870D01*
X55120Y-42870D02*
X54870Y-43120D01*
X54870Y-43120D02*
X51870Y-43120D01*
X51870Y-43120D02*
X51870Y-48620D01*
X51870Y-48620D02*
X51620Y-48620D01*
X54870Y-43120D02*
X54870Y-55620D01*
X54870Y-55620D02*
X51870Y-55620D01*
X51870Y-55620D02*
X51870Y-50120D01*
X51870Y-50120D02*
X51620Y-50120D01*
X55120Y-55870D02*
X55120Y-42870D01*
X51620Y-42870D02*
X51620Y-55870D01*
X55120Y-42870D02*
X51620Y-42870D01*
X55120Y-55870D02*
X51620Y-55870D01*
X52595Y-43918D02*
X52174Y-44193D01*
X52174Y-44193D02*
X52595Y-44469D01*
X52595Y-44469D02*
X52595Y-43918D01*
G54D14*
X58059Y-52870D02*
G75*
G03X58059Y-52870I-688J0D01*
G74*
G01*
X58551Y-51688D02*
X58551Y-54051D01*
X58551Y-54051D02*
X56188Y-54051D01*
X56188Y-54051D02*
X56188Y-51688D01*
X56188Y-51688D02*
X58551Y-51688D01*
G54D10*
X50370Y-50370D02*
X51370Y-50370D01*
X51370Y-50370D02*
X51370Y-52370D01*
X51370Y-52370D02*
X50370Y-52370D01*
X50370Y-52370D02*
X50370Y-50370D01*
X64120Y-53620D02*
X64120Y-52620D01*
X64120Y-52620D02*
X66120Y-52620D01*
X66120Y-52620D02*
X66120Y-53620D01*
X66120Y-53620D02*
X64120Y-53620D01*
X64120Y-54620D02*
X64120Y-53620D01*
X64120Y-53620D02*
X66120Y-53620D01*
X66120Y-53620D02*
X66120Y-54620D01*
X66120Y-54620D02*
X64120Y-54620D01*
X64120Y-50620D02*
X64120Y-49620D01*
X64120Y-49620D02*
X66120Y-49620D01*
X66120Y-49620D02*
X66120Y-50620D01*
X66120Y-50620D02*
X64120Y-50620D01*
X64120Y-52620D02*
X64120Y-51620D01*
X64120Y-51620D02*
X66120Y-51620D01*
X66120Y-51620D02*
X66120Y-52620D01*
X66120Y-52620D02*
X64120Y-52620D01*
X64120Y-51620D02*
X64120Y-50620D01*
X64120Y-50620D02*
X66120Y-50620D01*
X66120Y-50620D02*
X66120Y-51620D01*
X66120Y-51620D02*
X64120Y-51620D01*
G54D15*
X62120Y-52320D02*
X63620Y-52320D01*
X63620Y-52320D02*
X63620Y-55570D01*
X63620Y-55570D02*
X62120Y-55570D01*
X62120Y-55570D02*
X62120Y-52320D01*
X62370Y-51570D02*
X62370Y-52320D01*
X63370Y-51570D02*
X63370Y-52320D01*
G54D10*
X50270Y-46370D02*
X49270Y-46370D01*
X49270Y-46370D02*
X49270Y-43370D01*
X49270Y-43370D02*
X50270Y-43370D01*
X50270Y-43370D02*
X50270Y-46370D01*
X49270Y-45370D02*
X50270Y-45370D01*
X55870Y-55770D02*
X55870Y-54770D01*
X55870Y-54770D02*
X58870Y-54770D01*
X58870Y-54770D02*
X58870Y-55770D01*
X58870Y-55770D02*
X55870Y-55770D01*
X56870Y-54770D02*
X56870Y-55770D01*
X68970Y-47570D02*
X68970Y-46570D01*
X68970Y-46570D02*
X71970Y-46570D01*
X71970Y-46570D02*
X71970Y-47570D01*
X71970Y-47570D02*
X68970Y-47570D01*
X69970Y-46570D02*
X69970Y-47570D01*
G54D12*
X40540Y-56088D02*
X40540Y-54316D01*
X40540Y-54316D02*
X40540Y-52546D01*
X44870Y-52546D02*
X40540Y-52546D01*
X40540Y-56088D02*
X39556Y-56088D01*
X39556Y-56088D02*
X39556Y-52546D01*
X39556Y-52546D02*
X40540Y-52546D01*
X44870Y-56088D02*
X44870Y-54316D01*
X44870Y-54316D02*
X44870Y-52546D01*
X44968Y-54316D02*
X44870Y-54316D01*
X44870Y-54316D02*
X40540Y-54316D01*
X40540Y-56088D02*
X44870Y-56088D01*
G54D19*
X41770Y-40870D02*
G75*
G03X41770Y-40870I-900J0D01*
G74*
G01*
X78270Y-57620D02*
G75*
G03X78270Y-57620I-900J0D01*
G74*
G01*
X78270Y-40870D02*
G75*
G03X78270Y-40870I-900J0D01*
G74*
G01*
X41770Y-57620D02*
G75*
G03X41770Y-57620I-900J0D01*
G74*
G01*
G54D14*
X59179Y-57729D02*
X59179Y-57335D01*
X59329Y-57335D01*
X59366Y-57354D01*
X59385Y-57373D01*
X59404Y-57410D01*
X59404Y-57466D01*
X59385Y-57504D01*
X59366Y-57523D01*
X59329Y-57541D01*
X59179Y-57541D01*
X59554Y-57373D02*
X59573Y-57354D01*
X59610Y-57335D01*
X59704Y-57335D01*
X59741Y-57354D01*
X59760Y-57373D01*
X59779Y-57410D01*
X59779Y-57448D01*
X59760Y-57504D01*
X59535Y-57729D01*
X59779Y-57729D01*
X59979Y-41329D02*
X59979Y-40935D01*
X60129Y-40935D01*
X60166Y-40954D01*
X60185Y-40973D01*
X60204Y-41010D01*
X60204Y-41066D01*
X60185Y-41104D01*
X60166Y-41123D01*
X60129Y-41141D01*
X59979Y-41141D01*
X60335Y-40935D02*
X60579Y-40935D01*
X60448Y-41085D01*
X60504Y-41085D01*
X60541Y-41104D01*
X60560Y-41123D01*
X60579Y-41160D01*
X60579Y-41254D01*
X60560Y-41291D01*
X60541Y-41310D01*
X60504Y-41329D01*
X60391Y-41329D01*
X60354Y-41310D01*
X60335Y-41291D01*
G54D20*
X40012Y-47070D02*
X40441Y-47070D01*
X40527Y-47098D01*
X40584Y-47155D01*
X40612Y-47241D01*
X40612Y-47298D01*
X40612Y-46470D02*
X40612Y-46812D01*
X40612Y-46641D02*
X40012Y-46641D01*
X40098Y-46698D01*
X40155Y-46755D01*
X40184Y-46812D01*
G54D15*
X47565Y-50931D02*
X47565Y-51255D01*
X47584Y-51293D01*
X47603Y-51312D01*
X47641Y-51331D01*
X47717Y-51331D01*
X47755Y-51312D01*
X47774Y-51293D01*
X47793Y-51255D01*
X47793Y-50931D01*
X48174Y-50931D02*
X47984Y-50931D01*
X47965Y-51122D01*
X47984Y-51103D01*
X48022Y-51084D01*
X48117Y-51084D01*
X48155Y-51103D01*
X48174Y-51122D01*
X48193Y-51160D01*
X48193Y-51255D01*
X48174Y-51293D01*
X48155Y-51312D01*
X48117Y-51331D01*
X48022Y-51331D01*
X47984Y-51312D01*
X47965Y-51293D01*
X44181Y-50924D02*
X44505Y-50924D01*
X44543Y-50905D01*
X44562Y-50886D01*
X44581Y-50848D01*
X44581Y-50772D01*
X44562Y-50734D01*
X44543Y-50715D01*
X44505Y-50696D01*
X44181Y-50696D01*
X44315Y-50334D02*
X44581Y-50334D01*
X44162Y-50429D02*
X44448Y-50524D01*
X44448Y-50277D01*
G54D12*
X48065Y-53852D02*
X48065Y-54216D01*
X48084Y-54259D01*
X48103Y-54280D01*
X48141Y-54302D01*
X48217Y-54302D01*
X48255Y-54280D01*
X48274Y-54259D01*
X48293Y-54216D01*
X48293Y-53852D01*
X48446Y-53852D02*
X48693Y-53852D01*
X48560Y-54023D01*
X48617Y-54023D01*
X48655Y-54045D01*
X48674Y-54066D01*
X48693Y-54109D01*
X48693Y-54216D01*
X48674Y-54259D01*
X48655Y-54280D01*
X48617Y-54302D01*
X48503Y-54302D01*
X48465Y-54280D01*
X48446Y-54259D01*
G54D21*
X59337Y-42749D02*
X59271Y-42656D01*
X59224Y-42749D02*
X59224Y-42552D01*
X59299Y-42552D01*
X59318Y-42562D01*
X59327Y-42571D01*
X59337Y-42590D01*
X59337Y-42618D01*
X59327Y-42637D01*
X59318Y-42646D01*
X59299Y-42656D01*
X59224Y-42656D01*
X59449Y-42637D02*
X59431Y-42627D01*
X59421Y-42618D01*
X59412Y-42599D01*
X59412Y-42590D01*
X59421Y-42571D01*
X59431Y-42562D01*
X59449Y-42552D01*
X59487Y-42552D01*
X59506Y-42562D01*
X59515Y-42571D01*
X59524Y-42590D01*
X59524Y-42599D01*
X59515Y-42618D01*
X59506Y-42627D01*
X59487Y-42637D01*
X59449Y-42637D01*
X59431Y-42646D01*
X59421Y-42656D01*
X59412Y-42674D01*
X59412Y-42712D01*
X59421Y-42731D01*
X59431Y-42740D01*
X59449Y-42749D01*
X59487Y-42749D01*
X59506Y-42740D01*
X59515Y-42731D01*
X59524Y-42712D01*
X59524Y-42674D01*
X59515Y-42656D01*
X59506Y-42646D01*
X59487Y-42637D01*
X70743Y-56949D02*
X70677Y-56856D01*
X70630Y-56949D02*
X70630Y-56752D01*
X70705Y-56752D01*
X70724Y-56762D01*
X70734Y-56771D01*
X70743Y-56790D01*
X70743Y-56818D01*
X70734Y-56837D01*
X70724Y-56846D01*
X70705Y-56856D01*
X70630Y-56856D01*
X70931Y-56949D02*
X70818Y-56949D01*
X70874Y-56949D02*
X70874Y-56752D01*
X70856Y-56780D01*
X70837Y-56799D01*
X70818Y-56809D01*
X71006Y-56771D02*
X71015Y-56762D01*
X71034Y-56752D01*
X71081Y-56752D01*
X71099Y-56762D01*
X71109Y-56771D01*
X71118Y-56790D01*
X71118Y-56809D01*
X71109Y-56837D01*
X70996Y-56949D01*
X71118Y-56949D01*
X67349Y-47196D02*
X67256Y-47262D01*
X67349Y-47309D02*
X67152Y-47309D01*
X67152Y-47234D01*
X67162Y-47215D01*
X67171Y-47206D01*
X67190Y-47196D01*
X67218Y-47196D01*
X67237Y-47206D01*
X67246Y-47215D01*
X67256Y-47234D01*
X67256Y-47309D01*
X67349Y-47009D02*
X67349Y-47121D01*
X67349Y-47065D02*
X67152Y-47065D01*
X67180Y-47084D01*
X67199Y-47102D01*
X67209Y-47121D01*
X67152Y-46887D02*
X67152Y-46868D01*
X67162Y-46849D01*
X67171Y-46840D01*
X67190Y-46830D01*
X67227Y-46821D01*
X67274Y-46821D01*
X67312Y-46830D01*
X67331Y-46840D01*
X67340Y-46849D01*
X67349Y-46868D01*
X67349Y-46887D01*
X67340Y-46905D01*
X67331Y-46915D01*
X67312Y-46924D01*
X67274Y-46934D01*
X67227Y-46934D01*
X67190Y-46924D01*
X67171Y-46915D01*
X67162Y-46905D01*
X67152Y-46887D01*
X70549Y-45902D02*
X70456Y-45968D01*
X70549Y-46015D02*
X70352Y-46015D01*
X70352Y-45940D01*
X70362Y-45921D01*
X70371Y-45912D01*
X70390Y-45902D01*
X70418Y-45902D01*
X70437Y-45912D01*
X70446Y-45921D01*
X70456Y-45940D01*
X70456Y-46015D01*
X70549Y-45809D02*
X70549Y-45771D01*
X70540Y-45752D01*
X70531Y-45743D01*
X70502Y-45724D01*
X70465Y-45715D01*
X70390Y-45715D01*
X70371Y-45724D01*
X70362Y-45734D01*
X70352Y-45752D01*
X70352Y-45790D01*
X70362Y-45809D01*
X70371Y-45818D01*
X70390Y-45827D01*
X70437Y-45827D01*
X70456Y-45818D01*
X70465Y-45809D01*
X70474Y-45790D01*
X70474Y-45752D01*
X70465Y-45734D01*
X70456Y-45724D01*
X70437Y-45715D01*
X60643Y-50031D02*
X60634Y-50040D01*
X60605Y-50049D01*
X60587Y-50049D01*
X60559Y-50040D01*
X60540Y-50021D01*
X60530Y-50002D01*
X60521Y-49965D01*
X60521Y-49937D01*
X60530Y-49899D01*
X60540Y-49880D01*
X60559Y-49862D01*
X60587Y-49852D01*
X60605Y-49852D01*
X60634Y-49862D01*
X60643Y-49871D01*
X60831Y-50049D02*
X60718Y-50049D01*
X60774Y-50049D02*
X60774Y-49852D01*
X60756Y-49880D01*
X60737Y-49899D01*
X60718Y-49909D01*
X60953Y-49852D02*
X60971Y-49852D01*
X60990Y-49862D01*
X60999Y-49871D01*
X61009Y-49890D01*
X61018Y-49927D01*
X61018Y-49974D01*
X61009Y-50012D01*
X60999Y-50031D01*
X60990Y-50040D01*
X60971Y-50049D01*
X60953Y-50049D01*
X60934Y-50040D01*
X60924Y-50031D01*
X60915Y-50012D01*
X60906Y-49974D01*
X60906Y-49927D01*
X60915Y-49890D01*
X60924Y-49871D01*
X60934Y-49862D01*
X60953Y-49852D01*
X72943Y-56949D02*
X72877Y-56856D01*
X72830Y-56949D02*
X72830Y-56752D01*
X72905Y-56752D01*
X72924Y-56762D01*
X72934Y-56771D01*
X72943Y-56790D01*
X72943Y-56818D01*
X72934Y-56837D01*
X72924Y-56846D01*
X72905Y-56856D01*
X72830Y-56856D01*
X73131Y-56949D02*
X73018Y-56949D01*
X73074Y-56949D02*
X73074Y-56752D01*
X73056Y-56780D01*
X73037Y-56799D01*
X73018Y-56809D01*
X73196Y-56752D02*
X73318Y-56752D01*
X73253Y-56827D01*
X73281Y-56827D01*
X73299Y-56837D01*
X73309Y-56846D01*
X73318Y-56865D01*
X73318Y-56912D01*
X73309Y-56931D01*
X73299Y-56940D01*
X73281Y-56949D01*
X73224Y-56949D01*
X73206Y-56940D01*
X73196Y-56931D01*
X70549Y-45196D02*
X70456Y-45262D01*
X70549Y-45309D02*
X70352Y-45309D01*
X70352Y-45234D01*
X70362Y-45215D01*
X70371Y-45206D01*
X70390Y-45196D01*
X70418Y-45196D01*
X70437Y-45206D01*
X70446Y-45215D01*
X70456Y-45234D01*
X70456Y-45309D01*
X70549Y-45009D02*
X70549Y-45121D01*
X70549Y-45065D02*
X70352Y-45065D01*
X70380Y-45084D01*
X70399Y-45102D01*
X70409Y-45121D01*
X70549Y-44821D02*
X70549Y-44934D01*
X70549Y-44877D02*
X70352Y-44877D01*
X70380Y-44896D01*
X70399Y-44915D01*
X70409Y-44934D01*
X74631Y-57496D02*
X74640Y-57506D01*
X74649Y-57534D01*
X74649Y-57553D01*
X74640Y-57581D01*
X74621Y-57599D01*
X74602Y-57609D01*
X74565Y-57618D01*
X74537Y-57618D01*
X74499Y-57609D01*
X74480Y-57599D01*
X74462Y-57581D01*
X74452Y-57553D01*
X74452Y-57534D01*
X74462Y-57506D01*
X74471Y-57496D01*
X74649Y-57309D02*
X74649Y-57421D01*
X74649Y-57365D02*
X74452Y-57365D01*
X74480Y-57384D01*
X74499Y-57402D01*
X74509Y-57421D01*
X74649Y-57121D02*
X74649Y-57234D01*
X74649Y-57177D02*
X74452Y-57177D01*
X74480Y-57196D01*
X74499Y-57215D01*
X74509Y-57234D01*
X67331Y-46396D02*
X67340Y-46406D01*
X67349Y-46434D01*
X67349Y-46453D01*
X67340Y-46481D01*
X67321Y-46499D01*
X67302Y-46509D01*
X67265Y-46518D01*
X67237Y-46518D01*
X67199Y-46509D01*
X67180Y-46499D01*
X67162Y-46481D01*
X67152Y-46453D01*
X67152Y-46434D01*
X67162Y-46406D01*
X67171Y-46396D01*
X67349Y-46209D02*
X67349Y-46321D01*
X67349Y-46265D02*
X67152Y-46265D01*
X67180Y-46284D01*
X67199Y-46302D01*
X67209Y-46321D01*
X67171Y-46134D02*
X67162Y-46124D01*
X67152Y-46105D01*
X67152Y-46059D01*
X67162Y-46040D01*
X67171Y-46030D01*
X67190Y-46021D01*
X67209Y-46021D01*
X67237Y-46030D01*
X67349Y-46143D01*
X67349Y-46021D01*
X74631Y-58496D02*
X74640Y-58506D01*
X74649Y-58534D01*
X74649Y-58553D01*
X74640Y-58581D01*
X74621Y-58599D01*
X74602Y-58609D01*
X74565Y-58618D01*
X74537Y-58618D01*
X74499Y-58609D01*
X74480Y-58599D01*
X74462Y-58581D01*
X74452Y-58553D01*
X74452Y-58534D01*
X74462Y-58506D01*
X74471Y-58496D01*
X74649Y-58309D02*
X74649Y-58421D01*
X74649Y-58365D02*
X74452Y-58365D01*
X74480Y-58384D01*
X74499Y-58402D01*
X74509Y-58421D01*
X74452Y-58243D02*
X74452Y-58121D01*
X74527Y-58187D01*
X74527Y-58159D01*
X74537Y-58140D01*
X74546Y-58130D01*
X74565Y-58121D01*
X74612Y-58121D01*
X74631Y-58130D01*
X74640Y-58140D01*
X74649Y-58159D01*
X74649Y-58215D01*
X74640Y-58234D01*
X74631Y-58243D01*
X45631Y-46096D02*
X45640Y-46106D01*
X45649Y-46134D01*
X45649Y-46153D01*
X45640Y-46181D01*
X45621Y-46199D01*
X45602Y-46209D01*
X45565Y-46218D01*
X45537Y-46218D01*
X45499Y-46209D01*
X45480Y-46199D01*
X45462Y-46181D01*
X45452Y-46153D01*
X45452Y-46134D01*
X45462Y-46106D01*
X45471Y-46096D01*
X45649Y-45909D02*
X45649Y-46021D01*
X45649Y-45965D02*
X45452Y-45965D01*
X45480Y-45984D01*
X45499Y-46002D01*
X45509Y-46021D01*
X45452Y-45730D02*
X45452Y-45824D01*
X45546Y-45834D01*
X45537Y-45824D01*
X45527Y-45805D01*
X45527Y-45759D01*
X45537Y-45740D01*
X45546Y-45730D01*
X45565Y-45721D01*
X45612Y-45721D01*
X45631Y-45730D01*
X45640Y-45740D01*
X45649Y-45759D01*
X45649Y-45805D01*
X45640Y-45824D01*
X45631Y-45834D01*
X46149Y-54196D02*
X46056Y-54262D01*
X46149Y-54309D02*
X45952Y-54309D01*
X45952Y-54234D01*
X45962Y-54215D01*
X45971Y-54206D01*
X45990Y-54196D01*
X46018Y-54196D01*
X46037Y-54206D01*
X46046Y-54215D01*
X46056Y-54234D01*
X46056Y-54309D01*
X46149Y-54009D02*
X46149Y-54121D01*
X46149Y-54065D02*
X45952Y-54065D01*
X45980Y-54084D01*
X45999Y-54102D01*
X46009Y-54121D01*
X45952Y-53840D02*
X45952Y-53877D01*
X45962Y-53896D01*
X45971Y-53905D01*
X45999Y-53924D01*
X46037Y-53934D01*
X46112Y-53934D01*
X46131Y-53924D01*
X46140Y-53915D01*
X46149Y-53896D01*
X46149Y-53859D01*
X46140Y-53840D01*
X46131Y-53830D01*
X46112Y-53821D01*
X46065Y-53821D01*
X46046Y-53830D01*
X46037Y-53840D01*
X46027Y-53859D01*
X46027Y-53896D01*
X46037Y-53915D01*
X46046Y-53924D01*
X46065Y-53934D01*
X46149Y-55996D02*
X46056Y-56062D01*
X46149Y-56109D02*
X45952Y-56109D01*
X45952Y-56034D01*
X45962Y-56015D01*
X45971Y-56006D01*
X45990Y-55996D01*
X46018Y-55996D01*
X46037Y-56006D01*
X46046Y-56015D01*
X46056Y-56034D01*
X46056Y-56109D01*
X46149Y-55809D02*
X46149Y-55921D01*
X46149Y-55865D02*
X45952Y-55865D01*
X45980Y-55884D01*
X45999Y-55902D01*
X46009Y-55921D01*
X45952Y-55743D02*
X45952Y-55612D01*
X46149Y-55696D01*
X46443Y-57749D02*
X46377Y-57656D01*
X46330Y-57749D02*
X46330Y-57552D01*
X46405Y-57552D01*
X46424Y-57562D01*
X46434Y-57571D01*
X46443Y-57590D01*
X46443Y-57618D01*
X46434Y-57637D01*
X46424Y-57646D01*
X46405Y-57656D01*
X46330Y-57656D01*
X46631Y-57749D02*
X46518Y-57749D01*
X46574Y-57749D02*
X46574Y-57552D01*
X46556Y-57580D01*
X46537Y-57599D01*
X46518Y-57609D01*
X46799Y-57618D02*
X46799Y-57749D01*
X46753Y-57543D02*
X46706Y-57684D01*
X46828Y-57684D01*
X48043Y-57749D02*
X47977Y-57656D01*
X47930Y-57749D02*
X47930Y-57552D01*
X48005Y-57552D01*
X48024Y-57562D01*
X48034Y-57571D01*
X48043Y-57590D01*
X48043Y-57618D01*
X48034Y-57637D01*
X48024Y-57646D01*
X48005Y-57656D01*
X47930Y-57656D01*
X48231Y-57749D02*
X48118Y-57749D01*
X48174Y-57749D02*
X48174Y-57552D01*
X48156Y-57580D01*
X48137Y-57599D01*
X48118Y-57609D01*
X48409Y-57552D02*
X48315Y-57552D01*
X48306Y-57646D01*
X48315Y-57637D01*
X48334Y-57627D01*
X48381Y-57627D01*
X48399Y-57637D01*
X48409Y-57646D01*
X48418Y-57665D01*
X48418Y-57712D01*
X48409Y-57731D01*
X48399Y-57740D01*
X48381Y-57749D01*
X48334Y-57749D01*
X48315Y-57740D01*
X48306Y-57731D01*
X48543Y-47931D02*
X48534Y-47940D01*
X48505Y-47949D01*
X48487Y-47949D01*
X48459Y-47940D01*
X48440Y-47921D01*
X48430Y-47902D01*
X48421Y-47865D01*
X48421Y-47837D01*
X48430Y-47799D01*
X48440Y-47780D01*
X48459Y-47762D01*
X48487Y-47752D01*
X48505Y-47752D01*
X48534Y-47762D01*
X48543Y-47771D01*
X48731Y-47949D02*
X48618Y-47949D01*
X48674Y-47949D02*
X48674Y-47752D01*
X48656Y-47780D01*
X48637Y-47799D01*
X48618Y-47809D01*
X48899Y-47752D02*
X48862Y-47752D01*
X48843Y-47762D01*
X48834Y-47771D01*
X48815Y-47799D01*
X48806Y-47837D01*
X48806Y-47912D01*
X48815Y-47931D01*
X48824Y-47940D01*
X48843Y-47949D01*
X48881Y-47949D01*
X48899Y-47940D01*
X48909Y-47931D01*
X48918Y-47912D01*
X48918Y-47865D01*
X48909Y-47846D01*
X48899Y-47837D01*
X48881Y-47827D01*
X48843Y-47827D01*
X48824Y-47837D01*
X48815Y-47846D01*
X48806Y-47865D01*
X41149Y-47196D02*
X41056Y-47262D01*
X41149Y-47309D02*
X40952Y-47309D01*
X40952Y-47234D01*
X40962Y-47215D01*
X40971Y-47206D01*
X40990Y-47196D01*
X41018Y-47196D01*
X41037Y-47206D01*
X41046Y-47215D01*
X41056Y-47234D01*
X41056Y-47309D01*
X41149Y-47009D02*
X41149Y-47121D01*
X41149Y-47065D02*
X40952Y-47065D01*
X40980Y-47084D01*
X40999Y-47102D01*
X41009Y-47121D01*
X41037Y-46896D02*
X41027Y-46915D01*
X41018Y-46924D01*
X40999Y-46934D01*
X40990Y-46934D01*
X40971Y-46924D01*
X40962Y-46915D01*
X40952Y-46896D01*
X40952Y-46859D01*
X40962Y-46840D01*
X40971Y-46830D01*
X40990Y-46821D01*
X40999Y-46821D01*
X41018Y-46830D01*
X41027Y-46840D01*
X41037Y-46859D01*
X41037Y-46896D01*
X41046Y-46915D01*
X41056Y-46924D01*
X41074Y-46934D01*
X41112Y-46934D01*
X41131Y-46924D01*
X41140Y-46915D01*
X41149Y-46896D01*
X41149Y-46859D01*
X41140Y-46840D01*
X41131Y-46830D01*
X41112Y-46821D01*
X41074Y-46821D01*
X41056Y-46830D01*
X41046Y-46840D01*
X41037Y-46859D01*
X71131Y-43396D02*
X71140Y-43406D01*
X71149Y-43434D01*
X71149Y-43453D01*
X71140Y-43481D01*
X71121Y-43499D01*
X71102Y-43509D01*
X71065Y-43518D01*
X71037Y-43518D01*
X70999Y-43509D01*
X70980Y-43499D01*
X70962Y-43481D01*
X70952Y-43453D01*
X70952Y-43434D01*
X70962Y-43406D01*
X70971Y-43396D01*
X71149Y-43209D02*
X71149Y-43321D01*
X71149Y-43265D02*
X70952Y-43265D01*
X70980Y-43284D01*
X70999Y-43302D01*
X71009Y-43321D01*
X70952Y-43143D02*
X70952Y-43012D01*
X71149Y-43096D01*
X51249Y-55902D02*
X51156Y-55968D01*
X51249Y-56015D02*
X51052Y-56015D01*
X51052Y-55940D01*
X51062Y-55921D01*
X51071Y-55912D01*
X51090Y-55902D01*
X51118Y-55902D01*
X51137Y-55912D01*
X51146Y-55921D01*
X51156Y-55940D01*
X51156Y-56015D01*
X51052Y-55837D02*
X51052Y-55715D01*
X51127Y-55780D01*
X51127Y-55752D01*
X51137Y-55734D01*
X51146Y-55724D01*
X51165Y-55715D01*
X51212Y-55715D01*
X51231Y-55724D01*
X51240Y-55734D01*
X51249Y-55752D01*
X51249Y-55809D01*
X51240Y-55827D01*
X51231Y-55837D01*
X57431Y-43902D02*
X57440Y-43912D01*
X57449Y-43940D01*
X57449Y-43959D01*
X57440Y-43987D01*
X57421Y-44006D01*
X57402Y-44015D01*
X57365Y-44024D01*
X57337Y-44024D01*
X57299Y-44015D01*
X57280Y-44006D01*
X57262Y-43987D01*
X57252Y-43959D01*
X57252Y-43940D01*
X57262Y-43912D01*
X57271Y-43902D01*
X57271Y-43827D02*
X57262Y-43818D01*
X57252Y-43799D01*
X57252Y-43752D01*
X57262Y-43734D01*
X57271Y-43724D01*
X57290Y-43715D01*
X57309Y-43715D01*
X57337Y-43724D01*
X57449Y-43837D01*
X57449Y-43715D01*
X56937Y-49131D02*
X56927Y-49140D01*
X56899Y-49149D01*
X56880Y-49149D01*
X56852Y-49140D01*
X56834Y-49121D01*
X56824Y-49102D01*
X56815Y-49065D01*
X56815Y-49037D01*
X56824Y-48999D01*
X56834Y-48980D01*
X56852Y-48962D01*
X56880Y-48952D01*
X56899Y-48952D01*
X56927Y-48962D01*
X56937Y-48971D01*
X57115Y-48952D02*
X57021Y-48952D01*
X57012Y-49046D01*
X57021Y-49037D01*
X57040Y-49027D01*
X57087Y-49027D01*
X57106Y-49037D01*
X57115Y-49046D01*
X57124Y-49065D01*
X57124Y-49112D01*
X57115Y-49131D01*
X57106Y-49140D01*
X57087Y-49149D01*
X57040Y-49149D01*
X57021Y-49140D01*
X57012Y-49131D01*
X57337Y-50231D02*
X57327Y-50240D01*
X57299Y-50249D01*
X57280Y-50249D01*
X57252Y-50240D01*
X57234Y-50221D01*
X57224Y-50202D01*
X57215Y-50165D01*
X57215Y-50137D01*
X57224Y-50099D01*
X57234Y-50080D01*
X57252Y-50062D01*
X57280Y-50052D01*
X57299Y-50052D01*
X57327Y-50062D01*
X57337Y-50071D01*
X57402Y-50052D02*
X57534Y-50052D01*
X57449Y-50249D01*
X65731Y-47402D02*
X65740Y-47412D01*
X65749Y-47440D01*
X65749Y-47459D01*
X65740Y-47487D01*
X65721Y-47506D01*
X65702Y-47515D01*
X65665Y-47524D01*
X65637Y-47524D01*
X65599Y-47515D01*
X65580Y-47506D01*
X65562Y-47487D01*
X65552Y-47459D01*
X65552Y-47440D01*
X65562Y-47412D01*
X65571Y-47402D01*
X65618Y-47234D02*
X65749Y-47234D01*
X65543Y-47280D02*
X65684Y-47327D01*
X65684Y-47205D01*
X65731Y-44902D02*
X65740Y-44912D01*
X65749Y-44940D01*
X65749Y-44959D01*
X65740Y-44987D01*
X65721Y-45006D01*
X65702Y-45015D01*
X65665Y-45024D01*
X65637Y-45024D01*
X65599Y-45015D01*
X65580Y-45006D01*
X65562Y-44987D01*
X65552Y-44959D01*
X65552Y-44940D01*
X65562Y-44912D01*
X65571Y-44902D01*
X65749Y-44809D02*
X65749Y-44771D01*
X65740Y-44752D01*
X65731Y-44743D01*
X65702Y-44724D01*
X65665Y-44715D01*
X65590Y-44715D01*
X65571Y-44724D01*
X65562Y-44734D01*
X65552Y-44752D01*
X65552Y-44790D01*
X65562Y-44809D01*
X65571Y-44818D01*
X65590Y-44827D01*
X65637Y-44827D01*
X65656Y-44818D01*
X65665Y-44809D01*
X65674Y-44790D01*
X65674Y-44752D01*
X65665Y-44734D01*
X65656Y-44724D01*
X65637Y-44715D01*
X61937Y-49631D02*
X61927Y-49640D01*
X61899Y-49649D01*
X61880Y-49649D01*
X61852Y-49640D01*
X61834Y-49621D01*
X61824Y-49602D01*
X61815Y-49565D01*
X61815Y-49537D01*
X61824Y-49499D01*
X61834Y-49480D01*
X61852Y-49462D01*
X61880Y-49452D01*
X61899Y-49452D01*
X61927Y-49462D01*
X61937Y-49471D01*
X62002Y-49452D02*
X62124Y-49452D01*
X62059Y-49527D01*
X62087Y-49527D01*
X62106Y-49537D01*
X62115Y-49546D01*
X62124Y-49565D01*
X62124Y-49612D01*
X62115Y-49631D01*
X62106Y-49640D01*
X62087Y-49649D01*
X62031Y-49649D01*
X62012Y-49640D01*
X62002Y-49631D01*
X63337Y-49631D02*
X63327Y-49640D01*
X63299Y-49649D01*
X63280Y-49649D01*
X63252Y-49640D01*
X63234Y-49621D01*
X63224Y-49602D01*
X63215Y-49565D01*
X63215Y-49537D01*
X63224Y-49499D01*
X63234Y-49480D01*
X63252Y-49462D01*
X63280Y-49452D01*
X63299Y-49452D01*
X63327Y-49462D01*
X63337Y-49471D01*
X63449Y-49537D02*
X63431Y-49527D01*
X63421Y-49518D01*
X63412Y-49499D01*
X63412Y-49490D01*
X63421Y-49471D01*
X63431Y-49462D01*
X63449Y-49452D01*
X63487Y-49452D01*
X63506Y-49462D01*
X63515Y-49471D01*
X63524Y-49490D01*
X63524Y-49499D01*
X63515Y-49518D01*
X63506Y-49527D01*
X63487Y-49537D01*
X63449Y-49537D01*
X63431Y-49546D01*
X63421Y-49556D01*
X63412Y-49574D01*
X63412Y-49612D01*
X63421Y-49631D01*
X63431Y-49640D01*
X63449Y-49649D01*
X63487Y-49649D01*
X63506Y-49640D01*
X63515Y-49631D01*
X63524Y-49612D01*
X63524Y-49574D01*
X63515Y-49556D01*
X63506Y-49546D01*
X63487Y-49537D01*
X57049Y-56202D02*
X56956Y-56268D01*
X57049Y-56315D02*
X56852Y-56315D01*
X56852Y-56240D01*
X56862Y-56221D01*
X56871Y-56212D01*
X56890Y-56202D01*
X56918Y-56202D01*
X56937Y-56212D01*
X56946Y-56221D01*
X56956Y-56240D01*
X56956Y-56315D01*
X56852Y-56024D02*
X56852Y-56118D01*
X56946Y-56127D01*
X56937Y-56118D01*
X56927Y-56099D01*
X56927Y-56052D01*
X56937Y-56034D01*
X56946Y-56024D01*
X56965Y-56015D01*
X57012Y-56015D01*
X57031Y-56024D01*
X57040Y-56034D01*
X57049Y-56052D01*
X57049Y-56099D01*
X57040Y-56118D01*
X57031Y-56127D01*
X51249Y-54902D02*
X51156Y-54968D01*
X51249Y-55015D02*
X51052Y-55015D01*
X51052Y-54940D01*
X51062Y-54921D01*
X51071Y-54912D01*
X51090Y-54902D01*
X51118Y-54902D01*
X51137Y-54912D01*
X51146Y-54921D01*
X51156Y-54940D01*
X51156Y-55015D01*
X51071Y-54827D02*
X51062Y-54818D01*
X51052Y-54799D01*
X51052Y-54752D01*
X51062Y-54734D01*
X51071Y-54724D01*
X51090Y-54715D01*
X51109Y-54715D01*
X51137Y-54724D01*
X51249Y-54837D01*
X51249Y-54715D01*
X51249Y-53902D02*
X51156Y-53968D01*
X51249Y-54015D02*
X51052Y-54015D01*
X51052Y-53940D01*
X51062Y-53921D01*
X51071Y-53912D01*
X51090Y-53902D01*
X51118Y-53902D01*
X51137Y-53912D01*
X51146Y-53921D01*
X51156Y-53940D01*
X51156Y-54015D01*
X51249Y-53715D02*
X51249Y-53827D01*
X51249Y-53771D02*
X51052Y-53771D01*
X51080Y-53790D01*
X51099Y-53809D01*
X51109Y-53827D01*
X57431Y-43102D02*
X57440Y-43112D01*
X57449Y-43140D01*
X57449Y-43159D01*
X57440Y-43187D01*
X57421Y-43206D01*
X57402Y-43215D01*
X57365Y-43224D01*
X57337Y-43224D01*
X57299Y-43215D01*
X57280Y-43206D01*
X57262Y-43187D01*
X57252Y-43159D01*
X57252Y-43140D01*
X57262Y-43112D01*
X57271Y-43102D01*
X57449Y-42915D02*
X57449Y-43027D01*
X57449Y-42971D02*
X57252Y-42971D01*
X57280Y-42990D01*
X57299Y-43009D01*
X57309Y-43027D01*
X42337Y-46049D02*
X42271Y-45956D01*
X42224Y-46049D02*
X42224Y-45852D01*
X42299Y-45852D01*
X42318Y-45862D01*
X42327Y-45871D01*
X42337Y-45890D01*
X42337Y-45918D01*
X42327Y-45937D01*
X42318Y-45946D01*
X42299Y-45956D01*
X42224Y-45956D01*
X42506Y-45852D02*
X42468Y-45852D01*
X42449Y-45862D01*
X42440Y-45871D01*
X42421Y-45899D01*
X42412Y-45937D01*
X42412Y-46012D01*
X42421Y-46031D01*
X42431Y-46040D01*
X42449Y-46049D01*
X42487Y-46049D01*
X42506Y-46040D01*
X42515Y-46031D01*
X42524Y-46012D01*
X42524Y-45965D01*
X42515Y-45946D01*
X42506Y-45937D01*
X42487Y-45927D01*
X42449Y-45927D01*
X42431Y-45937D01*
X42421Y-45946D01*
X42412Y-45965D01*
X42437Y-43849D02*
X42371Y-43756D01*
X42324Y-43849D02*
X42324Y-43652D01*
X42399Y-43652D01*
X42418Y-43662D01*
X42427Y-43671D01*
X42437Y-43690D01*
X42437Y-43718D01*
X42427Y-43737D01*
X42418Y-43746D01*
X42399Y-43756D01*
X42324Y-43756D01*
X42502Y-43652D02*
X42634Y-43652D01*
X42549Y-43849D01*
X44537Y-44949D02*
X44471Y-44856D01*
X44424Y-44949D02*
X44424Y-44752D01*
X44499Y-44752D01*
X44518Y-44762D01*
X44527Y-44771D01*
X44537Y-44790D01*
X44537Y-44818D01*
X44527Y-44837D01*
X44518Y-44846D01*
X44499Y-44856D01*
X44424Y-44856D01*
X44706Y-44818D02*
X44706Y-44949D01*
X44659Y-44743D02*
X44612Y-44884D01*
X44734Y-44884D01*
X62656Y-46602D02*
X62665Y-46612D01*
X62674Y-46640D01*
X62674Y-46659D01*
X62665Y-46687D01*
X62646Y-46706D01*
X62627Y-46715D01*
X62590Y-46724D01*
X62562Y-46724D01*
X62524Y-46715D01*
X62505Y-46706D01*
X62487Y-46687D01*
X62477Y-46659D01*
X62477Y-46640D01*
X62487Y-46612D01*
X62496Y-46602D01*
X62477Y-46434D02*
X62477Y-46471D01*
X62487Y-46490D01*
X62496Y-46499D01*
X62524Y-46518D01*
X62562Y-46527D01*
X62637Y-46527D01*
X62656Y-46518D01*
X62665Y-46509D01*
X62674Y-46490D01*
X62674Y-46452D01*
X62665Y-46434D01*
X62656Y-46424D01*
X62637Y-46415D01*
X62590Y-46415D01*
X62571Y-46424D01*
X62562Y-46434D01*
X62552Y-46452D01*
X62552Y-46490D01*
X62562Y-46509D01*
X62571Y-46518D01*
X62590Y-46527D01*
G54D14*
X71267Y-46932D02*
X71548Y-46932D01*
X71605Y-46951D01*
X71642Y-46988D01*
X71661Y-47044D01*
X71661Y-47082D01*
X71267Y-46782D02*
X71267Y-46538D01*
X71417Y-46669D01*
X71417Y-46613D01*
X71436Y-46576D01*
X71455Y-46557D01*
X71492Y-46538D01*
X71586Y-46538D01*
X71623Y-46557D01*
X71642Y-46576D01*
X71661Y-46613D01*
X71661Y-46726D01*
X71642Y-46763D01*
X71623Y-46782D01*
X72265Y-52799D02*
X72584Y-52799D01*
X72621Y-52781D01*
X72640Y-52762D01*
X72659Y-52724D01*
X72659Y-52649D01*
X72640Y-52612D01*
X72621Y-52593D01*
X72584Y-52574D01*
X72265Y-52574D01*
X72303Y-52406D02*
X72284Y-52387D01*
X72265Y-52350D01*
X72265Y-52256D01*
X72284Y-52218D01*
X72303Y-52200D01*
X72340Y-52181D01*
X72378Y-52181D01*
X72434Y-52200D01*
X72659Y-52425D01*
X72659Y-52181D01*
X41129Y-50460D02*
X40735Y-50460D01*
X40735Y-50366D01*
X40754Y-50310D01*
X40791Y-50273D01*
X40829Y-50254D01*
X40904Y-50235D01*
X40960Y-50235D01*
X41035Y-50254D01*
X41073Y-50273D01*
X41110Y-50310D01*
X41129Y-50366D01*
X41129Y-50460D01*
X40773Y-50085D02*
X40754Y-50066D01*
X40735Y-50029D01*
X40735Y-49935D01*
X40754Y-49898D01*
X40773Y-49879D01*
X40810Y-49860D01*
X40848Y-49860D01*
X40904Y-49879D01*
X41129Y-50104D01*
X41129Y-49860D01*
G54D20*
X65262Y-46855D02*
X65862Y-46455D01*
X65262Y-46455D02*
X65862Y-46855D01*
X65320Y-46255D02*
X65291Y-46227D01*
X65262Y-46170D01*
X65262Y-46027D01*
X65291Y-45970D01*
X65320Y-45941D01*
X65377Y-45912D01*
X65434Y-45912D01*
X65520Y-45941D01*
X65862Y-46284D01*
X65862Y-45912D01*
G54D22*
X39779Y-50729D02*
X39779Y-50335D01*
X39873Y-50335D01*
X39929Y-50354D01*
X39966Y-50391D01*
X39985Y-50429D01*
X40004Y-50504D01*
X40004Y-50560D01*
X39985Y-50635D01*
X39966Y-50673D01*
X39929Y-50710D01*
X39873Y-50729D01*
X39779Y-50729D01*
X40379Y-50729D02*
X40154Y-50729D01*
X40267Y-50729D02*
X40267Y-50335D01*
X40229Y-50391D01*
X40192Y-50429D01*
X40154Y-50448D01*
G54D14*
X47016Y-44991D02*
X46998Y-45010D01*
X46941Y-45029D01*
X46904Y-45029D01*
X46848Y-45010D01*
X46810Y-44973D01*
X46792Y-44935D01*
X46773Y-44860D01*
X46773Y-44804D01*
X46792Y-44729D01*
X46810Y-44691D01*
X46848Y-44654D01*
X46904Y-44635D01*
X46941Y-44635D01*
X46998Y-44654D01*
X47016Y-44673D01*
X47391Y-45029D02*
X47166Y-45029D01*
X47279Y-45029D02*
X47279Y-44635D01*
X47241Y-44691D01*
X47204Y-44729D01*
X47166Y-44748D01*
X47729Y-44766D02*
X47729Y-45029D01*
X47635Y-44616D02*
X47541Y-44898D01*
X47785Y-44898D01*
X47180Y-46840D02*
X47480Y-46840D01*
X47330Y-46990D02*
X47330Y-46690D01*
X61574Y-47299D02*
X61893Y-47299D01*
X61930Y-47281D01*
X61949Y-47262D01*
X61968Y-47224D01*
X61968Y-47149D01*
X61949Y-47112D01*
X61930Y-47093D01*
X61893Y-47074D01*
X61574Y-47074D01*
X61968Y-46681D02*
X61968Y-46906D01*
X61968Y-46793D02*
X61574Y-46793D01*
X61630Y-46831D01*
X61668Y-46868D01*
X61687Y-46906D01*
G54D12*
X40334Y-48720D02*
X40334Y-48820D01*
X40491Y-48820D02*
X40191Y-48820D01*
X40191Y-48677D01*
X40491Y-48405D02*
X40491Y-48577D01*
X40491Y-48491D02*
X40191Y-48491D01*
X40234Y-48520D01*
X40262Y-48548D01*
X40277Y-48577D01*
G54D15*
X44620Y-47658D02*
X44601Y-47696D01*
X44562Y-47734D01*
X44505Y-47791D01*
X44486Y-47829D01*
X44486Y-47867D01*
X44581Y-47848D02*
X44562Y-47886D01*
X44524Y-47924D01*
X44448Y-47943D01*
X44315Y-47943D01*
X44239Y-47924D01*
X44201Y-47886D01*
X44181Y-47848D01*
X44181Y-47772D01*
X44201Y-47734D01*
X44239Y-47696D01*
X44315Y-47677D01*
X44448Y-47677D01*
X44524Y-47696D01*
X44562Y-47734D01*
X44581Y-47772D01*
X44581Y-47848D01*
X44581Y-47296D02*
X44581Y-47524D01*
X44581Y-47410D02*
X44181Y-47410D01*
X44239Y-47448D01*
X44277Y-47486D01*
X44296Y-47524D01*
G54D14*
X45560Y-45173D02*
X45616Y-45191D01*
X45635Y-45210D01*
X45654Y-45248D01*
X45654Y-45304D01*
X45635Y-45341D01*
X45616Y-45360D01*
X45579Y-45379D01*
X45429Y-45379D01*
X45429Y-44985D01*
X45560Y-44985D01*
X45598Y-45004D01*
X45616Y-45023D01*
X45635Y-45060D01*
X45635Y-45098D01*
X45616Y-45135D01*
X45598Y-45154D01*
X45560Y-45173D01*
X45429Y-45173D01*
X45766Y-44985D02*
X45991Y-44985D01*
X45879Y-45379D02*
X45879Y-44985D01*
X46329Y-45379D02*
X46104Y-45379D01*
X46216Y-45379D02*
X46216Y-44985D01*
X46179Y-45041D01*
X46141Y-45079D01*
X46104Y-45098D01*
X42520Y-41129D02*
X42820Y-41129D01*
X42670Y-41279D02*
X42670Y-40979D01*
X48820Y-41129D02*
X49120Y-41129D01*
X48970Y-41279D02*
X48970Y-40979D01*
G54D23*
X55903Y-43636D02*
X55203Y-43636D01*
X55203Y-43370D01*
X55236Y-43303D01*
X55270Y-43270D01*
X55336Y-43236D01*
X55436Y-43236D01*
X55503Y-43270D01*
X55536Y-43303D01*
X55570Y-43370D01*
X55570Y-43636D01*
X55903Y-42570D02*
X55903Y-42970D01*
X55903Y-42770D02*
X55203Y-42770D01*
X55303Y-42836D01*
X55370Y-42903D01*
X55403Y-42970D01*
G54D14*
X55935Y-53170D02*
X55954Y-53113D01*
X55954Y-53020D01*
X55935Y-52982D01*
X55917Y-52963D01*
X55879Y-52945D01*
X55842Y-52945D01*
X55804Y-52963D01*
X55785Y-52982D01*
X55767Y-53020D01*
X55748Y-53095D01*
X55729Y-53132D01*
X55710Y-53151D01*
X55673Y-53170D01*
X55635Y-53170D01*
X55598Y-53151D01*
X55579Y-53132D01*
X55560Y-53095D01*
X55560Y-53001D01*
X55579Y-52945D01*
X55954Y-52570D02*
X55954Y-52795D01*
X55954Y-52682D02*
X55560Y-52682D01*
X55617Y-52720D01*
X55654Y-52757D01*
X55673Y-52795D01*
G54D10*
X51441Y-51620D02*
X51655Y-51620D01*
X51698Y-51634D01*
X51727Y-51662D01*
X51741Y-51705D01*
X51741Y-51734D01*
X51741Y-51477D02*
X51441Y-51477D01*
X51441Y-51362D01*
X51455Y-51334D01*
X51470Y-51320D01*
X51498Y-51305D01*
X51541Y-51305D01*
X51570Y-51320D01*
X51584Y-51334D01*
X51598Y-51362D01*
X51598Y-51477D01*
X51741Y-51020D02*
X51741Y-51191D01*
X51741Y-51105D02*
X51441Y-51105D01*
X51484Y-51134D01*
X51512Y-51162D01*
X51527Y-51191D01*
X64870Y-52191D02*
X64870Y-52405D01*
X64855Y-52448D01*
X64827Y-52477D01*
X64784Y-52491D01*
X64755Y-52491D01*
X65012Y-52491D02*
X65012Y-52191D01*
X65127Y-52191D01*
X65155Y-52205D01*
X65170Y-52220D01*
X65184Y-52248D01*
X65184Y-52291D01*
X65170Y-52320D01*
X65155Y-52334D01*
X65127Y-52348D01*
X65012Y-52348D01*
X65284Y-52191D02*
X65470Y-52191D01*
X65370Y-52305D01*
X65412Y-52305D01*
X65441Y-52320D01*
X65455Y-52334D01*
X65470Y-52362D01*
X65470Y-52434D01*
X65455Y-52462D01*
X65441Y-52477D01*
X65412Y-52491D01*
X65327Y-52491D01*
X65298Y-52477D01*
X65284Y-52462D01*
X64870Y-53191D02*
X64870Y-53405D01*
X64855Y-53448D01*
X64827Y-53477D01*
X64784Y-53491D01*
X64755Y-53491D01*
X65012Y-53491D02*
X65012Y-53191D01*
X65127Y-53191D01*
X65155Y-53205D01*
X65170Y-53220D01*
X65184Y-53248D01*
X65184Y-53291D01*
X65170Y-53320D01*
X65155Y-53334D01*
X65127Y-53348D01*
X65012Y-53348D01*
X65441Y-53291D02*
X65441Y-53491D01*
X65370Y-53177D02*
X65298Y-53391D01*
X65484Y-53391D01*
X64870Y-49191D02*
X64870Y-49405D01*
X64855Y-49448D01*
X64827Y-49477D01*
X64784Y-49491D01*
X64755Y-49491D01*
X65012Y-49491D02*
X65012Y-49191D01*
X65127Y-49191D01*
X65155Y-49205D01*
X65170Y-49220D01*
X65184Y-49248D01*
X65184Y-49291D01*
X65170Y-49320D01*
X65155Y-49334D01*
X65127Y-49348D01*
X65012Y-49348D01*
X65441Y-49191D02*
X65384Y-49191D01*
X65355Y-49205D01*
X65341Y-49220D01*
X65312Y-49262D01*
X65298Y-49320D01*
X65298Y-49434D01*
X65312Y-49462D01*
X65327Y-49477D01*
X65355Y-49491D01*
X65412Y-49491D01*
X65441Y-49477D01*
X65455Y-49462D01*
X65470Y-49434D01*
X65470Y-49362D01*
X65455Y-49334D01*
X65441Y-49320D01*
X65412Y-49305D01*
X65355Y-49305D01*
X65327Y-49320D01*
X65312Y-49334D01*
X65298Y-49362D01*
X64870Y-51191D02*
X64870Y-51405D01*
X64855Y-51448D01*
X64827Y-51477D01*
X64784Y-51491D01*
X64755Y-51491D01*
X65012Y-51491D02*
X65012Y-51191D01*
X65127Y-51191D01*
X65155Y-51205D01*
X65170Y-51220D01*
X65184Y-51248D01*
X65184Y-51291D01*
X65170Y-51320D01*
X65155Y-51334D01*
X65127Y-51348D01*
X65012Y-51348D01*
X65284Y-51191D02*
X65484Y-51191D01*
X65355Y-51491D01*
X64870Y-50191D02*
X64870Y-50405D01*
X64855Y-50448D01*
X64827Y-50477D01*
X64784Y-50491D01*
X64755Y-50491D01*
X65012Y-50491D02*
X65012Y-50191D01*
X65127Y-50191D01*
X65155Y-50205D01*
X65170Y-50220D01*
X65184Y-50248D01*
X65184Y-50291D01*
X65170Y-50320D01*
X65155Y-50334D01*
X65127Y-50348D01*
X65012Y-50348D01*
X65455Y-50191D02*
X65312Y-50191D01*
X65298Y-50334D01*
X65312Y-50320D01*
X65341Y-50305D01*
X65412Y-50305D01*
X65441Y-50320D01*
X65455Y-50334D01*
X65470Y-50362D01*
X65470Y-50434D01*
X65455Y-50462D01*
X65441Y-50477D01*
X65412Y-50491D01*
X65341Y-50491D01*
X65312Y-50477D01*
X65298Y-50462D01*
X62222Y-54243D02*
X62722Y-53977D01*
X62222Y-53977D02*
X62722Y-54243D01*
X62722Y-53615D02*
X62722Y-53843D01*
X62722Y-53729D02*
X62222Y-53729D01*
X62293Y-53767D01*
X62341Y-53805D01*
X62365Y-53843D01*
X48681Y-45103D02*
X48967Y-45103D01*
X49024Y-45122D01*
X49062Y-45160D01*
X49081Y-45217D01*
X49081Y-45255D01*
X49081Y-44912D02*
X48681Y-44912D01*
X48681Y-44760D01*
X48701Y-44722D01*
X48720Y-44703D01*
X48758Y-44684D01*
X48815Y-44684D01*
X48853Y-44703D01*
X48872Y-44722D01*
X48891Y-44760D01*
X48891Y-44912D01*
X48853Y-44455D02*
X48834Y-44493D01*
X48815Y-44512D01*
X48777Y-44531D01*
X48758Y-44531D01*
X48720Y-44512D01*
X48701Y-44493D01*
X48681Y-44455D01*
X48681Y-44379D01*
X48701Y-44341D01*
X48720Y-44322D01*
X48758Y-44303D01*
X48777Y-44303D01*
X48815Y-44322D01*
X48834Y-44341D01*
X48853Y-44379D01*
X48853Y-44455D01*
X48872Y-44493D01*
X48891Y-44512D01*
X48929Y-44531D01*
X49005Y-44531D01*
X49043Y-44512D01*
X49062Y-44493D01*
X49081Y-44455D01*
X49081Y-44379D01*
X49062Y-44341D01*
X49043Y-44322D01*
X49005Y-44303D01*
X48929Y-44303D01*
X48891Y-44322D01*
X48872Y-44341D01*
X48853Y-44379D01*
X57136Y-54181D02*
X57136Y-54467D01*
X57117Y-54524D01*
X57079Y-54562D01*
X57022Y-54581D01*
X56984Y-54581D01*
X57327Y-54581D02*
X57327Y-54181D01*
X57479Y-54181D01*
X57517Y-54201D01*
X57536Y-54220D01*
X57555Y-54258D01*
X57555Y-54315D01*
X57536Y-54353D01*
X57517Y-54372D01*
X57479Y-54391D01*
X57327Y-54391D01*
X57708Y-54220D02*
X57727Y-54201D01*
X57765Y-54181D01*
X57860Y-54181D01*
X57898Y-54201D01*
X57917Y-54220D01*
X57936Y-54258D01*
X57936Y-54296D01*
X57917Y-54353D01*
X57689Y-54581D01*
X57936Y-54581D01*
X70274Y-46381D02*
X70274Y-45981D01*
X70427Y-45981D01*
X70465Y-46001D01*
X70484Y-46020D01*
X70503Y-46058D01*
X70503Y-46115D01*
X70484Y-46153D01*
X70465Y-46172D01*
X70427Y-46191D01*
X70274Y-46191D01*
X70846Y-46115D02*
X70846Y-46381D01*
X70751Y-45962D02*
X70655Y-46248D01*
X70903Y-46248D01*
G54D18*
X40546Y-39831D02*
X40546Y-39431D01*
X40679Y-39717D01*
X40812Y-39431D01*
X40812Y-39831D01*
X41174Y-39565D02*
X41174Y-39831D01*
X41079Y-39412D02*
X40984Y-39698D01*
X41231Y-39698D01*
X77046Y-56581D02*
X77046Y-56181D01*
X77179Y-56467D01*
X77312Y-56181D01*
X77312Y-56581D01*
X77465Y-56181D02*
X77712Y-56181D01*
X77579Y-56334D01*
X77636Y-56334D01*
X77674Y-56353D01*
X77693Y-56372D01*
X77712Y-56410D01*
X77712Y-56505D01*
X77693Y-56543D01*
X77674Y-56562D01*
X77636Y-56581D01*
X77522Y-56581D01*
X77484Y-56562D01*
X77465Y-56543D01*
X77046Y-39831D02*
X77046Y-39431D01*
X77179Y-39717D01*
X77312Y-39431D01*
X77312Y-39831D01*
X77484Y-39470D02*
X77503Y-39451D01*
X77541Y-39431D01*
X77636Y-39431D01*
X77674Y-39451D01*
X77693Y-39470D01*
X77712Y-39508D01*
X77712Y-39546D01*
X77693Y-39603D01*
X77465Y-39831D01*
X77712Y-39831D01*
X40546Y-56581D02*
X40546Y-56181D01*
X40679Y-56467D01*
X40812Y-56181D01*
X40812Y-56581D01*
X41212Y-56581D02*
X40984Y-56581D01*
X41098Y-56581D02*
X41098Y-56181D01*
X41060Y-56239D01*
X41022Y-56277D01*
X40984Y-56296D01*
M02*
