G04 (created by PCBNEW (2012-nov-02)-testing) date Thu 10 Jan 2013 08:49:02 AM EST*
%MOIN*%
G04 Gerber Fmt 3.4, Leading zero omitted, Abs format*
%FSLAX34Y34*%
G01*
G70*
G90*
G04 APERTURE LIST*
%ADD10C,0.006*%
%ADD11C,0.00590551*%
%ADD12R,0.06X0.06*%
%ADD13C,0.06*%
%ADD14C,0.056*%
%ADD15C,0.0593*%
%ADD16C,0.0748031*%
%ADD17C,0.05*%
%ADD18C,0.1771*%
%ADD19C,0.16*%
%ADD20C,0.035*%
%ADD21C,0.01*%
G04 APERTURE END LIST*
G54D10*
G54D11*
X39370Y-59055D02*
X39370Y-39370D01*
X78740Y-59055D02*
X39370Y-59055D01*
X78740Y-39370D02*
X78740Y-59055D01*
X39370Y-39370D02*
X78740Y-39370D01*
G54D12*
X50370Y-58370D03*
G54D13*
X51370Y-58370D03*
X52370Y-58370D03*
X53370Y-58370D03*
X54370Y-58370D03*
X55370Y-58370D03*
X56370Y-58370D03*
X57370Y-58370D03*
X58370Y-58370D03*
X59370Y-58370D03*
X60370Y-58370D03*
X61370Y-58370D03*
X62370Y-58370D03*
X63370Y-58370D03*
X64370Y-58370D03*
X65370Y-58370D03*
X66370Y-58370D03*
X67370Y-58370D03*
X68370Y-58370D03*
X69370Y-58370D03*
G54D12*
X69370Y-40370D03*
G54D13*
X68370Y-40370D03*
X67370Y-40370D03*
X66370Y-40370D03*
X65370Y-40370D03*
X64370Y-40370D03*
X63370Y-40370D03*
X62370Y-40370D03*
X61370Y-40370D03*
X60370Y-40370D03*
X59370Y-40370D03*
X58370Y-40370D03*
X57370Y-40370D03*
X56370Y-40370D03*
X55370Y-40370D03*
X54370Y-40370D03*
X53370Y-40370D03*
X52370Y-40370D03*
X51370Y-40370D03*
X50370Y-40370D03*
G54D14*
X64120Y-45370D03*
X64120Y-47370D03*
G54D15*
X52870Y-44870D03*
X53870Y-44870D03*
X52870Y-45870D03*
X53870Y-45870D03*
X52870Y-46870D03*
X53870Y-46870D03*
X52870Y-47870D03*
X53870Y-47870D03*
X52870Y-48870D03*
X53870Y-48870D03*
X52870Y-49870D03*
X53870Y-49870D03*
X52870Y-50870D03*
X53870Y-50870D03*
X52870Y-51870D03*
X53870Y-51870D03*
X52870Y-52870D03*
X53870Y-52870D03*
X52870Y-53870D03*
X53870Y-53870D03*
G54D16*
X58255Y-51590D03*
X58255Y-54149D03*
X56484Y-51590D03*
X56484Y-54149D03*
G54D12*
X50870Y-50870D03*
G54D13*
X50870Y-51870D03*
G54D12*
X64620Y-53120D03*
G54D13*
X65620Y-53120D03*
G54D12*
X64620Y-54120D03*
G54D13*
X65620Y-54120D03*
G54D12*
X64620Y-50120D03*
G54D13*
X65620Y-50120D03*
G54D12*
X64620Y-52120D03*
G54D13*
X65620Y-52120D03*
G54D12*
X64620Y-51120D03*
G54D13*
X65620Y-51120D03*
G54D17*
X62370Y-51570D03*
X63370Y-51570D03*
G54D12*
X49770Y-45870D03*
G54D13*
X49770Y-44870D03*
X49770Y-43870D03*
G54D12*
X56370Y-55270D03*
G54D13*
X57370Y-55270D03*
X58370Y-55270D03*
G54D12*
X69470Y-47070D03*
G54D13*
X70470Y-47070D03*
X71470Y-47070D03*
G54D18*
X44673Y-54316D03*
X43492Y-56088D03*
X42264Y-54316D03*
G54D19*
X40870Y-40870D03*
X77370Y-57620D03*
X77370Y-40870D03*
X40870Y-57620D03*
G54D20*
X52870Y-56770D03*
X54970Y-56770D03*
X64570Y-46070D03*
X63570Y-46070D03*
X56070Y-50770D03*
X57770Y-48570D03*
X57570Y-45170D03*
X47500Y-48400D03*
X46500Y-48400D03*
X74370Y-47670D03*
X75870Y-47870D03*
X69670Y-47770D03*
X49270Y-48370D03*
X47270Y-45570D03*
X70870Y-42770D03*
X70870Y-44370D03*
X43570Y-50470D03*
X45870Y-56270D03*
X49070Y-57170D03*
X68970Y-55770D03*
X71470Y-55770D03*
X77370Y-44870D03*
X77470Y-46170D03*
X63270Y-46670D03*
X44470Y-42170D03*
X62370Y-49570D03*
X55970Y-48270D03*
X58270Y-50670D03*
X67170Y-48970D03*
X69070Y-46270D03*
X44570Y-50570D03*
X40770Y-50170D03*
X41970Y-45570D03*
X46170Y-44670D03*
X55370Y-46870D03*
X55370Y-47670D03*
X56170Y-49070D03*
X55370Y-49370D03*
X55670Y-49770D03*
X54770Y-47370D03*
X69170Y-47770D03*
X66970Y-43570D03*
X68170Y-43570D03*
X75570Y-48970D03*
X70270Y-48970D03*
X66970Y-47370D03*
X67670Y-48970D03*
X74970Y-44970D03*
X60770Y-50370D03*
X59470Y-46770D03*
X56570Y-42670D03*
X47770Y-42670D03*
X56170Y-43070D03*
X47970Y-43070D03*
X62570Y-48570D03*
X58170Y-47570D03*
X61970Y-52270D03*
X59970Y-47770D03*
X60270Y-50370D03*
X63270Y-48170D03*
X58570Y-55970D03*
X59520Y-56970D03*
X72570Y-50870D03*
X70270Y-50870D03*
X70170Y-53770D03*
X70170Y-54470D03*
X71370Y-51470D03*
X70770Y-52070D03*
X61670Y-51570D03*
X58570Y-47770D03*
X58870Y-47370D03*
X61370Y-51170D03*
X44470Y-46770D03*
X46870Y-52870D03*
X59070Y-46970D03*
X61070Y-50770D03*
X68170Y-47770D03*
X75470Y-46670D03*
X68170Y-49170D03*
X60770Y-48570D03*
X45000Y-57600D03*
X46270Y-57970D03*
X60270Y-43170D03*
X54670Y-48970D03*
X54670Y-49870D03*
X49670Y-51970D03*
X53970Y-54770D03*
X60370Y-46870D03*
X60670Y-42970D03*
X64370Y-48170D03*
X63270Y-42070D03*
X66970Y-52670D03*
X65070Y-43170D03*
X60270Y-45870D03*
X63370Y-52770D03*
X62870Y-52170D03*
G54D21*
X54970Y-56770D02*
X52870Y-56770D01*
X63570Y-46070D02*
X64570Y-46070D01*
X56070Y-50270D02*
X56070Y-50770D01*
X57770Y-48570D02*
X56070Y-50270D01*
X57270Y-44870D02*
X53870Y-44870D01*
X57570Y-45170D02*
X57270Y-44870D01*
X53870Y-44870D02*
X52870Y-44870D01*
X46500Y-48400D02*
X47500Y-48400D01*
X46170Y-44670D02*
X46170Y-44570D01*
X55370Y-46870D02*
X55370Y-47670D01*
X55670Y-49070D02*
X56170Y-49070D01*
X55370Y-49370D02*
X55670Y-49070D01*
X53370Y-50370D02*
X52870Y-50870D01*
X55070Y-50370D02*
X53370Y-50370D01*
X55670Y-49770D02*
X55070Y-50370D01*
X53370Y-47370D02*
X52870Y-47870D01*
X54770Y-47370D02*
X53370Y-47370D01*
X68470Y-45270D02*
X68470Y-43870D01*
X69170Y-47770D02*
X68470Y-47070D01*
X68470Y-47070D02*
X68470Y-45270D01*
X63370Y-40470D02*
X63370Y-40370D01*
X66470Y-43570D02*
X63370Y-40470D01*
X66970Y-43570D02*
X66470Y-43570D01*
X68470Y-43870D02*
X68170Y-43570D01*
X70270Y-48970D02*
X75570Y-48970D01*
X63170Y-41170D02*
X62370Y-40370D01*
X63670Y-41170D02*
X63170Y-41170D01*
X66970Y-44470D02*
X63670Y-41170D01*
X66970Y-47370D02*
X66970Y-44470D01*
X68370Y-48270D02*
X67670Y-48970D01*
X74570Y-48270D02*
X68370Y-48270D01*
X74970Y-47870D02*
X74570Y-48270D01*
X74970Y-44970D02*
X74970Y-47870D01*
X59970Y-47270D02*
X60370Y-47670D01*
X60770Y-50370D02*
X60370Y-49970D01*
X60370Y-49970D02*
X60370Y-47670D01*
X59470Y-46770D02*
X59970Y-47270D01*
X47770Y-42670D02*
X56570Y-42670D01*
X56170Y-43070D02*
X47970Y-43070D01*
X47970Y-43070D02*
X47970Y-43070D01*
X62870Y-51070D02*
X62370Y-51570D01*
X62870Y-48870D02*
X62870Y-51070D01*
X62570Y-48570D02*
X62870Y-48870D01*
X58170Y-47570D02*
X58170Y-48070D01*
X58170Y-48070D02*
X58970Y-48870D01*
X58970Y-48870D02*
X58970Y-50570D01*
X58970Y-50570D02*
X60670Y-52270D01*
X60670Y-52270D02*
X61970Y-52270D01*
X59970Y-50070D02*
X59970Y-47770D01*
X60270Y-50370D02*
X59970Y-50070D01*
X63370Y-48270D02*
X63370Y-51570D01*
X63270Y-48170D02*
X63370Y-48270D01*
X59520Y-56970D02*
X59520Y-56920D01*
X59520Y-56920D02*
X58570Y-55970D01*
X70270Y-50870D02*
X72570Y-50870D01*
X70170Y-54470D02*
X70170Y-53770D01*
X70770Y-52070D02*
X71370Y-51470D01*
X59170Y-49970D02*
X59170Y-50470D01*
X60270Y-51570D02*
X59170Y-50470D01*
X61670Y-51570D02*
X60270Y-51570D01*
X58970Y-47770D02*
X58570Y-47770D01*
X59170Y-47970D02*
X58970Y-47770D01*
X59170Y-49970D02*
X59170Y-47970D01*
X59370Y-47870D02*
X58870Y-47370D01*
X59370Y-50370D02*
X59370Y-47870D01*
X60170Y-51170D02*
X59370Y-50370D01*
X60270Y-51170D02*
X60170Y-51170D01*
X61370Y-51170D02*
X60270Y-51170D01*
X46170Y-48470D02*
X44470Y-46770D01*
X46170Y-52170D02*
X46170Y-48470D01*
X46870Y-52870D02*
X46170Y-52170D01*
X59070Y-46970D02*
X59070Y-47070D01*
X61070Y-50770D02*
X60070Y-50770D01*
X60070Y-50770D02*
X59570Y-50270D01*
X59570Y-50270D02*
X59570Y-47570D01*
X59070Y-47070D02*
X59570Y-47570D01*
X68070Y-44070D02*
X64370Y-40370D01*
X68070Y-47670D02*
X68070Y-44070D01*
X68170Y-47770D02*
X68070Y-47670D01*
X74870Y-48570D02*
X75170Y-48570D01*
X75470Y-48270D02*
X75170Y-48570D01*
X75470Y-47770D02*
X75470Y-48270D01*
X75470Y-46670D02*
X75470Y-47770D01*
X68770Y-48570D02*
X68170Y-49170D01*
X74870Y-48570D02*
X68770Y-48570D01*
X59970Y-46170D02*
X60170Y-46370D01*
X60170Y-46370D02*
X61270Y-46370D01*
X59570Y-46170D02*
X59970Y-46170D01*
X61370Y-47970D02*
X60770Y-48570D01*
X61370Y-46470D02*
X61370Y-47970D01*
X61270Y-46370D02*
X61370Y-46470D01*
X51970Y-44870D02*
X52470Y-45370D01*
X52470Y-45370D02*
X54070Y-45370D01*
X54070Y-45370D02*
X54870Y-46170D01*
X54870Y-46170D02*
X59570Y-46170D01*
X51970Y-44870D02*
X49770Y-44870D01*
X45000Y-57600D02*
X45370Y-57970D01*
X45370Y-57970D02*
X46270Y-57970D01*
X64620Y-51120D02*
X64170Y-50670D01*
X60270Y-44670D02*
X60270Y-43170D01*
X64070Y-48470D02*
X60270Y-44670D01*
X64070Y-50570D02*
X64070Y-48470D01*
X64170Y-50670D02*
X64070Y-50570D01*
X59570Y-57870D02*
X61970Y-57870D01*
X52870Y-57870D02*
X59570Y-57870D01*
X52370Y-58370D02*
X52870Y-57870D01*
X65170Y-51670D02*
X64620Y-51120D01*
X65170Y-54670D02*
X65170Y-51670D01*
X61970Y-57870D02*
X65170Y-54670D01*
X54670Y-49870D02*
X54670Y-48970D01*
X52470Y-54770D02*
X49670Y-51970D01*
X53970Y-54770D02*
X52470Y-54770D01*
X56484Y-50455D02*
X56484Y-51590D01*
X58170Y-48770D02*
X56484Y-50455D01*
X58170Y-48370D02*
X58170Y-48770D01*
X57670Y-47870D02*
X58170Y-48370D01*
X57670Y-47170D02*
X57670Y-47870D01*
X58470Y-46370D02*
X57670Y-47170D01*
X59870Y-46370D02*
X58470Y-46370D01*
X60370Y-46870D02*
X59870Y-46370D01*
X63570Y-52120D02*
X63520Y-52120D01*
X63520Y-52120D02*
X62270Y-53370D01*
X60670Y-44670D02*
X60670Y-42970D01*
X64070Y-48070D02*
X60670Y-44670D01*
X64270Y-48070D02*
X64070Y-48070D01*
X64370Y-48170D02*
X64270Y-48070D01*
X59570Y-57470D02*
X61670Y-55370D01*
X51270Y-57470D02*
X59570Y-57470D01*
X50370Y-58370D02*
X51270Y-57470D01*
X62270Y-54770D02*
X62270Y-53370D01*
X61670Y-55370D02*
X62270Y-54770D01*
X63570Y-52120D02*
X64620Y-52120D01*
X63270Y-42070D02*
X64770Y-43570D01*
X64620Y-48720D02*
X65370Y-47970D01*
X65370Y-47970D02*
X65370Y-44170D01*
X65370Y-44170D02*
X64770Y-43570D01*
X64620Y-48720D02*
X64620Y-50120D01*
X65770Y-48470D02*
X65770Y-43870D01*
X66970Y-49670D02*
X65770Y-48470D01*
X66970Y-52670D02*
X66970Y-49670D01*
X65070Y-43170D02*
X65770Y-43870D01*
X62870Y-51770D02*
X62870Y-52170D01*
X61770Y-47270D02*
X63070Y-48570D01*
X63070Y-48570D02*
X63070Y-51170D01*
X63070Y-51170D02*
X62870Y-51370D01*
X62870Y-51370D02*
X62870Y-51770D01*
X61770Y-46470D02*
X61770Y-46670D01*
X61370Y-46070D02*
X61770Y-46470D01*
X60470Y-46070D02*
X61370Y-46070D01*
X60270Y-45870D02*
X60470Y-46070D01*
X61770Y-46670D02*
X61770Y-47270D01*
X64620Y-54020D02*
X64620Y-54120D01*
X63370Y-52770D02*
X64620Y-54020D01*
X59470Y-57670D02*
X59670Y-57670D01*
X63220Y-54120D02*
X64620Y-54120D01*
X59670Y-57670D02*
X63220Y-54120D01*
X51370Y-58370D02*
X52070Y-57670D01*
X52070Y-57670D02*
X59470Y-57670D01*
X59470Y-57670D02*
X59570Y-57670D01*
G54D10*
G36*
X78520Y-58820D02*
X78300Y-58820D01*
X78300Y-57435D01*
X78300Y-40685D01*
X78158Y-40343D01*
X77897Y-40082D01*
X77555Y-39940D01*
X77185Y-39939D01*
X76843Y-40081D01*
X76582Y-40342D01*
X76440Y-40684D01*
X76439Y-41054D01*
X76581Y-41396D01*
X76842Y-41658D01*
X77184Y-41799D01*
X77554Y-41800D01*
X77896Y-41658D01*
X78158Y-41397D01*
X78299Y-41055D01*
X78300Y-40685D01*
X78300Y-57435D01*
X78158Y-57093D01*
X77897Y-56832D01*
X77555Y-56690D01*
X77185Y-56689D01*
X76843Y-56831D01*
X76582Y-57092D01*
X76440Y-57434D01*
X76439Y-57804D01*
X76581Y-58146D01*
X76842Y-58408D01*
X77184Y-58549D01*
X77554Y-58550D01*
X77896Y-58408D01*
X78158Y-58147D01*
X78299Y-57805D01*
X78300Y-57435D01*
X78300Y-58820D01*
X75875Y-58820D01*
X75875Y-48909D01*
X75828Y-48797D01*
X75743Y-48711D01*
X75631Y-48665D01*
X75509Y-48665D01*
X75397Y-48711D01*
X75318Y-48790D01*
X70521Y-48790D01*
X70481Y-48750D01*
X74870Y-48750D01*
X75170Y-48750D01*
X75238Y-48736D01*
X75297Y-48697D01*
X75597Y-48397D01*
X75597Y-48397D01*
X75612Y-48373D01*
X75636Y-48338D01*
X75636Y-48338D01*
X75650Y-48270D01*
X75650Y-48270D01*
X75650Y-47770D01*
X75650Y-46921D01*
X75728Y-46843D01*
X75775Y-46731D01*
X75775Y-46609D01*
X75728Y-46497D01*
X75643Y-46411D01*
X75531Y-46365D01*
X75409Y-46365D01*
X75297Y-46411D01*
X75211Y-46497D01*
X75165Y-46609D01*
X75165Y-46730D01*
X75211Y-46842D01*
X75290Y-46921D01*
X75290Y-47770D01*
X75290Y-48195D01*
X75095Y-48390D01*
X74870Y-48390D01*
X74704Y-48390D01*
X75097Y-47997D01*
X75097Y-47997D01*
X75123Y-47958D01*
X75136Y-47938D01*
X75136Y-47938D01*
X75150Y-47870D01*
X75150Y-47870D01*
X75150Y-45221D01*
X75228Y-45143D01*
X75275Y-45031D01*
X75275Y-44909D01*
X75228Y-44797D01*
X75143Y-44711D01*
X75031Y-44665D01*
X74909Y-44665D01*
X74797Y-44711D01*
X74711Y-44797D01*
X74665Y-44909D01*
X74665Y-45030D01*
X74711Y-45142D01*
X74790Y-45221D01*
X74790Y-47795D01*
X74495Y-48090D01*
X72024Y-48090D01*
X72024Y-47151D01*
X72013Y-46933D01*
X71951Y-46782D01*
X71855Y-46754D01*
X71785Y-46825D01*
X71785Y-46684D01*
X71757Y-46588D01*
X71551Y-46515D01*
X71333Y-46526D01*
X71182Y-46588D01*
X71154Y-46684D01*
X71470Y-46999D01*
X71785Y-46684D01*
X71785Y-46825D01*
X71540Y-47070D01*
X71855Y-47385D01*
X71951Y-47357D01*
X72024Y-47151D01*
X72024Y-48090D01*
X71785Y-48090D01*
X71785Y-47455D01*
X71470Y-47140D01*
X71399Y-47211D01*
X71399Y-47070D01*
X71084Y-46754D01*
X70988Y-46782D01*
X70915Y-46988D01*
X70926Y-47206D01*
X70988Y-47357D01*
X71084Y-47385D01*
X71399Y-47070D01*
X71399Y-47211D01*
X71154Y-47455D01*
X71182Y-47551D01*
X71388Y-47624D01*
X71606Y-47613D01*
X71757Y-47551D01*
X71785Y-47455D01*
X71785Y-48090D01*
X70900Y-48090D01*
X70900Y-46984D01*
X70834Y-46826D01*
X70713Y-46705D01*
X70555Y-46640D01*
X70384Y-46640D01*
X70226Y-46705D01*
X70105Y-46826D01*
X70040Y-46984D01*
X70040Y-47155D01*
X70105Y-47313D01*
X70226Y-47434D01*
X70384Y-47500D01*
X70555Y-47500D01*
X70713Y-47434D01*
X70834Y-47313D01*
X70900Y-47155D01*
X70900Y-46984D01*
X70900Y-48090D01*
X69900Y-48090D01*
X69900Y-47344D01*
X69900Y-46744D01*
X69880Y-46696D01*
X69843Y-46659D01*
X69800Y-46641D01*
X69800Y-40644D01*
X69800Y-40044D01*
X69780Y-39996D01*
X69743Y-39959D01*
X69696Y-39940D01*
X69644Y-39940D01*
X69044Y-39940D01*
X68996Y-39959D01*
X68959Y-39996D01*
X68940Y-40044D01*
X68940Y-40095D01*
X68940Y-40695D01*
X68959Y-40743D01*
X68996Y-40780D01*
X69044Y-40800D01*
X69095Y-40800D01*
X69695Y-40800D01*
X69743Y-40780D01*
X69780Y-40743D01*
X69800Y-40696D01*
X69800Y-40644D01*
X69800Y-46641D01*
X69796Y-46640D01*
X69744Y-46640D01*
X69144Y-46640D01*
X69096Y-46659D01*
X69059Y-46696D01*
X69040Y-46744D01*
X69040Y-46795D01*
X69040Y-47385D01*
X68800Y-47145D01*
X68800Y-40284D01*
X68734Y-40126D01*
X68613Y-40005D01*
X68455Y-39940D01*
X68284Y-39940D01*
X68126Y-40005D01*
X68005Y-40126D01*
X67940Y-40284D01*
X67940Y-40455D01*
X68005Y-40613D01*
X68126Y-40734D01*
X68284Y-40800D01*
X68455Y-40800D01*
X68613Y-40734D01*
X68734Y-40613D01*
X68800Y-40455D01*
X68800Y-40284D01*
X68800Y-47145D01*
X68650Y-46995D01*
X68650Y-45270D01*
X68650Y-43870D01*
X68650Y-43870D01*
X68636Y-43801D01*
X68612Y-43766D01*
X68597Y-43742D01*
X68597Y-43742D01*
X68475Y-43620D01*
X68475Y-43509D01*
X68428Y-43397D01*
X68343Y-43311D01*
X68231Y-43265D01*
X68109Y-43265D01*
X67997Y-43311D01*
X67911Y-43397D01*
X67865Y-43509D01*
X67865Y-43610D01*
X67800Y-43545D01*
X67800Y-40284D01*
X67734Y-40126D01*
X67613Y-40005D01*
X67455Y-39940D01*
X67284Y-39940D01*
X67126Y-40005D01*
X67005Y-40126D01*
X66940Y-40284D01*
X66940Y-40455D01*
X67005Y-40613D01*
X67126Y-40734D01*
X67284Y-40800D01*
X67455Y-40800D01*
X67613Y-40734D01*
X67734Y-40613D01*
X67800Y-40455D01*
X67800Y-40284D01*
X67800Y-43545D01*
X66800Y-42545D01*
X66800Y-40284D01*
X66734Y-40126D01*
X66613Y-40005D01*
X66455Y-39940D01*
X66284Y-39940D01*
X66126Y-40005D01*
X66005Y-40126D01*
X65940Y-40284D01*
X65940Y-40455D01*
X66005Y-40613D01*
X66126Y-40734D01*
X66284Y-40800D01*
X66455Y-40800D01*
X66613Y-40734D01*
X66734Y-40613D01*
X66800Y-40455D01*
X66800Y-40284D01*
X66800Y-42545D01*
X65800Y-41545D01*
X65800Y-40284D01*
X65734Y-40126D01*
X65613Y-40005D01*
X65455Y-39940D01*
X65284Y-39940D01*
X65126Y-40005D01*
X65005Y-40126D01*
X64940Y-40284D01*
X64940Y-40455D01*
X65005Y-40613D01*
X65126Y-40734D01*
X65284Y-40800D01*
X65455Y-40800D01*
X65613Y-40734D01*
X65734Y-40613D01*
X65800Y-40455D01*
X65800Y-40284D01*
X65800Y-41545D01*
X64773Y-40519D01*
X64800Y-40455D01*
X64800Y-40284D01*
X64734Y-40126D01*
X64613Y-40005D01*
X64455Y-39940D01*
X64284Y-39940D01*
X64126Y-40005D01*
X64005Y-40126D01*
X63940Y-40284D01*
X63940Y-40455D01*
X64005Y-40613D01*
X64126Y-40734D01*
X64284Y-40800D01*
X64455Y-40800D01*
X64519Y-40773D01*
X67010Y-43265D01*
X66909Y-43265D01*
X66797Y-43311D01*
X66718Y-43390D01*
X66544Y-43390D01*
X63744Y-40589D01*
X63800Y-40455D01*
X63800Y-40284D01*
X63734Y-40126D01*
X63613Y-40005D01*
X63455Y-39940D01*
X63284Y-39940D01*
X63126Y-40005D01*
X63005Y-40126D01*
X62940Y-40284D01*
X62940Y-40455D01*
X63005Y-40613D01*
X63126Y-40734D01*
X63284Y-40800D01*
X63445Y-40800D01*
X63635Y-40990D01*
X63244Y-40990D01*
X62773Y-40519D01*
X62800Y-40455D01*
X62800Y-40284D01*
X62734Y-40126D01*
X62613Y-40005D01*
X62455Y-39940D01*
X62284Y-39940D01*
X62126Y-40005D01*
X62005Y-40126D01*
X61940Y-40284D01*
X61940Y-40455D01*
X62005Y-40613D01*
X62126Y-40734D01*
X62284Y-40800D01*
X62455Y-40800D01*
X62519Y-40773D01*
X63042Y-41297D01*
X63042Y-41297D01*
X63081Y-41323D01*
X63101Y-41336D01*
X63101Y-41336D01*
X63170Y-41350D01*
X63170Y-41350D01*
X63595Y-41350D01*
X65110Y-42865D01*
X65009Y-42865D01*
X64897Y-42911D01*
X64811Y-42997D01*
X64765Y-43109D01*
X64765Y-43230D01*
X64811Y-43342D01*
X64897Y-43428D01*
X65009Y-43475D01*
X65120Y-43475D01*
X65590Y-43944D01*
X65590Y-48470D01*
X65603Y-48538D01*
X65642Y-48597D01*
X66790Y-49744D01*
X66790Y-52418D01*
X66711Y-52497D01*
X66665Y-52609D01*
X66665Y-52730D01*
X66711Y-52842D01*
X66797Y-52928D01*
X66909Y-52975D01*
X67030Y-52975D01*
X67142Y-52928D01*
X67228Y-52843D01*
X67275Y-52731D01*
X67275Y-52609D01*
X67228Y-52497D01*
X67150Y-52418D01*
X67150Y-49670D01*
X67150Y-49670D01*
X67136Y-49601D01*
X67136Y-49601D01*
X67123Y-49581D01*
X67097Y-49542D01*
X67097Y-49542D01*
X65950Y-48395D01*
X65950Y-43870D01*
X65950Y-43870D01*
X65936Y-43801D01*
X65897Y-43742D01*
X65897Y-43742D01*
X65375Y-43220D01*
X65375Y-43129D01*
X66790Y-44544D01*
X66790Y-47118D01*
X66711Y-47197D01*
X66665Y-47309D01*
X66665Y-47430D01*
X66711Y-47542D01*
X66797Y-47628D01*
X66909Y-47675D01*
X67030Y-47675D01*
X67142Y-47628D01*
X67228Y-47543D01*
X67275Y-47431D01*
X67275Y-47309D01*
X67228Y-47197D01*
X67150Y-47118D01*
X67150Y-44470D01*
X67136Y-44401D01*
X67097Y-44342D01*
X66504Y-43750D01*
X66718Y-43750D01*
X66797Y-43828D01*
X66909Y-43875D01*
X67030Y-43875D01*
X67142Y-43828D01*
X67228Y-43743D01*
X67275Y-43631D01*
X67275Y-43529D01*
X67890Y-44144D01*
X67890Y-47649D01*
X67865Y-47709D01*
X67865Y-47830D01*
X67911Y-47942D01*
X67997Y-48028D01*
X68109Y-48075D01*
X68230Y-48075D01*
X68342Y-48028D01*
X68428Y-47943D01*
X68475Y-47831D01*
X68475Y-47709D01*
X68428Y-47597D01*
X68343Y-47511D01*
X68250Y-47473D01*
X68250Y-44070D01*
X68236Y-44001D01*
X68197Y-43942D01*
X68129Y-43875D01*
X68220Y-43875D01*
X68290Y-43944D01*
X68290Y-45270D01*
X68290Y-47070D01*
X68303Y-47138D01*
X68342Y-47197D01*
X68865Y-47719D01*
X68865Y-47830D01*
X68911Y-47942D01*
X68997Y-48028D01*
X69109Y-48075D01*
X69230Y-48075D01*
X69342Y-48028D01*
X69428Y-47943D01*
X69475Y-47831D01*
X69475Y-47709D01*
X69428Y-47597D01*
X69343Y-47511D01*
X69315Y-47500D01*
X69795Y-47500D01*
X69843Y-47480D01*
X69880Y-47443D01*
X69900Y-47396D01*
X69900Y-47344D01*
X69900Y-48090D01*
X68370Y-48090D01*
X68301Y-48103D01*
X68242Y-48142D01*
X67720Y-48665D01*
X67609Y-48665D01*
X67497Y-48711D01*
X67411Y-48797D01*
X67365Y-48909D01*
X67365Y-49030D01*
X67411Y-49142D01*
X67497Y-49228D01*
X67609Y-49275D01*
X67730Y-49275D01*
X67842Y-49228D01*
X67865Y-49206D01*
X67865Y-49230D01*
X67911Y-49342D01*
X67997Y-49428D01*
X68109Y-49475D01*
X68230Y-49475D01*
X68342Y-49428D01*
X68428Y-49343D01*
X68475Y-49231D01*
X68475Y-49119D01*
X68844Y-48750D01*
X70058Y-48750D01*
X70011Y-48797D01*
X69965Y-48909D01*
X69965Y-49030D01*
X70011Y-49142D01*
X70097Y-49228D01*
X70209Y-49275D01*
X70330Y-49275D01*
X70442Y-49228D01*
X70521Y-49150D01*
X75318Y-49150D01*
X75397Y-49228D01*
X75509Y-49275D01*
X75630Y-49275D01*
X75742Y-49228D01*
X75828Y-49143D01*
X75875Y-49031D01*
X75875Y-48909D01*
X75875Y-58820D01*
X72875Y-58820D01*
X72875Y-50809D01*
X72828Y-50697D01*
X72743Y-50611D01*
X72631Y-50565D01*
X72509Y-50565D01*
X72397Y-50611D01*
X72318Y-50690D01*
X70521Y-50690D01*
X70443Y-50611D01*
X70331Y-50565D01*
X70209Y-50565D01*
X70097Y-50611D01*
X70011Y-50697D01*
X69965Y-50809D01*
X69965Y-50930D01*
X70011Y-51042D01*
X70097Y-51128D01*
X70209Y-51175D01*
X70330Y-51175D01*
X70442Y-51128D01*
X70521Y-51050D01*
X72318Y-51050D01*
X72397Y-51128D01*
X72509Y-51175D01*
X72630Y-51175D01*
X72742Y-51128D01*
X72828Y-51043D01*
X72875Y-50931D01*
X72875Y-50809D01*
X72875Y-58820D01*
X71675Y-58820D01*
X71675Y-51409D01*
X71628Y-51297D01*
X71543Y-51211D01*
X71431Y-51165D01*
X71309Y-51165D01*
X71197Y-51211D01*
X71111Y-51297D01*
X71065Y-51409D01*
X71065Y-51520D01*
X70820Y-51765D01*
X70709Y-51765D01*
X70597Y-51811D01*
X70511Y-51897D01*
X70465Y-52009D01*
X70465Y-52130D01*
X70511Y-52242D01*
X70597Y-52328D01*
X70709Y-52375D01*
X70830Y-52375D01*
X70942Y-52328D01*
X71028Y-52243D01*
X71075Y-52131D01*
X71075Y-52019D01*
X71319Y-51775D01*
X71430Y-51775D01*
X71542Y-51728D01*
X71628Y-51643D01*
X71675Y-51531D01*
X71675Y-51409D01*
X71675Y-58820D01*
X70475Y-58820D01*
X70475Y-54409D01*
X70428Y-54297D01*
X70350Y-54218D01*
X70350Y-54021D01*
X70428Y-53943D01*
X70475Y-53831D01*
X70475Y-53709D01*
X70428Y-53597D01*
X70343Y-53511D01*
X70231Y-53465D01*
X70109Y-53465D01*
X69997Y-53511D01*
X69911Y-53597D01*
X69865Y-53709D01*
X69865Y-53830D01*
X69911Y-53942D01*
X69990Y-54021D01*
X69990Y-54218D01*
X69911Y-54297D01*
X69865Y-54409D01*
X69865Y-54530D01*
X69911Y-54642D01*
X69997Y-54728D01*
X70109Y-54775D01*
X70230Y-54775D01*
X70342Y-54728D01*
X70428Y-54643D01*
X70475Y-54531D01*
X70475Y-54409D01*
X70475Y-58820D01*
X69924Y-58820D01*
X69924Y-58451D01*
X69913Y-58233D01*
X69851Y-58082D01*
X69755Y-58054D01*
X69685Y-58125D01*
X69685Y-57984D01*
X69657Y-57888D01*
X69451Y-57815D01*
X69233Y-57826D01*
X69082Y-57888D01*
X69054Y-57984D01*
X69370Y-58299D01*
X69685Y-57984D01*
X69685Y-58125D01*
X69440Y-58370D01*
X69755Y-58685D01*
X69851Y-58657D01*
X69924Y-58451D01*
X69924Y-58820D01*
X69666Y-58820D01*
X69685Y-58755D01*
X69370Y-58440D01*
X69299Y-58511D01*
X69299Y-58370D01*
X68984Y-58054D01*
X68888Y-58082D01*
X68815Y-58288D01*
X68826Y-58506D01*
X68888Y-58657D01*
X68984Y-58685D01*
X69299Y-58370D01*
X69299Y-58511D01*
X69054Y-58755D01*
X69073Y-58820D01*
X68800Y-58820D01*
X68800Y-58284D01*
X68734Y-58126D01*
X68613Y-58005D01*
X68455Y-57940D01*
X68284Y-57940D01*
X68126Y-58005D01*
X68005Y-58126D01*
X67940Y-58284D01*
X67940Y-58455D01*
X68005Y-58613D01*
X68126Y-58734D01*
X68284Y-58800D01*
X68455Y-58800D01*
X68613Y-58734D01*
X68734Y-58613D01*
X68800Y-58455D01*
X68800Y-58284D01*
X68800Y-58820D01*
X67800Y-58820D01*
X67800Y-58284D01*
X67734Y-58126D01*
X67613Y-58005D01*
X67455Y-57940D01*
X67284Y-57940D01*
X67126Y-58005D01*
X67005Y-58126D01*
X66940Y-58284D01*
X66940Y-58455D01*
X67005Y-58613D01*
X67126Y-58734D01*
X67284Y-58800D01*
X67455Y-58800D01*
X67613Y-58734D01*
X67734Y-58613D01*
X67800Y-58455D01*
X67800Y-58284D01*
X67800Y-58820D01*
X66800Y-58820D01*
X66800Y-58284D01*
X66734Y-58126D01*
X66613Y-58005D01*
X66455Y-57940D01*
X66284Y-57940D01*
X66126Y-58005D01*
X66050Y-58081D01*
X66050Y-54034D01*
X65984Y-53876D01*
X65863Y-53755D01*
X65705Y-53690D01*
X65534Y-53690D01*
X65376Y-53755D01*
X65350Y-53782D01*
X65350Y-53458D01*
X65376Y-53484D01*
X65534Y-53550D01*
X65705Y-53550D01*
X65863Y-53484D01*
X65984Y-53363D01*
X66050Y-53205D01*
X66050Y-53034D01*
X65984Y-52876D01*
X65863Y-52755D01*
X65705Y-52690D01*
X65534Y-52690D01*
X65376Y-52755D01*
X65350Y-52782D01*
X65350Y-52458D01*
X65376Y-52484D01*
X65534Y-52550D01*
X65705Y-52550D01*
X65863Y-52484D01*
X65984Y-52363D01*
X66050Y-52205D01*
X66050Y-52034D01*
X66050Y-51034D01*
X66050Y-50034D01*
X65984Y-49876D01*
X65863Y-49755D01*
X65705Y-49690D01*
X65534Y-49690D01*
X65376Y-49755D01*
X65255Y-49876D01*
X65190Y-50034D01*
X65190Y-50205D01*
X65255Y-50363D01*
X65376Y-50484D01*
X65534Y-50550D01*
X65705Y-50550D01*
X65863Y-50484D01*
X65984Y-50363D01*
X66050Y-50205D01*
X66050Y-50034D01*
X66050Y-51034D01*
X65984Y-50876D01*
X65863Y-50755D01*
X65705Y-50690D01*
X65534Y-50690D01*
X65376Y-50755D01*
X65255Y-50876D01*
X65190Y-51034D01*
X65190Y-51205D01*
X65255Y-51363D01*
X65376Y-51484D01*
X65534Y-51550D01*
X65705Y-51550D01*
X65863Y-51484D01*
X65984Y-51363D01*
X66050Y-51205D01*
X66050Y-51034D01*
X66050Y-52034D01*
X65984Y-51876D01*
X65863Y-51755D01*
X65705Y-51690D01*
X65534Y-51690D01*
X65376Y-51755D01*
X65350Y-51782D01*
X65350Y-51670D01*
X65336Y-51601D01*
X65297Y-51542D01*
X65050Y-51295D01*
X65050Y-50794D01*
X65030Y-50746D01*
X64993Y-50709D01*
X64946Y-50690D01*
X64894Y-50690D01*
X64444Y-50690D01*
X64304Y-50550D01*
X64345Y-50550D01*
X64945Y-50550D01*
X64993Y-50530D01*
X65030Y-50493D01*
X65050Y-50446D01*
X65050Y-50394D01*
X65050Y-49794D01*
X65030Y-49746D01*
X64993Y-49709D01*
X64946Y-49690D01*
X64894Y-49690D01*
X64800Y-49690D01*
X64800Y-48794D01*
X65497Y-48097D01*
X65497Y-48097D01*
X65523Y-48058D01*
X65536Y-48038D01*
X65536Y-48038D01*
X65550Y-47970D01*
X65550Y-47970D01*
X65550Y-44170D01*
X65536Y-44101D01*
X65497Y-44042D01*
X65497Y-44042D01*
X64897Y-43442D01*
X64897Y-43442D01*
X64897Y-43442D01*
X63575Y-42120D01*
X63575Y-42009D01*
X63528Y-41897D01*
X63443Y-41811D01*
X63331Y-41765D01*
X63209Y-41765D01*
X63097Y-41811D01*
X63011Y-41897D01*
X62965Y-42009D01*
X62965Y-42130D01*
X63011Y-42242D01*
X63097Y-42328D01*
X63209Y-42375D01*
X63320Y-42375D01*
X64642Y-43697D01*
X64642Y-43697D01*
X64642Y-43697D01*
X65190Y-44244D01*
X65190Y-47895D01*
X64875Y-48210D01*
X64875Y-46009D01*
X64828Y-45897D01*
X64743Y-45811D01*
X64631Y-45765D01*
X64530Y-45765D01*
X64530Y-45288D01*
X64467Y-45138D01*
X64352Y-45022D01*
X64201Y-44960D01*
X64038Y-44960D01*
X63888Y-45022D01*
X63772Y-45137D01*
X63710Y-45288D01*
X63710Y-45451D01*
X63772Y-45602D01*
X63887Y-45717D01*
X64038Y-45780D01*
X64201Y-45780D01*
X64352Y-45717D01*
X64467Y-45602D01*
X64530Y-45451D01*
X64530Y-45288D01*
X64530Y-45765D01*
X64509Y-45765D01*
X64397Y-45811D01*
X64318Y-45890D01*
X63821Y-45890D01*
X63743Y-45811D01*
X63631Y-45765D01*
X63509Y-45765D01*
X63397Y-45811D01*
X63311Y-45897D01*
X63265Y-46009D01*
X63265Y-46130D01*
X63311Y-46242D01*
X63397Y-46328D01*
X63509Y-46375D01*
X63630Y-46375D01*
X63742Y-46328D01*
X63821Y-46250D01*
X64318Y-46250D01*
X64397Y-46328D01*
X64509Y-46375D01*
X64630Y-46375D01*
X64742Y-46328D01*
X64828Y-46243D01*
X64875Y-46131D01*
X64875Y-46009D01*
X64875Y-48210D01*
X64492Y-48592D01*
X64453Y-48651D01*
X64440Y-48720D01*
X64440Y-49690D01*
X64294Y-49690D01*
X64250Y-49708D01*
X64250Y-48470D01*
X64245Y-48448D01*
X64309Y-48475D01*
X64430Y-48475D01*
X64542Y-48428D01*
X64628Y-48343D01*
X64675Y-48231D01*
X64675Y-48109D01*
X64628Y-47997D01*
X64543Y-47911D01*
X64431Y-47865D01*
X64309Y-47865D01*
X64249Y-47890D01*
X64144Y-47890D01*
X64032Y-47777D01*
X64038Y-47780D01*
X64201Y-47780D01*
X64352Y-47717D01*
X64467Y-47602D01*
X64530Y-47451D01*
X64530Y-47288D01*
X64467Y-47138D01*
X64352Y-47022D01*
X64201Y-46960D01*
X64038Y-46960D01*
X63888Y-47022D01*
X63772Y-47137D01*
X63710Y-47288D01*
X63710Y-47451D01*
X63712Y-47458D01*
X61800Y-45545D01*
X61800Y-40284D01*
X61734Y-40126D01*
X61613Y-40005D01*
X61455Y-39940D01*
X61284Y-39940D01*
X61126Y-40005D01*
X61005Y-40126D01*
X60940Y-40284D01*
X60940Y-40455D01*
X61005Y-40613D01*
X61126Y-40734D01*
X61284Y-40800D01*
X61455Y-40800D01*
X61613Y-40734D01*
X61734Y-40613D01*
X61800Y-40455D01*
X61800Y-40284D01*
X61800Y-45545D01*
X60850Y-44595D01*
X60850Y-43221D01*
X60928Y-43143D01*
X60975Y-43031D01*
X60975Y-42909D01*
X60928Y-42797D01*
X60843Y-42711D01*
X60800Y-42693D01*
X60800Y-40284D01*
X60734Y-40126D01*
X60613Y-40005D01*
X60455Y-39940D01*
X60284Y-39940D01*
X60126Y-40005D01*
X60005Y-40126D01*
X59940Y-40284D01*
X59940Y-40455D01*
X60005Y-40613D01*
X60126Y-40734D01*
X60284Y-40800D01*
X60455Y-40800D01*
X60613Y-40734D01*
X60734Y-40613D01*
X60800Y-40455D01*
X60800Y-40284D01*
X60800Y-42693D01*
X60731Y-42665D01*
X60609Y-42665D01*
X60497Y-42711D01*
X60411Y-42797D01*
X60375Y-42883D01*
X60331Y-42865D01*
X60209Y-42865D01*
X60097Y-42911D01*
X60011Y-42997D01*
X59965Y-43109D01*
X59965Y-43230D01*
X60011Y-43342D01*
X60090Y-43421D01*
X60090Y-44670D01*
X60103Y-44738D01*
X60142Y-44797D01*
X61235Y-45890D01*
X60575Y-45890D01*
X60575Y-45809D01*
X60528Y-45697D01*
X60443Y-45611D01*
X60331Y-45565D01*
X60209Y-45565D01*
X60097Y-45611D01*
X60011Y-45697D01*
X59965Y-45809D01*
X59965Y-45930D01*
X59991Y-45994D01*
X59970Y-45990D01*
X59800Y-45990D01*
X59800Y-40284D01*
X59734Y-40126D01*
X59613Y-40005D01*
X59455Y-39940D01*
X59284Y-39940D01*
X59126Y-40005D01*
X59005Y-40126D01*
X58940Y-40284D01*
X58940Y-40455D01*
X59005Y-40613D01*
X59126Y-40734D01*
X59284Y-40800D01*
X59455Y-40800D01*
X59613Y-40734D01*
X59734Y-40613D01*
X59800Y-40455D01*
X59800Y-40284D01*
X59800Y-45990D01*
X59570Y-45990D01*
X58800Y-45990D01*
X58800Y-40284D01*
X58734Y-40126D01*
X58613Y-40005D01*
X58455Y-39940D01*
X58284Y-39940D01*
X58126Y-40005D01*
X58005Y-40126D01*
X57940Y-40284D01*
X57940Y-40455D01*
X58005Y-40613D01*
X58126Y-40734D01*
X58284Y-40800D01*
X58455Y-40800D01*
X58613Y-40734D01*
X58734Y-40613D01*
X58800Y-40455D01*
X58800Y-40284D01*
X58800Y-45990D01*
X54944Y-45990D01*
X54197Y-45242D01*
X54139Y-45203D01*
X54231Y-45111D01*
X54257Y-45050D01*
X57195Y-45050D01*
X57265Y-45119D01*
X57265Y-45230D01*
X57311Y-45342D01*
X57397Y-45428D01*
X57509Y-45475D01*
X57630Y-45475D01*
X57742Y-45428D01*
X57828Y-45343D01*
X57875Y-45231D01*
X57875Y-45109D01*
X57828Y-44997D01*
X57800Y-44968D01*
X57800Y-40284D01*
X57734Y-40126D01*
X57613Y-40005D01*
X57455Y-39940D01*
X57284Y-39940D01*
X57126Y-40005D01*
X57005Y-40126D01*
X56940Y-40284D01*
X56940Y-40455D01*
X57005Y-40613D01*
X57126Y-40734D01*
X57284Y-40800D01*
X57455Y-40800D01*
X57613Y-40734D01*
X57734Y-40613D01*
X57800Y-40455D01*
X57800Y-40284D01*
X57800Y-44968D01*
X57743Y-44911D01*
X57631Y-44865D01*
X57519Y-44865D01*
X57397Y-44742D01*
X57338Y-44703D01*
X57270Y-44690D01*
X56875Y-44690D01*
X56875Y-42609D01*
X56828Y-42497D01*
X56800Y-42468D01*
X56800Y-40284D01*
X56734Y-40126D01*
X56613Y-40005D01*
X56455Y-39940D01*
X56284Y-39940D01*
X56126Y-40005D01*
X56005Y-40126D01*
X55940Y-40284D01*
X55940Y-40455D01*
X56005Y-40613D01*
X56126Y-40734D01*
X56284Y-40800D01*
X56455Y-40800D01*
X56613Y-40734D01*
X56734Y-40613D01*
X56800Y-40455D01*
X56800Y-40284D01*
X56800Y-42468D01*
X56743Y-42411D01*
X56631Y-42365D01*
X56509Y-42365D01*
X56397Y-42411D01*
X56318Y-42490D01*
X55800Y-42490D01*
X55800Y-40284D01*
X55734Y-40126D01*
X55613Y-40005D01*
X55455Y-39940D01*
X55284Y-39940D01*
X55126Y-40005D01*
X55005Y-40126D01*
X54940Y-40284D01*
X54940Y-40455D01*
X55005Y-40613D01*
X55126Y-40734D01*
X55284Y-40800D01*
X55455Y-40800D01*
X55613Y-40734D01*
X55734Y-40613D01*
X55800Y-40455D01*
X55800Y-40284D01*
X55800Y-42490D01*
X54800Y-42490D01*
X54800Y-40284D01*
X54734Y-40126D01*
X54613Y-40005D01*
X54455Y-39940D01*
X54284Y-39940D01*
X54126Y-40005D01*
X54005Y-40126D01*
X53940Y-40284D01*
X53940Y-40455D01*
X54005Y-40613D01*
X54126Y-40734D01*
X54284Y-40800D01*
X54455Y-40800D01*
X54613Y-40734D01*
X54734Y-40613D01*
X54800Y-40455D01*
X54800Y-40284D01*
X54800Y-42490D01*
X53800Y-42490D01*
X53800Y-40284D01*
X53734Y-40126D01*
X53613Y-40005D01*
X53455Y-39940D01*
X53284Y-39940D01*
X53126Y-40005D01*
X53005Y-40126D01*
X52940Y-40284D01*
X52940Y-40455D01*
X53005Y-40613D01*
X53126Y-40734D01*
X53284Y-40800D01*
X53455Y-40800D01*
X53613Y-40734D01*
X53734Y-40613D01*
X53800Y-40455D01*
X53800Y-40284D01*
X53800Y-42490D01*
X52800Y-42490D01*
X52800Y-40284D01*
X52734Y-40126D01*
X52613Y-40005D01*
X52455Y-39940D01*
X52284Y-39940D01*
X52126Y-40005D01*
X52005Y-40126D01*
X51940Y-40284D01*
X51940Y-40455D01*
X52005Y-40613D01*
X52126Y-40734D01*
X52284Y-40800D01*
X52455Y-40800D01*
X52613Y-40734D01*
X52734Y-40613D01*
X52800Y-40455D01*
X52800Y-40284D01*
X52800Y-42490D01*
X51800Y-42490D01*
X51800Y-40284D01*
X51734Y-40126D01*
X51613Y-40005D01*
X51455Y-39940D01*
X51284Y-39940D01*
X51126Y-40005D01*
X51005Y-40126D01*
X50940Y-40284D01*
X50940Y-40455D01*
X51005Y-40613D01*
X51126Y-40734D01*
X51284Y-40800D01*
X51455Y-40800D01*
X51613Y-40734D01*
X51734Y-40613D01*
X51800Y-40455D01*
X51800Y-40284D01*
X51800Y-42490D01*
X50924Y-42490D01*
X50924Y-40451D01*
X50913Y-40233D01*
X50851Y-40082D01*
X50755Y-40054D01*
X50685Y-40125D01*
X50685Y-39984D01*
X50657Y-39888D01*
X50451Y-39815D01*
X50233Y-39826D01*
X50082Y-39888D01*
X50054Y-39984D01*
X50370Y-40299D01*
X50685Y-39984D01*
X50685Y-40125D01*
X50440Y-40370D01*
X50755Y-40685D01*
X50851Y-40657D01*
X50924Y-40451D01*
X50924Y-42490D01*
X50685Y-42490D01*
X50685Y-40755D01*
X50370Y-40440D01*
X50299Y-40511D01*
X50299Y-40370D01*
X49984Y-40054D01*
X49888Y-40082D01*
X49815Y-40288D01*
X49826Y-40506D01*
X49888Y-40657D01*
X49984Y-40685D01*
X50299Y-40370D01*
X50299Y-40511D01*
X50054Y-40755D01*
X50082Y-40851D01*
X50288Y-40924D01*
X50506Y-40913D01*
X50657Y-40851D01*
X50685Y-40755D01*
X50685Y-42490D01*
X48021Y-42490D01*
X47943Y-42411D01*
X47831Y-42365D01*
X47709Y-42365D01*
X47597Y-42411D01*
X47511Y-42497D01*
X47465Y-42609D01*
X47465Y-42730D01*
X47511Y-42842D01*
X47597Y-42928D01*
X47683Y-42964D01*
X47665Y-43009D01*
X47665Y-43130D01*
X47711Y-43242D01*
X47797Y-43328D01*
X47909Y-43375D01*
X48030Y-43375D01*
X48142Y-43328D01*
X48221Y-43250D01*
X55918Y-43250D01*
X55997Y-43328D01*
X56109Y-43375D01*
X56230Y-43375D01*
X56342Y-43328D01*
X56428Y-43243D01*
X56475Y-43131D01*
X56475Y-43009D01*
X56450Y-42950D01*
X56509Y-42975D01*
X56630Y-42975D01*
X56742Y-42928D01*
X56828Y-42843D01*
X56875Y-42731D01*
X56875Y-42609D01*
X56875Y-44690D01*
X54257Y-44690D01*
X54231Y-44628D01*
X54111Y-44508D01*
X53955Y-44443D01*
X53785Y-44443D01*
X53628Y-44508D01*
X53508Y-44628D01*
X53483Y-44690D01*
X53257Y-44690D01*
X53231Y-44628D01*
X53111Y-44508D01*
X52955Y-44443D01*
X52785Y-44443D01*
X52628Y-44508D01*
X52508Y-44628D01*
X52443Y-44784D01*
X52443Y-44954D01*
X52508Y-45111D01*
X52586Y-45190D01*
X52544Y-45190D01*
X52097Y-44742D01*
X52038Y-44703D01*
X51970Y-44690D01*
X50200Y-44690D01*
X50200Y-43784D01*
X50134Y-43626D01*
X50013Y-43505D01*
X49855Y-43440D01*
X49684Y-43440D01*
X49526Y-43505D01*
X49405Y-43626D01*
X49340Y-43784D01*
X49340Y-43955D01*
X49405Y-44113D01*
X49526Y-44234D01*
X49684Y-44300D01*
X49855Y-44300D01*
X50013Y-44234D01*
X50134Y-44113D01*
X50200Y-43955D01*
X50200Y-43784D01*
X50200Y-44690D01*
X50160Y-44690D01*
X50134Y-44626D01*
X50013Y-44505D01*
X49855Y-44440D01*
X49684Y-44440D01*
X49526Y-44505D01*
X49405Y-44626D01*
X49340Y-44784D01*
X49340Y-44955D01*
X49405Y-45113D01*
X49526Y-45234D01*
X49684Y-45300D01*
X49855Y-45300D01*
X50013Y-45234D01*
X50134Y-45113D01*
X50160Y-45050D01*
X51895Y-45050D01*
X52342Y-45497D01*
X52401Y-45536D01*
X52470Y-45550D01*
X52586Y-45550D01*
X52508Y-45628D01*
X52443Y-45784D01*
X52443Y-45954D01*
X52508Y-46111D01*
X52628Y-46231D01*
X52784Y-46296D01*
X52954Y-46296D01*
X53111Y-46231D01*
X53231Y-46111D01*
X53296Y-45955D01*
X53296Y-45785D01*
X53231Y-45628D01*
X53153Y-45550D01*
X53408Y-45550D01*
X53431Y-45573D01*
X53391Y-45584D01*
X53318Y-45789D01*
X53329Y-46006D01*
X53391Y-46155D01*
X53486Y-46182D01*
X53764Y-45905D01*
X53799Y-45870D01*
X53799Y-45870D01*
X53870Y-45799D01*
X53940Y-45870D01*
X53976Y-45905D01*
X54253Y-46182D01*
X54348Y-46155D01*
X54414Y-45969D01*
X54742Y-46297D01*
X54742Y-46297D01*
X54781Y-46323D01*
X54801Y-46336D01*
X54801Y-46336D01*
X54870Y-46350D01*
X54870Y-46350D01*
X58235Y-46350D01*
X57542Y-47042D01*
X57503Y-47101D01*
X57490Y-47170D01*
X57490Y-47870D01*
X57503Y-47938D01*
X57542Y-47997D01*
X57810Y-48265D01*
X57709Y-48265D01*
X57597Y-48311D01*
X57511Y-48397D01*
X57465Y-48509D01*
X57465Y-48620D01*
X56475Y-49610D01*
X56475Y-49009D01*
X56428Y-48897D01*
X56343Y-48811D01*
X56231Y-48765D01*
X56109Y-48765D01*
X55997Y-48811D01*
X55918Y-48890D01*
X55675Y-48890D01*
X55675Y-47609D01*
X55628Y-47497D01*
X55550Y-47418D01*
X55550Y-47121D01*
X55628Y-47043D01*
X55675Y-46931D01*
X55675Y-46809D01*
X55628Y-46697D01*
X55543Y-46611D01*
X55431Y-46565D01*
X55309Y-46565D01*
X55197Y-46611D01*
X55111Y-46697D01*
X55065Y-46809D01*
X55065Y-46930D01*
X55111Y-47042D01*
X55190Y-47121D01*
X55190Y-47418D01*
X55111Y-47497D01*
X55075Y-47585D01*
X55075Y-47309D01*
X55028Y-47197D01*
X54943Y-47111D01*
X54831Y-47065D01*
X54709Y-47065D01*
X54597Y-47111D01*
X54518Y-47190D01*
X54421Y-47190D01*
X54331Y-47190D01*
X54308Y-47167D01*
X54348Y-47155D01*
X54421Y-46951D01*
X54410Y-46733D01*
X54348Y-46584D01*
X54253Y-46557D01*
X54182Y-46628D01*
X54182Y-46486D01*
X54155Y-46391D01*
X54099Y-46371D01*
X54155Y-46348D01*
X54182Y-46253D01*
X53870Y-45940D01*
X53799Y-46011D01*
X53557Y-46253D01*
X53584Y-46348D01*
X53640Y-46368D01*
X53584Y-46391D01*
X53557Y-46486D01*
X53870Y-46799D01*
X54182Y-46486D01*
X54182Y-46628D01*
X53976Y-46834D01*
X53940Y-46870D01*
X53870Y-46940D01*
X53799Y-46870D01*
X53764Y-46834D01*
X53486Y-46557D01*
X53391Y-46584D01*
X53318Y-46789D01*
X53329Y-47006D01*
X53391Y-47155D01*
X53431Y-47167D01*
X53408Y-47190D01*
X53370Y-47190D01*
X53301Y-47203D01*
X53296Y-47206D01*
X53296Y-46785D01*
X53231Y-46628D01*
X53111Y-46508D01*
X52955Y-46443D01*
X52785Y-46443D01*
X52628Y-46508D01*
X52508Y-46628D01*
X52443Y-46784D01*
X52443Y-46954D01*
X52508Y-47111D01*
X52628Y-47231D01*
X52784Y-47296D01*
X52954Y-47296D01*
X53111Y-47231D01*
X53231Y-47111D01*
X53296Y-46955D01*
X53296Y-46785D01*
X53296Y-47206D01*
X53242Y-47242D01*
X53016Y-47469D01*
X52955Y-47443D01*
X52785Y-47443D01*
X52628Y-47508D01*
X52508Y-47628D01*
X52443Y-47784D01*
X52443Y-47954D01*
X52508Y-48111D01*
X52628Y-48231D01*
X52784Y-48296D01*
X52954Y-48296D01*
X53111Y-48231D01*
X53231Y-48111D01*
X53296Y-47955D01*
X53296Y-47785D01*
X53271Y-47723D01*
X53381Y-47613D01*
X53318Y-47789D01*
X53329Y-48006D01*
X53391Y-48155D01*
X53486Y-48182D01*
X53764Y-47905D01*
X53799Y-47870D01*
X53799Y-47870D01*
X53870Y-47799D01*
X53940Y-47870D01*
X53940Y-47870D01*
X53976Y-47905D01*
X54253Y-48182D01*
X54348Y-48155D01*
X54421Y-47951D01*
X54410Y-47733D01*
X54348Y-47584D01*
X54308Y-47573D01*
X54331Y-47550D01*
X54518Y-47550D01*
X54597Y-47628D01*
X54709Y-47675D01*
X54830Y-47675D01*
X54942Y-47628D01*
X55028Y-47543D01*
X55075Y-47431D01*
X55075Y-47309D01*
X55075Y-47585D01*
X55065Y-47609D01*
X55065Y-47730D01*
X55111Y-47842D01*
X55197Y-47928D01*
X55309Y-47975D01*
X55430Y-47975D01*
X55542Y-47928D01*
X55628Y-47843D01*
X55675Y-47731D01*
X55675Y-47609D01*
X55675Y-48890D01*
X55670Y-48890D01*
X55601Y-48903D01*
X55566Y-48927D01*
X55542Y-48942D01*
X55420Y-49065D01*
X55309Y-49065D01*
X55197Y-49111D01*
X55111Y-49197D01*
X55065Y-49309D01*
X55065Y-49430D01*
X55111Y-49542D01*
X55197Y-49628D01*
X55309Y-49675D01*
X55379Y-49675D01*
X55365Y-49709D01*
X55365Y-49820D01*
X54995Y-50190D01*
X54975Y-50190D01*
X54331Y-50190D01*
X54308Y-50167D01*
X54348Y-50155D01*
X54399Y-50013D01*
X54411Y-50042D01*
X54497Y-50128D01*
X54609Y-50175D01*
X54730Y-50175D01*
X54842Y-50128D01*
X54928Y-50043D01*
X54975Y-49931D01*
X54975Y-49809D01*
X54928Y-49697D01*
X54850Y-49618D01*
X54850Y-49221D01*
X54928Y-49143D01*
X54975Y-49031D01*
X54975Y-48909D01*
X54928Y-48797D01*
X54843Y-48711D01*
X54731Y-48665D01*
X54609Y-48665D01*
X54497Y-48711D01*
X54421Y-48787D01*
X54413Y-48795D01*
X54410Y-48733D01*
X54348Y-48584D01*
X54253Y-48557D01*
X54182Y-48628D01*
X54182Y-48486D01*
X54155Y-48391D01*
X54099Y-48371D01*
X54155Y-48348D01*
X54182Y-48253D01*
X53870Y-47940D01*
X53557Y-48253D01*
X53584Y-48348D01*
X53640Y-48368D01*
X53584Y-48391D01*
X53557Y-48486D01*
X53870Y-48799D01*
X54182Y-48486D01*
X54182Y-48628D01*
X53940Y-48870D01*
X54253Y-49182D01*
X54348Y-49155D01*
X54380Y-49066D01*
X54411Y-49142D01*
X54490Y-49221D01*
X54490Y-49618D01*
X54411Y-49697D01*
X54403Y-49717D01*
X54348Y-49584D01*
X54253Y-49557D01*
X54182Y-49628D01*
X54182Y-49486D01*
X54155Y-49391D01*
X54099Y-49371D01*
X54155Y-49348D01*
X54182Y-49253D01*
X53870Y-48940D01*
X53799Y-49011D01*
X53799Y-48870D01*
X53486Y-48557D01*
X53391Y-48584D01*
X53318Y-48789D01*
X53329Y-49006D01*
X53391Y-49155D01*
X53486Y-49182D01*
X53799Y-48870D01*
X53799Y-49011D01*
X53557Y-49253D01*
X53584Y-49348D01*
X53640Y-49368D01*
X53584Y-49391D01*
X53557Y-49486D01*
X53870Y-49799D01*
X54182Y-49486D01*
X54182Y-49628D01*
X53976Y-49834D01*
X53940Y-49870D01*
X53870Y-49940D01*
X53799Y-49870D01*
X53764Y-49834D01*
X53486Y-49557D01*
X53391Y-49584D01*
X53318Y-49789D01*
X53329Y-50006D01*
X53391Y-50155D01*
X53431Y-50167D01*
X53408Y-50190D01*
X53370Y-50190D01*
X53301Y-50203D01*
X53296Y-50206D01*
X53296Y-49785D01*
X53296Y-48785D01*
X53231Y-48628D01*
X53111Y-48508D01*
X52955Y-48443D01*
X52785Y-48443D01*
X52628Y-48508D01*
X52508Y-48628D01*
X52443Y-48784D01*
X52443Y-48954D01*
X52508Y-49111D01*
X52628Y-49231D01*
X52784Y-49296D01*
X52954Y-49296D01*
X53111Y-49231D01*
X53231Y-49111D01*
X53296Y-48955D01*
X53296Y-48785D01*
X53296Y-49785D01*
X53231Y-49628D01*
X53111Y-49508D01*
X52955Y-49443D01*
X52785Y-49443D01*
X52628Y-49508D01*
X52508Y-49628D01*
X52443Y-49784D01*
X52443Y-49954D01*
X52508Y-50111D01*
X52628Y-50231D01*
X52784Y-50296D01*
X52954Y-50296D01*
X53111Y-50231D01*
X53231Y-50111D01*
X53296Y-49955D01*
X53296Y-49785D01*
X53296Y-50206D01*
X53242Y-50242D01*
X53016Y-50469D01*
X52955Y-50443D01*
X52785Y-50443D01*
X52628Y-50508D01*
X52508Y-50628D01*
X52443Y-50784D01*
X52443Y-50954D01*
X52508Y-51111D01*
X52628Y-51231D01*
X52784Y-51296D01*
X52954Y-51296D01*
X53111Y-51231D01*
X53231Y-51111D01*
X53296Y-50955D01*
X53296Y-50785D01*
X53271Y-50723D01*
X53381Y-50613D01*
X53318Y-50789D01*
X53329Y-51006D01*
X53391Y-51155D01*
X53486Y-51182D01*
X53764Y-50905D01*
X53799Y-50870D01*
X53799Y-50870D01*
X53870Y-50799D01*
X53940Y-50870D01*
X53940Y-50870D01*
X53976Y-50905D01*
X54253Y-51182D01*
X54348Y-51155D01*
X54421Y-50951D01*
X54410Y-50733D01*
X54348Y-50584D01*
X54308Y-50573D01*
X54331Y-50550D01*
X55070Y-50550D01*
X55138Y-50536D01*
X55197Y-50497D01*
X55619Y-50075D01*
X55730Y-50075D01*
X55842Y-50028D01*
X55928Y-49943D01*
X55975Y-49831D01*
X55975Y-49709D01*
X55928Y-49597D01*
X55843Y-49511D01*
X55731Y-49465D01*
X55660Y-49465D01*
X55675Y-49431D01*
X55675Y-49319D01*
X55744Y-49250D01*
X55918Y-49250D01*
X55997Y-49328D01*
X56109Y-49375D01*
X56230Y-49375D01*
X56342Y-49328D01*
X56428Y-49243D01*
X56475Y-49131D01*
X56475Y-49009D01*
X56475Y-49610D01*
X55942Y-50142D01*
X55903Y-50201D01*
X55890Y-50270D01*
X55890Y-50518D01*
X55811Y-50597D01*
X55765Y-50709D01*
X55765Y-50830D01*
X55811Y-50942D01*
X55897Y-51028D01*
X56009Y-51075D01*
X56130Y-51075D01*
X56242Y-51028D01*
X56304Y-50967D01*
X56304Y-51119D01*
X56199Y-51163D01*
X56057Y-51304D01*
X55980Y-51489D01*
X55980Y-51690D01*
X56056Y-51875D01*
X56198Y-52017D01*
X56383Y-52094D01*
X56584Y-52094D01*
X56769Y-52018D01*
X56911Y-51876D01*
X56988Y-51691D01*
X56988Y-51490D01*
X56911Y-51305D01*
X56770Y-51163D01*
X56664Y-51119D01*
X56664Y-50530D01*
X58297Y-48897D01*
X58297Y-48897D01*
X58336Y-48838D01*
X58350Y-48770D01*
X58350Y-48770D01*
X58350Y-48504D01*
X58790Y-48944D01*
X58790Y-50570D01*
X58803Y-50638D01*
X58842Y-50697D01*
X60542Y-52397D01*
X60601Y-52436D01*
X60670Y-52450D01*
X61718Y-52450D01*
X61797Y-52528D01*
X61909Y-52575D01*
X62030Y-52575D01*
X62142Y-52528D01*
X62228Y-52443D01*
X62275Y-52331D01*
X62275Y-52209D01*
X62228Y-52097D01*
X62143Y-52011D01*
X62031Y-51965D01*
X61909Y-51965D01*
X61797Y-52011D01*
X61718Y-52090D01*
X60744Y-52090D01*
X60404Y-51750D01*
X61418Y-51750D01*
X61497Y-51828D01*
X61609Y-51875D01*
X61730Y-51875D01*
X61842Y-51828D01*
X61928Y-51743D01*
X61975Y-51631D01*
X61975Y-51509D01*
X61928Y-51397D01*
X61843Y-51311D01*
X61731Y-51265D01*
X61660Y-51265D01*
X61675Y-51231D01*
X61675Y-51109D01*
X61628Y-50997D01*
X61543Y-50911D01*
X61431Y-50865D01*
X61360Y-50865D01*
X61375Y-50831D01*
X61375Y-50709D01*
X61328Y-50597D01*
X61243Y-50511D01*
X61131Y-50465D01*
X61060Y-50465D01*
X61075Y-50431D01*
X61075Y-50309D01*
X61028Y-50197D01*
X60943Y-50111D01*
X60831Y-50065D01*
X60719Y-50065D01*
X60550Y-49895D01*
X60550Y-48781D01*
X60597Y-48828D01*
X60709Y-48875D01*
X60830Y-48875D01*
X60942Y-48828D01*
X61028Y-48743D01*
X61075Y-48631D01*
X61075Y-48519D01*
X61497Y-48097D01*
X61497Y-48097D01*
X61536Y-48038D01*
X61550Y-47970D01*
X61550Y-47970D01*
X61550Y-46504D01*
X61590Y-46544D01*
X61590Y-46670D01*
X61590Y-47270D01*
X61603Y-47338D01*
X61642Y-47397D01*
X62510Y-48265D01*
X62509Y-48265D01*
X62397Y-48311D01*
X62311Y-48397D01*
X62265Y-48509D01*
X62265Y-48630D01*
X62311Y-48742D01*
X62397Y-48828D01*
X62509Y-48875D01*
X62620Y-48875D01*
X62690Y-48944D01*
X62690Y-50995D01*
X62480Y-51204D01*
X62445Y-51190D01*
X62294Y-51190D01*
X62155Y-51247D01*
X62048Y-51354D01*
X61990Y-51494D01*
X61990Y-51645D01*
X62047Y-51785D01*
X62154Y-51892D01*
X62294Y-51950D01*
X62445Y-51950D01*
X62585Y-51892D01*
X62690Y-51787D01*
X62690Y-51918D01*
X62611Y-51997D01*
X62565Y-52109D01*
X62565Y-52230D01*
X62611Y-52342D01*
X62697Y-52428D01*
X62809Y-52475D01*
X62910Y-52475D01*
X62142Y-53242D01*
X62103Y-53301D01*
X62090Y-53370D01*
X62090Y-54695D01*
X61542Y-55242D01*
X59825Y-56960D01*
X59825Y-56909D01*
X59778Y-56797D01*
X59693Y-56711D01*
X59581Y-56665D01*
X59519Y-56665D01*
X58924Y-56070D01*
X58924Y-55351D01*
X58913Y-55133D01*
X58884Y-55061D01*
X58884Y-54249D01*
X58884Y-51690D01*
X58874Y-51441D01*
X58798Y-51258D01*
X58695Y-51221D01*
X58624Y-51292D01*
X58624Y-51151D01*
X58588Y-51048D01*
X58355Y-50962D01*
X58107Y-50971D01*
X57923Y-51048D01*
X57887Y-51151D01*
X58255Y-51519D01*
X58624Y-51151D01*
X58624Y-51292D01*
X58326Y-51590D01*
X58695Y-51959D01*
X58798Y-51922D01*
X58884Y-51690D01*
X58884Y-54249D01*
X58874Y-54000D01*
X58798Y-53817D01*
X58695Y-53780D01*
X58624Y-53851D01*
X58624Y-53710D01*
X58624Y-52030D01*
X58255Y-51661D01*
X58185Y-51731D01*
X58185Y-51590D01*
X57816Y-51221D01*
X57713Y-51258D01*
X57627Y-51491D01*
X57637Y-51739D01*
X57713Y-51922D01*
X57816Y-51959D01*
X58185Y-51590D01*
X58185Y-51731D01*
X57887Y-52030D01*
X57923Y-52133D01*
X58156Y-52218D01*
X58404Y-52209D01*
X58588Y-52133D01*
X58624Y-52030D01*
X58624Y-53710D01*
X58588Y-53607D01*
X58355Y-53521D01*
X58107Y-53530D01*
X57923Y-53607D01*
X57887Y-53710D01*
X58255Y-54078D01*
X58624Y-53710D01*
X58624Y-53851D01*
X58326Y-54149D01*
X58695Y-54518D01*
X58798Y-54481D01*
X58884Y-54249D01*
X58884Y-55061D01*
X58851Y-54982D01*
X58755Y-54954D01*
X58685Y-55025D01*
X58685Y-54884D01*
X58657Y-54788D01*
X58495Y-54730D01*
X58588Y-54692D01*
X58624Y-54589D01*
X58255Y-54220D01*
X58185Y-54291D01*
X58185Y-54149D01*
X57816Y-53780D01*
X57713Y-53817D01*
X57627Y-54050D01*
X57637Y-54298D01*
X57713Y-54481D01*
X57816Y-54518D01*
X58185Y-54149D01*
X58185Y-54291D01*
X57887Y-54589D01*
X57923Y-54692D01*
X58130Y-54768D01*
X58082Y-54788D01*
X58054Y-54884D01*
X58370Y-55199D01*
X58685Y-54884D01*
X58685Y-55025D01*
X58440Y-55270D01*
X58755Y-55585D01*
X58851Y-55557D01*
X58924Y-55351D01*
X58924Y-56070D01*
X58875Y-56020D01*
X58875Y-55909D01*
X58828Y-55797D01*
X58743Y-55711D01*
X58677Y-55684D01*
X58685Y-55655D01*
X58370Y-55340D01*
X58299Y-55411D01*
X58299Y-55270D01*
X57984Y-54954D01*
X57888Y-54982D01*
X57815Y-55188D01*
X57826Y-55406D01*
X57888Y-55557D01*
X57984Y-55585D01*
X58299Y-55270D01*
X58299Y-55411D01*
X58054Y-55655D01*
X58082Y-55751D01*
X58288Y-55824D01*
X58300Y-55824D01*
X58265Y-55909D01*
X58265Y-56030D01*
X58311Y-56142D01*
X58397Y-56228D01*
X58509Y-56275D01*
X58620Y-56275D01*
X59226Y-56881D01*
X59215Y-56909D01*
X59215Y-57030D01*
X59261Y-57142D01*
X59347Y-57228D01*
X59459Y-57275D01*
X59510Y-57275D01*
X59495Y-57290D01*
X57800Y-57290D01*
X57800Y-55184D01*
X57734Y-55026D01*
X57613Y-54905D01*
X57455Y-54840D01*
X57284Y-54840D01*
X57126Y-54905D01*
X57005Y-55026D01*
X56988Y-55068D01*
X56988Y-54049D01*
X56911Y-53864D01*
X56770Y-53722D01*
X56584Y-53645D01*
X56384Y-53645D01*
X56199Y-53722D01*
X56057Y-53863D01*
X55980Y-54048D01*
X55980Y-54249D01*
X56056Y-54434D01*
X56198Y-54576D01*
X56383Y-54653D01*
X56584Y-54653D01*
X56769Y-54577D01*
X56911Y-54435D01*
X56988Y-54250D01*
X56988Y-54049D01*
X56988Y-55068D01*
X56940Y-55184D01*
X56940Y-55355D01*
X57005Y-55513D01*
X57126Y-55634D01*
X57284Y-55700D01*
X57455Y-55700D01*
X57613Y-55634D01*
X57734Y-55513D01*
X57800Y-55355D01*
X57800Y-55184D01*
X57800Y-57290D01*
X56800Y-57290D01*
X56800Y-55544D01*
X56800Y-54944D01*
X56780Y-54896D01*
X56743Y-54859D01*
X56696Y-54840D01*
X56644Y-54840D01*
X56044Y-54840D01*
X55996Y-54859D01*
X55959Y-54896D01*
X55940Y-54944D01*
X55940Y-54995D01*
X55940Y-55595D01*
X55959Y-55643D01*
X55996Y-55680D01*
X56044Y-55700D01*
X56095Y-55700D01*
X56695Y-55700D01*
X56743Y-55680D01*
X56780Y-55643D01*
X56800Y-55596D01*
X56800Y-55544D01*
X56800Y-57290D01*
X55275Y-57290D01*
X55275Y-56709D01*
X55228Y-56597D01*
X55143Y-56511D01*
X55031Y-56465D01*
X54909Y-56465D01*
X54797Y-56511D01*
X54718Y-56590D01*
X54421Y-56590D01*
X54421Y-53951D01*
X54421Y-52951D01*
X54421Y-51951D01*
X54410Y-51733D01*
X54348Y-51584D01*
X54253Y-51557D01*
X54182Y-51628D01*
X54182Y-51486D01*
X54155Y-51391D01*
X54099Y-51371D01*
X54155Y-51348D01*
X54182Y-51253D01*
X53870Y-50940D01*
X53557Y-51253D01*
X53584Y-51348D01*
X53640Y-51368D01*
X53584Y-51391D01*
X53557Y-51486D01*
X53870Y-51799D01*
X54182Y-51486D01*
X54182Y-51628D01*
X53940Y-51870D01*
X54253Y-52182D01*
X54348Y-52155D01*
X54421Y-51951D01*
X54421Y-52951D01*
X54410Y-52733D01*
X54348Y-52584D01*
X54253Y-52557D01*
X54182Y-52628D01*
X54182Y-52486D01*
X54155Y-52391D01*
X54099Y-52371D01*
X54155Y-52348D01*
X54182Y-52253D01*
X53870Y-51940D01*
X53799Y-52011D01*
X53799Y-51870D01*
X53486Y-51557D01*
X53391Y-51584D01*
X53318Y-51789D01*
X53329Y-52006D01*
X53391Y-52155D01*
X53486Y-52182D01*
X53799Y-51870D01*
X53799Y-52011D01*
X53557Y-52253D01*
X53584Y-52348D01*
X53640Y-52368D01*
X53584Y-52391D01*
X53557Y-52486D01*
X53870Y-52799D01*
X54182Y-52486D01*
X54182Y-52628D01*
X53940Y-52870D01*
X54253Y-53182D01*
X54348Y-53155D01*
X54421Y-52951D01*
X54421Y-53951D01*
X54410Y-53733D01*
X54348Y-53584D01*
X54253Y-53557D01*
X54182Y-53628D01*
X54182Y-53486D01*
X54155Y-53391D01*
X54099Y-53371D01*
X54155Y-53348D01*
X54182Y-53253D01*
X53870Y-52940D01*
X53799Y-53011D01*
X53799Y-52870D01*
X53486Y-52557D01*
X53391Y-52584D01*
X53318Y-52789D01*
X53329Y-53006D01*
X53391Y-53155D01*
X53486Y-53182D01*
X53799Y-52870D01*
X53799Y-53011D01*
X53557Y-53253D01*
X53584Y-53348D01*
X53640Y-53368D01*
X53584Y-53391D01*
X53557Y-53486D01*
X53870Y-53799D01*
X54182Y-53486D01*
X54182Y-53628D01*
X53940Y-53870D01*
X54253Y-54182D01*
X54348Y-54155D01*
X54421Y-53951D01*
X54421Y-56590D01*
X54275Y-56590D01*
X54275Y-54709D01*
X54228Y-54597D01*
X54182Y-54551D01*
X54182Y-54253D01*
X53870Y-53940D01*
X53799Y-54011D01*
X53799Y-53870D01*
X53486Y-53557D01*
X53391Y-53584D01*
X53318Y-53789D01*
X53329Y-54006D01*
X53391Y-54155D01*
X53486Y-54182D01*
X53799Y-53870D01*
X53799Y-54011D01*
X53557Y-54253D01*
X53584Y-54348D01*
X53789Y-54421D01*
X54006Y-54410D01*
X54155Y-54348D01*
X54182Y-54253D01*
X54182Y-54551D01*
X54143Y-54511D01*
X54031Y-54465D01*
X53909Y-54465D01*
X53797Y-54511D01*
X53718Y-54590D01*
X53296Y-54590D01*
X53296Y-53785D01*
X53296Y-52785D01*
X53296Y-51785D01*
X53231Y-51628D01*
X53111Y-51508D01*
X52955Y-51443D01*
X52785Y-51443D01*
X52628Y-51508D01*
X52508Y-51628D01*
X52443Y-51784D01*
X52443Y-51954D01*
X52508Y-52111D01*
X52628Y-52231D01*
X52784Y-52296D01*
X52954Y-52296D01*
X53111Y-52231D01*
X53231Y-52111D01*
X53296Y-51955D01*
X53296Y-51785D01*
X53296Y-52785D01*
X53231Y-52628D01*
X53111Y-52508D01*
X52955Y-52443D01*
X52785Y-52443D01*
X52628Y-52508D01*
X52508Y-52628D01*
X52443Y-52784D01*
X52443Y-52954D01*
X52508Y-53111D01*
X52628Y-53231D01*
X52784Y-53296D01*
X52954Y-53296D01*
X53111Y-53231D01*
X53231Y-53111D01*
X53296Y-52955D01*
X53296Y-52785D01*
X53296Y-53785D01*
X53231Y-53628D01*
X53111Y-53508D01*
X52955Y-53443D01*
X52785Y-53443D01*
X52628Y-53508D01*
X52508Y-53628D01*
X52443Y-53784D01*
X52443Y-53954D01*
X52508Y-54111D01*
X52628Y-54231D01*
X52784Y-54296D01*
X52954Y-54296D01*
X53111Y-54231D01*
X53231Y-54111D01*
X53296Y-53955D01*
X53296Y-53785D01*
X53296Y-54590D01*
X52544Y-54590D01*
X51300Y-53345D01*
X51300Y-51784D01*
X51300Y-51784D01*
X51300Y-51144D01*
X51300Y-50544D01*
X51280Y-50496D01*
X51243Y-50459D01*
X51196Y-50440D01*
X51144Y-50440D01*
X50544Y-50440D01*
X50496Y-50459D01*
X50459Y-50496D01*
X50440Y-50544D01*
X50440Y-50595D01*
X50440Y-51195D01*
X50459Y-51243D01*
X50496Y-51280D01*
X50544Y-51300D01*
X50595Y-51300D01*
X51195Y-51300D01*
X51243Y-51280D01*
X51280Y-51243D01*
X51300Y-51196D01*
X51300Y-51144D01*
X51300Y-51784D01*
X51234Y-51626D01*
X51113Y-51505D01*
X50955Y-51440D01*
X50784Y-51440D01*
X50626Y-51505D01*
X50505Y-51626D01*
X50440Y-51784D01*
X50440Y-51955D01*
X50505Y-52113D01*
X50626Y-52234D01*
X50784Y-52300D01*
X50955Y-52300D01*
X51113Y-52234D01*
X51234Y-52113D01*
X51300Y-51955D01*
X51300Y-51784D01*
X51300Y-53345D01*
X50200Y-52245D01*
X50200Y-46144D01*
X50200Y-45544D01*
X50180Y-45496D01*
X50143Y-45459D01*
X50096Y-45440D01*
X50044Y-45440D01*
X49444Y-45440D01*
X49396Y-45459D01*
X49359Y-45496D01*
X49340Y-45544D01*
X49340Y-45595D01*
X49340Y-46195D01*
X49359Y-46243D01*
X49396Y-46280D01*
X49444Y-46300D01*
X49495Y-46300D01*
X50095Y-46300D01*
X50143Y-46280D01*
X50180Y-46243D01*
X50200Y-46196D01*
X50200Y-46144D01*
X50200Y-52245D01*
X49975Y-52020D01*
X49975Y-51909D01*
X49928Y-51797D01*
X49843Y-51711D01*
X49731Y-51665D01*
X49609Y-51665D01*
X49497Y-51711D01*
X49411Y-51797D01*
X49365Y-51909D01*
X49365Y-52030D01*
X49411Y-52142D01*
X49497Y-52228D01*
X49609Y-52275D01*
X49720Y-52275D01*
X52342Y-54897D01*
X52342Y-54897D01*
X52381Y-54923D01*
X52401Y-54936D01*
X52401Y-54936D01*
X52470Y-54950D01*
X52470Y-54950D01*
X53718Y-54950D01*
X53797Y-55028D01*
X53909Y-55075D01*
X54030Y-55075D01*
X54142Y-55028D01*
X54228Y-54943D01*
X54275Y-54831D01*
X54275Y-54709D01*
X54275Y-56590D01*
X53121Y-56590D01*
X53043Y-56511D01*
X52931Y-56465D01*
X52809Y-56465D01*
X52697Y-56511D01*
X52611Y-56597D01*
X52565Y-56709D01*
X52565Y-56830D01*
X52611Y-56942D01*
X52697Y-57028D01*
X52809Y-57075D01*
X52930Y-57075D01*
X53042Y-57028D01*
X53121Y-56950D01*
X54718Y-56950D01*
X54797Y-57028D01*
X54909Y-57075D01*
X55030Y-57075D01*
X55142Y-57028D01*
X55228Y-56943D01*
X55275Y-56831D01*
X55275Y-56709D01*
X55275Y-57290D01*
X51270Y-57290D01*
X51201Y-57303D01*
X51142Y-57342D01*
X50545Y-57940D01*
X50044Y-57940D01*
X49996Y-57959D01*
X49959Y-57996D01*
X49940Y-58044D01*
X49940Y-58095D01*
X49940Y-58695D01*
X49959Y-58743D01*
X49996Y-58780D01*
X50044Y-58800D01*
X50095Y-58800D01*
X50695Y-58800D01*
X50743Y-58780D01*
X50780Y-58743D01*
X50800Y-58696D01*
X50800Y-58644D01*
X50800Y-58194D01*
X51344Y-57650D01*
X51835Y-57650D01*
X51519Y-57966D01*
X51455Y-57940D01*
X51284Y-57940D01*
X51126Y-58005D01*
X51005Y-58126D01*
X50940Y-58284D01*
X50940Y-58455D01*
X51005Y-58613D01*
X51126Y-58734D01*
X51284Y-58800D01*
X51455Y-58800D01*
X51613Y-58734D01*
X51734Y-58613D01*
X51800Y-58455D01*
X51800Y-58284D01*
X51773Y-58220D01*
X52144Y-57850D01*
X52635Y-57850D01*
X52519Y-57966D01*
X52455Y-57940D01*
X52284Y-57940D01*
X52126Y-58005D01*
X52005Y-58126D01*
X51940Y-58284D01*
X51940Y-58455D01*
X52005Y-58613D01*
X52126Y-58734D01*
X52284Y-58800D01*
X52455Y-58800D01*
X52613Y-58734D01*
X52734Y-58613D01*
X52800Y-58455D01*
X52800Y-58284D01*
X52773Y-58220D01*
X52944Y-58050D01*
X53081Y-58050D01*
X53005Y-58126D01*
X52940Y-58284D01*
X52940Y-58455D01*
X53005Y-58613D01*
X53126Y-58734D01*
X53284Y-58800D01*
X53455Y-58800D01*
X53613Y-58734D01*
X53734Y-58613D01*
X53800Y-58455D01*
X53800Y-58284D01*
X53734Y-58126D01*
X53658Y-58050D01*
X54081Y-58050D01*
X54005Y-58126D01*
X53940Y-58284D01*
X53940Y-58455D01*
X54005Y-58613D01*
X54126Y-58734D01*
X54284Y-58800D01*
X54455Y-58800D01*
X54613Y-58734D01*
X54734Y-58613D01*
X54800Y-58455D01*
X54800Y-58284D01*
X54734Y-58126D01*
X54658Y-58050D01*
X55081Y-58050D01*
X55005Y-58126D01*
X54940Y-58284D01*
X54940Y-58455D01*
X55005Y-58613D01*
X55126Y-58734D01*
X55284Y-58800D01*
X55455Y-58800D01*
X55613Y-58734D01*
X55734Y-58613D01*
X55800Y-58455D01*
X55800Y-58284D01*
X55734Y-58126D01*
X55658Y-58050D01*
X56081Y-58050D01*
X56005Y-58126D01*
X55940Y-58284D01*
X55940Y-58455D01*
X56005Y-58613D01*
X56126Y-58734D01*
X56284Y-58800D01*
X56455Y-58800D01*
X56613Y-58734D01*
X56734Y-58613D01*
X56800Y-58455D01*
X56800Y-58284D01*
X56734Y-58126D01*
X56658Y-58050D01*
X57081Y-58050D01*
X57005Y-58126D01*
X56940Y-58284D01*
X56940Y-58455D01*
X57005Y-58613D01*
X57126Y-58734D01*
X57284Y-58800D01*
X57455Y-58800D01*
X57613Y-58734D01*
X57734Y-58613D01*
X57800Y-58455D01*
X57800Y-58284D01*
X57734Y-58126D01*
X57658Y-58050D01*
X58081Y-58050D01*
X58005Y-58126D01*
X57940Y-58284D01*
X57940Y-58455D01*
X58005Y-58613D01*
X58126Y-58734D01*
X58284Y-58800D01*
X58455Y-58800D01*
X58613Y-58734D01*
X58734Y-58613D01*
X58800Y-58455D01*
X58800Y-58284D01*
X58734Y-58126D01*
X58658Y-58050D01*
X59081Y-58050D01*
X59005Y-58126D01*
X58940Y-58284D01*
X58940Y-58455D01*
X59005Y-58613D01*
X59126Y-58734D01*
X59284Y-58800D01*
X59455Y-58800D01*
X59613Y-58734D01*
X59734Y-58613D01*
X59800Y-58455D01*
X59800Y-58284D01*
X59734Y-58126D01*
X59658Y-58050D01*
X60081Y-58050D01*
X60005Y-58126D01*
X59940Y-58284D01*
X59940Y-58455D01*
X60005Y-58613D01*
X60126Y-58734D01*
X60284Y-58800D01*
X60455Y-58800D01*
X60613Y-58734D01*
X60734Y-58613D01*
X60800Y-58455D01*
X60800Y-58284D01*
X60734Y-58126D01*
X60658Y-58050D01*
X61081Y-58050D01*
X61005Y-58126D01*
X60940Y-58284D01*
X60940Y-58455D01*
X61005Y-58613D01*
X61126Y-58734D01*
X61284Y-58800D01*
X61455Y-58800D01*
X61613Y-58734D01*
X61734Y-58613D01*
X61800Y-58455D01*
X61800Y-58284D01*
X61734Y-58126D01*
X61658Y-58050D01*
X61970Y-58050D01*
X62038Y-58036D01*
X62097Y-57997D01*
X65297Y-54797D01*
X65297Y-54797D01*
X65323Y-54758D01*
X65336Y-54738D01*
X65336Y-54738D01*
X65350Y-54670D01*
X65350Y-54670D01*
X65350Y-54458D01*
X65376Y-54484D01*
X65534Y-54550D01*
X65705Y-54550D01*
X65863Y-54484D01*
X65984Y-54363D01*
X66050Y-54205D01*
X66050Y-54034D01*
X66050Y-58081D01*
X66005Y-58126D01*
X65940Y-58284D01*
X65940Y-58455D01*
X66005Y-58613D01*
X66126Y-58734D01*
X66284Y-58800D01*
X66455Y-58800D01*
X66613Y-58734D01*
X66734Y-58613D01*
X66800Y-58455D01*
X66800Y-58284D01*
X66800Y-58820D01*
X65800Y-58820D01*
X65800Y-58284D01*
X65734Y-58126D01*
X65613Y-58005D01*
X65455Y-57940D01*
X65284Y-57940D01*
X65126Y-58005D01*
X65005Y-58126D01*
X64940Y-58284D01*
X64940Y-58455D01*
X65005Y-58613D01*
X65126Y-58734D01*
X65284Y-58800D01*
X65455Y-58800D01*
X65613Y-58734D01*
X65734Y-58613D01*
X65800Y-58455D01*
X65800Y-58284D01*
X65800Y-58820D01*
X64800Y-58820D01*
X64800Y-58284D01*
X64734Y-58126D01*
X64613Y-58005D01*
X64455Y-57940D01*
X64284Y-57940D01*
X64126Y-58005D01*
X64005Y-58126D01*
X63940Y-58284D01*
X63940Y-58455D01*
X64005Y-58613D01*
X64126Y-58734D01*
X64284Y-58800D01*
X64455Y-58800D01*
X64613Y-58734D01*
X64734Y-58613D01*
X64800Y-58455D01*
X64800Y-58284D01*
X64800Y-58820D01*
X63800Y-58820D01*
X63800Y-58284D01*
X63734Y-58126D01*
X63613Y-58005D01*
X63455Y-57940D01*
X63284Y-57940D01*
X63126Y-58005D01*
X63005Y-58126D01*
X62940Y-58284D01*
X62940Y-58455D01*
X63005Y-58613D01*
X63126Y-58734D01*
X63284Y-58800D01*
X63455Y-58800D01*
X63613Y-58734D01*
X63734Y-58613D01*
X63800Y-58455D01*
X63800Y-58284D01*
X63800Y-58820D01*
X62800Y-58820D01*
X62800Y-58284D01*
X62734Y-58126D01*
X62613Y-58005D01*
X62455Y-57940D01*
X62284Y-57940D01*
X62126Y-58005D01*
X62005Y-58126D01*
X61940Y-58284D01*
X61940Y-58455D01*
X62005Y-58613D01*
X62126Y-58734D01*
X62284Y-58800D01*
X62455Y-58800D01*
X62613Y-58734D01*
X62734Y-58613D01*
X62800Y-58455D01*
X62800Y-58284D01*
X62800Y-58820D01*
X47805Y-58820D01*
X47805Y-48339D01*
X47758Y-48227D01*
X47672Y-48141D01*
X47560Y-48095D01*
X47439Y-48094D01*
X47327Y-48141D01*
X47248Y-48220D01*
X46751Y-48220D01*
X46672Y-48141D01*
X46560Y-48095D01*
X46439Y-48094D01*
X46327Y-48141D01*
X46241Y-48227D01*
X46223Y-48269D01*
X44775Y-46820D01*
X44775Y-46709D01*
X44728Y-46597D01*
X44643Y-46511D01*
X44531Y-46465D01*
X44409Y-46465D01*
X44297Y-46511D01*
X44211Y-46597D01*
X44165Y-46709D01*
X44165Y-46830D01*
X44211Y-46942D01*
X44297Y-47028D01*
X44409Y-47075D01*
X44520Y-47075D01*
X45990Y-48544D01*
X45990Y-52170D01*
X46003Y-52238D01*
X46042Y-52297D01*
X46565Y-52819D01*
X46565Y-52930D01*
X46611Y-53042D01*
X46697Y-53128D01*
X46809Y-53175D01*
X46930Y-53175D01*
X47042Y-53128D01*
X47128Y-53043D01*
X47175Y-52931D01*
X47175Y-52809D01*
X47128Y-52697D01*
X47043Y-52611D01*
X46931Y-52565D01*
X46819Y-52565D01*
X46350Y-52095D01*
X46350Y-48667D01*
X46439Y-48704D01*
X46560Y-48705D01*
X46672Y-48658D01*
X46751Y-48580D01*
X47248Y-48580D01*
X47327Y-48658D01*
X47439Y-48704D01*
X47560Y-48705D01*
X47672Y-48658D01*
X47758Y-48572D01*
X47804Y-48460D01*
X47805Y-48339D01*
X47805Y-58820D01*
X46575Y-58820D01*
X46575Y-57909D01*
X46528Y-57797D01*
X46443Y-57711D01*
X46331Y-57665D01*
X46209Y-57665D01*
X46097Y-57711D01*
X46018Y-57790D01*
X45688Y-57790D01*
X45688Y-54114D01*
X45534Y-53741D01*
X45249Y-53455D01*
X44875Y-53300D01*
X44471Y-53300D01*
X44098Y-53454D01*
X43812Y-53740D01*
X43657Y-54113D01*
X43657Y-54517D01*
X43811Y-54890D01*
X43982Y-55062D01*
X43713Y-54951D01*
X43261Y-54953D01*
X43176Y-54988D01*
X43229Y-54955D01*
X43400Y-54537D01*
X43398Y-54085D01*
X43229Y-53676D01*
X43073Y-53577D01*
X43002Y-53648D01*
X43002Y-53507D01*
X42903Y-53350D01*
X42485Y-53179D01*
X42033Y-53181D01*
X41800Y-53278D01*
X41800Y-40685D01*
X41658Y-40343D01*
X41397Y-40082D01*
X41055Y-39940D01*
X40685Y-39939D01*
X40343Y-40081D01*
X40082Y-40342D01*
X39940Y-40684D01*
X39939Y-41054D01*
X40081Y-41396D01*
X40342Y-41658D01*
X40684Y-41799D01*
X41054Y-41800D01*
X41396Y-41658D01*
X41658Y-41397D01*
X41799Y-41055D01*
X41800Y-40685D01*
X41800Y-53278D01*
X41624Y-53350D01*
X41525Y-53507D01*
X42264Y-54245D01*
X43002Y-53507D01*
X43002Y-53648D01*
X42370Y-54280D01*
X42334Y-54316D01*
X42264Y-54386D01*
X42228Y-54422D01*
X42193Y-54457D01*
X42193Y-54316D01*
X41455Y-53577D01*
X41298Y-53676D01*
X41127Y-54094D01*
X41129Y-54546D01*
X41298Y-54955D01*
X41455Y-55054D01*
X42193Y-54316D01*
X42193Y-54457D01*
X41525Y-55125D01*
X41624Y-55281D01*
X42042Y-55452D01*
X42494Y-55450D01*
X42579Y-55415D01*
X42526Y-55448D01*
X42355Y-55866D01*
X42357Y-56318D01*
X42526Y-56727D01*
X42683Y-56826D01*
X43386Y-56123D01*
X43386Y-56123D01*
X43421Y-56088D01*
X43421Y-56088D01*
X43492Y-56017D01*
X43492Y-56017D01*
X43492Y-56017D01*
X43527Y-55982D01*
X43527Y-55982D01*
X44230Y-55279D01*
X44189Y-55214D01*
X44470Y-55331D01*
X44874Y-55331D01*
X45247Y-55177D01*
X45533Y-54892D01*
X45688Y-54518D01*
X45688Y-54114D01*
X45688Y-57790D01*
X45444Y-57790D01*
X45304Y-57650D01*
X45305Y-57539D01*
X45258Y-57427D01*
X45172Y-57341D01*
X45060Y-57295D01*
X44939Y-57294D01*
X44827Y-57341D01*
X44741Y-57427D01*
X44695Y-57539D01*
X44694Y-57660D01*
X44741Y-57772D01*
X44827Y-57858D01*
X44939Y-57904D01*
X45050Y-57905D01*
X45242Y-58097D01*
X45242Y-58097D01*
X45266Y-58112D01*
X45301Y-58136D01*
X45370Y-58150D01*
X45370Y-58150D01*
X46018Y-58150D01*
X46097Y-58228D01*
X46209Y-58275D01*
X46330Y-58275D01*
X46442Y-58228D01*
X46528Y-58143D01*
X46575Y-58031D01*
X46575Y-57909D01*
X46575Y-58820D01*
X44628Y-58820D01*
X44628Y-56309D01*
X44626Y-55857D01*
X44457Y-55448D01*
X44301Y-55349D01*
X43562Y-56088D01*
X44301Y-56826D01*
X44457Y-56727D01*
X44628Y-56309D01*
X44628Y-58820D01*
X44230Y-58820D01*
X44230Y-56897D01*
X43492Y-56158D01*
X42753Y-56897D01*
X42852Y-57053D01*
X43270Y-57224D01*
X43722Y-57222D01*
X44131Y-57053D01*
X44230Y-56897D01*
X44230Y-58820D01*
X41800Y-58820D01*
X41800Y-57435D01*
X41658Y-57093D01*
X41397Y-56832D01*
X41055Y-56690D01*
X40685Y-56689D01*
X40343Y-56831D01*
X40082Y-57092D01*
X39940Y-57434D01*
X39939Y-57804D01*
X40081Y-58146D01*
X40342Y-58408D01*
X40684Y-58549D01*
X41054Y-58550D01*
X41396Y-58408D01*
X41658Y-58147D01*
X41799Y-57805D01*
X41800Y-57435D01*
X41800Y-58820D01*
X39620Y-58820D01*
X39620Y-39620D01*
X78520Y-39620D01*
X78520Y-58820D01*
X78520Y-58820D01*
G37*
G54D21*
X78520Y-58820D02*
X78300Y-58820D01*
X78300Y-57435D01*
X78300Y-40685D01*
X78158Y-40343D01*
X77897Y-40082D01*
X77555Y-39940D01*
X77185Y-39939D01*
X76843Y-40081D01*
X76582Y-40342D01*
X76440Y-40684D01*
X76439Y-41054D01*
X76581Y-41396D01*
X76842Y-41658D01*
X77184Y-41799D01*
X77554Y-41800D01*
X77896Y-41658D01*
X78158Y-41397D01*
X78299Y-41055D01*
X78300Y-40685D01*
X78300Y-57435D01*
X78158Y-57093D01*
X77897Y-56832D01*
X77555Y-56690D01*
X77185Y-56689D01*
X76843Y-56831D01*
X76582Y-57092D01*
X76440Y-57434D01*
X76439Y-57804D01*
X76581Y-58146D01*
X76842Y-58408D01*
X77184Y-58549D01*
X77554Y-58550D01*
X77896Y-58408D01*
X78158Y-58147D01*
X78299Y-57805D01*
X78300Y-57435D01*
X78300Y-58820D01*
X75875Y-58820D01*
X75875Y-48909D01*
X75828Y-48797D01*
X75743Y-48711D01*
X75631Y-48665D01*
X75509Y-48665D01*
X75397Y-48711D01*
X75318Y-48790D01*
X70521Y-48790D01*
X70481Y-48750D01*
X74870Y-48750D01*
X75170Y-48750D01*
X75238Y-48736D01*
X75297Y-48697D01*
X75597Y-48397D01*
X75597Y-48397D01*
X75612Y-48373D01*
X75636Y-48338D01*
X75636Y-48338D01*
X75650Y-48270D01*
X75650Y-48270D01*
X75650Y-47770D01*
X75650Y-46921D01*
X75728Y-46843D01*
X75775Y-46731D01*
X75775Y-46609D01*
X75728Y-46497D01*
X75643Y-46411D01*
X75531Y-46365D01*
X75409Y-46365D01*
X75297Y-46411D01*
X75211Y-46497D01*
X75165Y-46609D01*
X75165Y-46730D01*
X75211Y-46842D01*
X75290Y-46921D01*
X75290Y-47770D01*
X75290Y-48195D01*
X75095Y-48390D01*
X74870Y-48390D01*
X74704Y-48390D01*
X75097Y-47997D01*
X75097Y-47997D01*
X75123Y-47958D01*
X75136Y-47938D01*
X75136Y-47938D01*
X75150Y-47870D01*
X75150Y-47870D01*
X75150Y-45221D01*
X75228Y-45143D01*
X75275Y-45031D01*
X75275Y-44909D01*
X75228Y-44797D01*
X75143Y-44711D01*
X75031Y-44665D01*
X74909Y-44665D01*
X74797Y-44711D01*
X74711Y-44797D01*
X74665Y-44909D01*
X74665Y-45030D01*
X74711Y-45142D01*
X74790Y-45221D01*
X74790Y-47795D01*
X74495Y-48090D01*
X72024Y-48090D01*
X72024Y-47151D01*
X72013Y-46933D01*
X71951Y-46782D01*
X71855Y-46754D01*
X71785Y-46825D01*
X71785Y-46684D01*
X71757Y-46588D01*
X71551Y-46515D01*
X71333Y-46526D01*
X71182Y-46588D01*
X71154Y-46684D01*
X71470Y-46999D01*
X71785Y-46684D01*
X71785Y-46825D01*
X71540Y-47070D01*
X71855Y-47385D01*
X71951Y-47357D01*
X72024Y-47151D01*
X72024Y-48090D01*
X71785Y-48090D01*
X71785Y-47455D01*
X71470Y-47140D01*
X71399Y-47211D01*
X71399Y-47070D01*
X71084Y-46754D01*
X70988Y-46782D01*
X70915Y-46988D01*
X70926Y-47206D01*
X70988Y-47357D01*
X71084Y-47385D01*
X71399Y-47070D01*
X71399Y-47211D01*
X71154Y-47455D01*
X71182Y-47551D01*
X71388Y-47624D01*
X71606Y-47613D01*
X71757Y-47551D01*
X71785Y-47455D01*
X71785Y-48090D01*
X70900Y-48090D01*
X70900Y-46984D01*
X70834Y-46826D01*
X70713Y-46705D01*
X70555Y-46640D01*
X70384Y-46640D01*
X70226Y-46705D01*
X70105Y-46826D01*
X70040Y-46984D01*
X70040Y-47155D01*
X70105Y-47313D01*
X70226Y-47434D01*
X70384Y-47500D01*
X70555Y-47500D01*
X70713Y-47434D01*
X70834Y-47313D01*
X70900Y-47155D01*
X70900Y-46984D01*
X70900Y-48090D01*
X69900Y-48090D01*
X69900Y-47344D01*
X69900Y-46744D01*
X69880Y-46696D01*
X69843Y-46659D01*
X69800Y-46641D01*
X69800Y-40644D01*
X69800Y-40044D01*
X69780Y-39996D01*
X69743Y-39959D01*
X69696Y-39940D01*
X69644Y-39940D01*
X69044Y-39940D01*
X68996Y-39959D01*
X68959Y-39996D01*
X68940Y-40044D01*
X68940Y-40095D01*
X68940Y-40695D01*
X68959Y-40743D01*
X68996Y-40780D01*
X69044Y-40800D01*
X69095Y-40800D01*
X69695Y-40800D01*
X69743Y-40780D01*
X69780Y-40743D01*
X69800Y-40696D01*
X69800Y-40644D01*
X69800Y-46641D01*
X69796Y-46640D01*
X69744Y-46640D01*
X69144Y-46640D01*
X69096Y-46659D01*
X69059Y-46696D01*
X69040Y-46744D01*
X69040Y-46795D01*
X69040Y-47385D01*
X68800Y-47145D01*
X68800Y-40284D01*
X68734Y-40126D01*
X68613Y-40005D01*
X68455Y-39940D01*
X68284Y-39940D01*
X68126Y-40005D01*
X68005Y-40126D01*
X67940Y-40284D01*
X67940Y-40455D01*
X68005Y-40613D01*
X68126Y-40734D01*
X68284Y-40800D01*
X68455Y-40800D01*
X68613Y-40734D01*
X68734Y-40613D01*
X68800Y-40455D01*
X68800Y-40284D01*
X68800Y-47145D01*
X68650Y-46995D01*
X68650Y-45270D01*
X68650Y-43870D01*
X68650Y-43870D01*
X68636Y-43801D01*
X68612Y-43766D01*
X68597Y-43742D01*
X68597Y-43742D01*
X68475Y-43620D01*
X68475Y-43509D01*
X68428Y-43397D01*
X68343Y-43311D01*
X68231Y-43265D01*
X68109Y-43265D01*
X67997Y-43311D01*
X67911Y-43397D01*
X67865Y-43509D01*
X67865Y-43610D01*
X67800Y-43545D01*
X67800Y-40284D01*
X67734Y-40126D01*
X67613Y-40005D01*
X67455Y-39940D01*
X67284Y-39940D01*
X67126Y-40005D01*
X67005Y-40126D01*
X66940Y-40284D01*
X66940Y-40455D01*
X67005Y-40613D01*
X67126Y-40734D01*
X67284Y-40800D01*
X67455Y-40800D01*
X67613Y-40734D01*
X67734Y-40613D01*
X67800Y-40455D01*
X67800Y-40284D01*
X67800Y-43545D01*
X66800Y-42545D01*
X66800Y-40284D01*
X66734Y-40126D01*
X66613Y-40005D01*
X66455Y-39940D01*
X66284Y-39940D01*
X66126Y-40005D01*
X66005Y-40126D01*
X65940Y-40284D01*
X65940Y-40455D01*
X66005Y-40613D01*
X66126Y-40734D01*
X66284Y-40800D01*
X66455Y-40800D01*
X66613Y-40734D01*
X66734Y-40613D01*
X66800Y-40455D01*
X66800Y-40284D01*
X66800Y-42545D01*
X65800Y-41545D01*
X65800Y-40284D01*
X65734Y-40126D01*
X65613Y-40005D01*
X65455Y-39940D01*
X65284Y-39940D01*
X65126Y-40005D01*
X65005Y-40126D01*
X64940Y-40284D01*
X64940Y-40455D01*
X65005Y-40613D01*
X65126Y-40734D01*
X65284Y-40800D01*
X65455Y-40800D01*
X65613Y-40734D01*
X65734Y-40613D01*
X65800Y-40455D01*
X65800Y-40284D01*
X65800Y-41545D01*
X64773Y-40519D01*
X64800Y-40455D01*
X64800Y-40284D01*
X64734Y-40126D01*
X64613Y-40005D01*
X64455Y-39940D01*
X64284Y-39940D01*
X64126Y-40005D01*
X64005Y-40126D01*
X63940Y-40284D01*
X63940Y-40455D01*
X64005Y-40613D01*
X64126Y-40734D01*
X64284Y-40800D01*
X64455Y-40800D01*
X64519Y-40773D01*
X67010Y-43265D01*
X66909Y-43265D01*
X66797Y-43311D01*
X66718Y-43390D01*
X66544Y-43390D01*
X63744Y-40589D01*
X63800Y-40455D01*
X63800Y-40284D01*
X63734Y-40126D01*
X63613Y-40005D01*
X63455Y-39940D01*
X63284Y-39940D01*
X63126Y-40005D01*
X63005Y-40126D01*
X62940Y-40284D01*
X62940Y-40455D01*
X63005Y-40613D01*
X63126Y-40734D01*
X63284Y-40800D01*
X63445Y-40800D01*
X63635Y-40990D01*
X63244Y-40990D01*
X62773Y-40519D01*
X62800Y-40455D01*
X62800Y-40284D01*
X62734Y-40126D01*
X62613Y-40005D01*
X62455Y-39940D01*
X62284Y-39940D01*
X62126Y-40005D01*
X62005Y-40126D01*
X61940Y-40284D01*
X61940Y-40455D01*
X62005Y-40613D01*
X62126Y-40734D01*
X62284Y-40800D01*
X62455Y-40800D01*
X62519Y-40773D01*
X63042Y-41297D01*
X63042Y-41297D01*
X63081Y-41323D01*
X63101Y-41336D01*
X63101Y-41336D01*
X63170Y-41350D01*
X63170Y-41350D01*
X63595Y-41350D01*
X65110Y-42865D01*
X65009Y-42865D01*
X64897Y-42911D01*
X64811Y-42997D01*
X64765Y-43109D01*
X64765Y-43230D01*
X64811Y-43342D01*
X64897Y-43428D01*
X65009Y-43475D01*
X65120Y-43475D01*
X65590Y-43944D01*
X65590Y-48470D01*
X65603Y-48538D01*
X65642Y-48597D01*
X66790Y-49744D01*
X66790Y-52418D01*
X66711Y-52497D01*
X66665Y-52609D01*
X66665Y-52730D01*
X66711Y-52842D01*
X66797Y-52928D01*
X66909Y-52975D01*
X67030Y-52975D01*
X67142Y-52928D01*
X67228Y-52843D01*
X67275Y-52731D01*
X67275Y-52609D01*
X67228Y-52497D01*
X67150Y-52418D01*
X67150Y-49670D01*
X67150Y-49670D01*
X67136Y-49601D01*
X67136Y-49601D01*
X67123Y-49581D01*
X67097Y-49542D01*
X67097Y-49542D01*
X65950Y-48395D01*
X65950Y-43870D01*
X65950Y-43870D01*
X65936Y-43801D01*
X65897Y-43742D01*
X65897Y-43742D01*
X65375Y-43220D01*
X65375Y-43129D01*
X66790Y-44544D01*
X66790Y-47118D01*
X66711Y-47197D01*
X66665Y-47309D01*
X66665Y-47430D01*
X66711Y-47542D01*
X66797Y-47628D01*
X66909Y-47675D01*
X67030Y-47675D01*
X67142Y-47628D01*
X67228Y-47543D01*
X67275Y-47431D01*
X67275Y-47309D01*
X67228Y-47197D01*
X67150Y-47118D01*
X67150Y-44470D01*
X67136Y-44401D01*
X67097Y-44342D01*
X66504Y-43750D01*
X66718Y-43750D01*
X66797Y-43828D01*
X66909Y-43875D01*
X67030Y-43875D01*
X67142Y-43828D01*
X67228Y-43743D01*
X67275Y-43631D01*
X67275Y-43529D01*
X67890Y-44144D01*
X67890Y-47649D01*
X67865Y-47709D01*
X67865Y-47830D01*
X67911Y-47942D01*
X67997Y-48028D01*
X68109Y-48075D01*
X68230Y-48075D01*
X68342Y-48028D01*
X68428Y-47943D01*
X68475Y-47831D01*
X68475Y-47709D01*
X68428Y-47597D01*
X68343Y-47511D01*
X68250Y-47473D01*
X68250Y-44070D01*
X68236Y-44001D01*
X68197Y-43942D01*
X68129Y-43875D01*
X68220Y-43875D01*
X68290Y-43944D01*
X68290Y-45270D01*
X68290Y-47070D01*
X68303Y-47138D01*
X68342Y-47197D01*
X68865Y-47719D01*
X68865Y-47830D01*
X68911Y-47942D01*
X68997Y-48028D01*
X69109Y-48075D01*
X69230Y-48075D01*
X69342Y-48028D01*
X69428Y-47943D01*
X69475Y-47831D01*
X69475Y-47709D01*
X69428Y-47597D01*
X69343Y-47511D01*
X69315Y-47500D01*
X69795Y-47500D01*
X69843Y-47480D01*
X69880Y-47443D01*
X69900Y-47396D01*
X69900Y-47344D01*
X69900Y-48090D01*
X68370Y-48090D01*
X68301Y-48103D01*
X68242Y-48142D01*
X67720Y-48665D01*
X67609Y-48665D01*
X67497Y-48711D01*
X67411Y-48797D01*
X67365Y-48909D01*
X67365Y-49030D01*
X67411Y-49142D01*
X67497Y-49228D01*
X67609Y-49275D01*
X67730Y-49275D01*
X67842Y-49228D01*
X67865Y-49206D01*
X67865Y-49230D01*
X67911Y-49342D01*
X67997Y-49428D01*
X68109Y-49475D01*
X68230Y-49475D01*
X68342Y-49428D01*
X68428Y-49343D01*
X68475Y-49231D01*
X68475Y-49119D01*
X68844Y-48750D01*
X70058Y-48750D01*
X70011Y-48797D01*
X69965Y-48909D01*
X69965Y-49030D01*
X70011Y-49142D01*
X70097Y-49228D01*
X70209Y-49275D01*
X70330Y-49275D01*
X70442Y-49228D01*
X70521Y-49150D01*
X75318Y-49150D01*
X75397Y-49228D01*
X75509Y-49275D01*
X75630Y-49275D01*
X75742Y-49228D01*
X75828Y-49143D01*
X75875Y-49031D01*
X75875Y-48909D01*
X75875Y-58820D01*
X72875Y-58820D01*
X72875Y-50809D01*
X72828Y-50697D01*
X72743Y-50611D01*
X72631Y-50565D01*
X72509Y-50565D01*
X72397Y-50611D01*
X72318Y-50690D01*
X70521Y-50690D01*
X70443Y-50611D01*
X70331Y-50565D01*
X70209Y-50565D01*
X70097Y-50611D01*
X70011Y-50697D01*
X69965Y-50809D01*
X69965Y-50930D01*
X70011Y-51042D01*
X70097Y-51128D01*
X70209Y-51175D01*
X70330Y-51175D01*
X70442Y-51128D01*
X70521Y-51050D01*
X72318Y-51050D01*
X72397Y-51128D01*
X72509Y-51175D01*
X72630Y-51175D01*
X72742Y-51128D01*
X72828Y-51043D01*
X72875Y-50931D01*
X72875Y-50809D01*
X72875Y-58820D01*
X71675Y-58820D01*
X71675Y-51409D01*
X71628Y-51297D01*
X71543Y-51211D01*
X71431Y-51165D01*
X71309Y-51165D01*
X71197Y-51211D01*
X71111Y-51297D01*
X71065Y-51409D01*
X71065Y-51520D01*
X70820Y-51765D01*
X70709Y-51765D01*
X70597Y-51811D01*
X70511Y-51897D01*
X70465Y-52009D01*
X70465Y-52130D01*
X70511Y-52242D01*
X70597Y-52328D01*
X70709Y-52375D01*
X70830Y-52375D01*
X70942Y-52328D01*
X71028Y-52243D01*
X71075Y-52131D01*
X71075Y-52019D01*
X71319Y-51775D01*
X71430Y-51775D01*
X71542Y-51728D01*
X71628Y-51643D01*
X71675Y-51531D01*
X71675Y-51409D01*
X71675Y-58820D01*
X70475Y-58820D01*
X70475Y-54409D01*
X70428Y-54297D01*
X70350Y-54218D01*
X70350Y-54021D01*
X70428Y-53943D01*
X70475Y-53831D01*
X70475Y-53709D01*
X70428Y-53597D01*
X70343Y-53511D01*
X70231Y-53465D01*
X70109Y-53465D01*
X69997Y-53511D01*
X69911Y-53597D01*
X69865Y-53709D01*
X69865Y-53830D01*
X69911Y-53942D01*
X69990Y-54021D01*
X69990Y-54218D01*
X69911Y-54297D01*
X69865Y-54409D01*
X69865Y-54530D01*
X69911Y-54642D01*
X69997Y-54728D01*
X70109Y-54775D01*
X70230Y-54775D01*
X70342Y-54728D01*
X70428Y-54643D01*
X70475Y-54531D01*
X70475Y-54409D01*
X70475Y-58820D01*
X69924Y-58820D01*
X69924Y-58451D01*
X69913Y-58233D01*
X69851Y-58082D01*
X69755Y-58054D01*
X69685Y-58125D01*
X69685Y-57984D01*
X69657Y-57888D01*
X69451Y-57815D01*
X69233Y-57826D01*
X69082Y-57888D01*
X69054Y-57984D01*
X69370Y-58299D01*
X69685Y-57984D01*
X69685Y-58125D01*
X69440Y-58370D01*
X69755Y-58685D01*
X69851Y-58657D01*
X69924Y-58451D01*
X69924Y-58820D01*
X69666Y-58820D01*
X69685Y-58755D01*
X69370Y-58440D01*
X69299Y-58511D01*
X69299Y-58370D01*
X68984Y-58054D01*
X68888Y-58082D01*
X68815Y-58288D01*
X68826Y-58506D01*
X68888Y-58657D01*
X68984Y-58685D01*
X69299Y-58370D01*
X69299Y-58511D01*
X69054Y-58755D01*
X69073Y-58820D01*
X68800Y-58820D01*
X68800Y-58284D01*
X68734Y-58126D01*
X68613Y-58005D01*
X68455Y-57940D01*
X68284Y-57940D01*
X68126Y-58005D01*
X68005Y-58126D01*
X67940Y-58284D01*
X67940Y-58455D01*
X68005Y-58613D01*
X68126Y-58734D01*
X68284Y-58800D01*
X68455Y-58800D01*
X68613Y-58734D01*
X68734Y-58613D01*
X68800Y-58455D01*
X68800Y-58284D01*
X68800Y-58820D01*
X67800Y-58820D01*
X67800Y-58284D01*
X67734Y-58126D01*
X67613Y-58005D01*
X67455Y-57940D01*
X67284Y-57940D01*
X67126Y-58005D01*
X67005Y-58126D01*
X66940Y-58284D01*
X66940Y-58455D01*
X67005Y-58613D01*
X67126Y-58734D01*
X67284Y-58800D01*
X67455Y-58800D01*
X67613Y-58734D01*
X67734Y-58613D01*
X67800Y-58455D01*
X67800Y-58284D01*
X67800Y-58820D01*
X66800Y-58820D01*
X66800Y-58284D01*
X66734Y-58126D01*
X66613Y-58005D01*
X66455Y-57940D01*
X66284Y-57940D01*
X66126Y-58005D01*
X66050Y-58081D01*
X66050Y-54034D01*
X65984Y-53876D01*
X65863Y-53755D01*
X65705Y-53690D01*
X65534Y-53690D01*
X65376Y-53755D01*
X65350Y-53782D01*
X65350Y-53458D01*
X65376Y-53484D01*
X65534Y-53550D01*
X65705Y-53550D01*
X65863Y-53484D01*
X65984Y-53363D01*
X66050Y-53205D01*
X66050Y-53034D01*
X65984Y-52876D01*
X65863Y-52755D01*
X65705Y-52690D01*
X65534Y-52690D01*
X65376Y-52755D01*
X65350Y-52782D01*
X65350Y-52458D01*
X65376Y-52484D01*
X65534Y-52550D01*
X65705Y-52550D01*
X65863Y-52484D01*
X65984Y-52363D01*
X66050Y-52205D01*
X66050Y-52034D01*
X66050Y-51034D01*
X66050Y-50034D01*
X65984Y-49876D01*
X65863Y-49755D01*
X65705Y-49690D01*
X65534Y-49690D01*
X65376Y-49755D01*
X65255Y-49876D01*
X65190Y-50034D01*
X65190Y-50205D01*
X65255Y-50363D01*
X65376Y-50484D01*
X65534Y-50550D01*
X65705Y-50550D01*
X65863Y-50484D01*
X65984Y-50363D01*
X66050Y-50205D01*
X66050Y-50034D01*
X66050Y-51034D01*
X65984Y-50876D01*
X65863Y-50755D01*
X65705Y-50690D01*
X65534Y-50690D01*
X65376Y-50755D01*
X65255Y-50876D01*
X65190Y-51034D01*
X65190Y-51205D01*
X65255Y-51363D01*
X65376Y-51484D01*
X65534Y-51550D01*
X65705Y-51550D01*
X65863Y-51484D01*
X65984Y-51363D01*
X66050Y-51205D01*
X66050Y-51034D01*
X66050Y-52034D01*
X65984Y-51876D01*
X65863Y-51755D01*
X65705Y-51690D01*
X65534Y-51690D01*
X65376Y-51755D01*
X65350Y-51782D01*
X65350Y-51670D01*
X65336Y-51601D01*
X65297Y-51542D01*
X65050Y-51295D01*
X65050Y-50794D01*
X65030Y-50746D01*
X64993Y-50709D01*
X64946Y-50690D01*
X64894Y-50690D01*
X64444Y-50690D01*
X64304Y-50550D01*
X64345Y-50550D01*
X64945Y-50550D01*
X64993Y-50530D01*
X65030Y-50493D01*
X65050Y-50446D01*
X65050Y-50394D01*
X65050Y-49794D01*
X65030Y-49746D01*
X64993Y-49709D01*
X64946Y-49690D01*
X64894Y-49690D01*
X64800Y-49690D01*
X64800Y-48794D01*
X65497Y-48097D01*
X65497Y-48097D01*
X65523Y-48058D01*
X65536Y-48038D01*
X65536Y-48038D01*
X65550Y-47970D01*
X65550Y-47970D01*
X65550Y-44170D01*
X65536Y-44101D01*
X65497Y-44042D01*
X65497Y-44042D01*
X64897Y-43442D01*
X64897Y-43442D01*
X64897Y-43442D01*
X63575Y-42120D01*
X63575Y-42009D01*
X63528Y-41897D01*
X63443Y-41811D01*
X63331Y-41765D01*
X63209Y-41765D01*
X63097Y-41811D01*
X63011Y-41897D01*
X62965Y-42009D01*
X62965Y-42130D01*
X63011Y-42242D01*
X63097Y-42328D01*
X63209Y-42375D01*
X63320Y-42375D01*
X64642Y-43697D01*
X64642Y-43697D01*
X64642Y-43697D01*
X65190Y-44244D01*
X65190Y-47895D01*
X64875Y-48210D01*
X64875Y-46009D01*
X64828Y-45897D01*
X64743Y-45811D01*
X64631Y-45765D01*
X64530Y-45765D01*
X64530Y-45288D01*
X64467Y-45138D01*
X64352Y-45022D01*
X64201Y-44960D01*
X64038Y-44960D01*
X63888Y-45022D01*
X63772Y-45137D01*
X63710Y-45288D01*
X63710Y-45451D01*
X63772Y-45602D01*
X63887Y-45717D01*
X64038Y-45780D01*
X64201Y-45780D01*
X64352Y-45717D01*
X64467Y-45602D01*
X64530Y-45451D01*
X64530Y-45288D01*
X64530Y-45765D01*
X64509Y-45765D01*
X64397Y-45811D01*
X64318Y-45890D01*
X63821Y-45890D01*
X63743Y-45811D01*
X63631Y-45765D01*
X63509Y-45765D01*
X63397Y-45811D01*
X63311Y-45897D01*
X63265Y-46009D01*
X63265Y-46130D01*
X63311Y-46242D01*
X63397Y-46328D01*
X63509Y-46375D01*
X63630Y-46375D01*
X63742Y-46328D01*
X63821Y-46250D01*
X64318Y-46250D01*
X64397Y-46328D01*
X64509Y-46375D01*
X64630Y-46375D01*
X64742Y-46328D01*
X64828Y-46243D01*
X64875Y-46131D01*
X64875Y-46009D01*
X64875Y-48210D01*
X64492Y-48592D01*
X64453Y-48651D01*
X64440Y-48720D01*
X64440Y-49690D01*
X64294Y-49690D01*
X64250Y-49708D01*
X64250Y-48470D01*
X64245Y-48448D01*
X64309Y-48475D01*
X64430Y-48475D01*
X64542Y-48428D01*
X64628Y-48343D01*
X64675Y-48231D01*
X64675Y-48109D01*
X64628Y-47997D01*
X64543Y-47911D01*
X64431Y-47865D01*
X64309Y-47865D01*
X64249Y-47890D01*
X64144Y-47890D01*
X64032Y-47777D01*
X64038Y-47780D01*
X64201Y-47780D01*
X64352Y-47717D01*
X64467Y-47602D01*
X64530Y-47451D01*
X64530Y-47288D01*
X64467Y-47138D01*
X64352Y-47022D01*
X64201Y-46960D01*
X64038Y-46960D01*
X63888Y-47022D01*
X63772Y-47137D01*
X63710Y-47288D01*
X63710Y-47451D01*
X63712Y-47458D01*
X61800Y-45545D01*
X61800Y-40284D01*
X61734Y-40126D01*
X61613Y-40005D01*
X61455Y-39940D01*
X61284Y-39940D01*
X61126Y-40005D01*
X61005Y-40126D01*
X60940Y-40284D01*
X60940Y-40455D01*
X61005Y-40613D01*
X61126Y-40734D01*
X61284Y-40800D01*
X61455Y-40800D01*
X61613Y-40734D01*
X61734Y-40613D01*
X61800Y-40455D01*
X61800Y-40284D01*
X61800Y-45545D01*
X60850Y-44595D01*
X60850Y-43221D01*
X60928Y-43143D01*
X60975Y-43031D01*
X60975Y-42909D01*
X60928Y-42797D01*
X60843Y-42711D01*
X60800Y-42693D01*
X60800Y-40284D01*
X60734Y-40126D01*
X60613Y-40005D01*
X60455Y-39940D01*
X60284Y-39940D01*
X60126Y-40005D01*
X60005Y-40126D01*
X59940Y-40284D01*
X59940Y-40455D01*
X60005Y-40613D01*
X60126Y-40734D01*
X60284Y-40800D01*
X60455Y-40800D01*
X60613Y-40734D01*
X60734Y-40613D01*
X60800Y-40455D01*
X60800Y-40284D01*
X60800Y-42693D01*
X60731Y-42665D01*
X60609Y-42665D01*
X60497Y-42711D01*
X60411Y-42797D01*
X60375Y-42883D01*
X60331Y-42865D01*
X60209Y-42865D01*
X60097Y-42911D01*
X60011Y-42997D01*
X59965Y-43109D01*
X59965Y-43230D01*
X60011Y-43342D01*
X60090Y-43421D01*
X60090Y-44670D01*
X60103Y-44738D01*
X60142Y-44797D01*
X61235Y-45890D01*
X60575Y-45890D01*
X60575Y-45809D01*
X60528Y-45697D01*
X60443Y-45611D01*
X60331Y-45565D01*
X60209Y-45565D01*
X60097Y-45611D01*
X60011Y-45697D01*
X59965Y-45809D01*
X59965Y-45930D01*
X59991Y-45994D01*
X59970Y-45990D01*
X59800Y-45990D01*
X59800Y-40284D01*
X59734Y-40126D01*
X59613Y-40005D01*
X59455Y-39940D01*
X59284Y-39940D01*
X59126Y-40005D01*
X59005Y-40126D01*
X58940Y-40284D01*
X58940Y-40455D01*
X59005Y-40613D01*
X59126Y-40734D01*
X59284Y-40800D01*
X59455Y-40800D01*
X59613Y-40734D01*
X59734Y-40613D01*
X59800Y-40455D01*
X59800Y-40284D01*
X59800Y-45990D01*
X59570Y-45990D01*
X58800Y-45990D01*
X58800Y-40284D01*
X58734Y-40126D01*
X58613Y-40005D01*
X58455Y-39940D01*
X58284Y-39940D01*
X58126Y-40005D01*
X58005Y-40126D01*
X57940Y-40284D01*
X57940Y-40455D01*
X58005Y-40613D01*
X58126Y-40734D01*
X58284Y-40800D01*
X58455Y-40800D01*
X58613Y-40734D01*
X58734Y-40613D01*
X58800Y-40455D01*
X58800Y-40284D01*
X58800Y-45990D01*
X54944Y-45990D01*
X54197Y-45242D01*
X54139Y-45203D01*
X54231Y-45111D01*
X54257Y-45050D01*
X57195Y-45050D01*
X57265Y-45119D01*
X57265Y-45230D01*
X57311Y-45342D01*
X57397Y-45428D01*
X57509Y-45475D01*
X57630Y-45475D01*
X57742Y-45428D01*
X57828Y-45343D01*
X57875Y-45231D01*
X57875Y-45109D01*
X57828Y-44997D01*
X57800Y-44968D01*
X57800Y-40284D01*
X57734Y-40126D01*
X57613Y-40005D01*
X57455Y-39940D01*
X57284Y-39940D01*
X57126Y-40005D01*
X57005Y-40126D01*
X56940Y-40284D01*
X56940Y-40455D01*
X57005Y-40613D01*
X57126Y-40734D01*
X57284Y-40800D01*
X57455Y-40800D01*
X57613Y-40734D01*
X57734Y-40613D01*
X57800Y-40455D01*
X57800Y-40284D01*
X57800Y-44968D01*
X57743Y-44911D01*
X57631Y-44865D01*
X57519Y-44865D01*
X57397Y-44742D01*
X57338Y-44703D01*
X57270Y-44690D01*
X56875Y-44690D01*
X56875Y-42609D01*
X56828Y-42497D01*
X56800Y-42468D01*
X56800Y-40284D01*
X56734Y-40126D01*
X56613Y-40005D01*
X56455Y-39940D01*
X56284Y-39940D01*
X56126Y-40005D01*
X56005Y-40126D01*
X55940Y-40284D01*
X55940Y-40455D01*
X56005Y-40613D01*
X56126Y-40734D01*
X56284Y-40800D01*
X56455Y-40800D01*
X56613Y-40734D01*
X56734Y-40613D01*
X56800Y-40455D01*
X56800Y-40284D01*
X56800Y-42468D01*
X56743Y-42411D01*
X56631Y-42365D01*
X56509Y-42365D01*
X56397Y-42411D01*
X56318Y-42490D01*
X55800Y-42490D01*
X55800Y-40284D01*
X55734Y-40126D01*
X55613Y-40005D01*
X55455Y-39940D01*
X55284Y-39940D01*
X55126Y-40005D01*
X55005Y-40126D01*
X54940Y-40284D01*
X54940Y-40455D01*
X55005Y-40613D01*
X55126Y-40734D01*
X55284Y-40800D01*
X55455Y-40800D01*
X55613Y-40734D01*
X55734Y-40613D01*
X55800Y-40455D01*
X55800Y-40284D01*
X55800Y-42490D01*
X54800Y-42490D01*
X54800Y-40284D01*
X54734Y-40126D01*
X54613Y-40005D01*
X54455Y-39940D01*
X54284Y-39940D01*
X54126Y-40005D01*
X54005Y-40126D01*
X53940Y-40284D01*
X53940Y-40455D01*
X54005Y-40613D01*
X54126Y-40734D01*
X54284Y-40800D01*
X54455Y-40800D01*
X54613Y-40734D01*
X54734Y-40613D01*
X54800Y-40455D01*
X54800Y-40284D01*
X54800Y-42490D01*
X53800Y-42490D01*
X53800Y-40284D01*
X53734Y-40126D01*
X53613Y-40005D01*
X53455Y-39940D01*
X53284Y-39940D01*
X53126Y-40005D01*
X53005Y-40126D01*
X52940Y-40284D01*
X52940Y-40455D01*
X53005Y-40613D01*
X53126Y-40734D01*
X53284Y-40800D01*
X53455Y-40800D01*
X53613Y-40734D01*
X53734Y-40613D01*
X53800Y-40455D01*
X53800Y-40284D01*
X53800Y-42490D01*
X52800Y-42490D01*
X52800Y-40284D01*
X52734Y-40126D01*
X52613Y-40005D01*
X52455Y-39940D01*
X52284Y-39940D01*
X52126Y-40005D01*
X52005Y-40126D01*
X51940Y-40284D01*
X51940Y-40455D01*
X52005Y-40613D01*
X52126Y-40734D01*
X52284Y-40800D01*
X52455Y-40800D01*
X52613Y-40734D01*
X52734Y-40613D01*
X52800Y-40455D01*
X52800Y-40284D01*
X52800Y-42490D01*
X51800Y-42490D01*
X51800Y-40284D01*
X51734Y-40126D01*
X51613Y-40005D01*
X51455Y-39940D01*
X51284Y-39940D01*
X51126Y-40005D01*
X51005Y-40126D01*
X50940Y-40284D01*
X50940Y-40455D01*
X51005Y-40613D01*
X51126Y-40734D01*
X51284Y-40800D01*
X51455Y-40800D01*
X51613Y-40734D01*
X51734Y-40613D01*
X51800Y-40455D01*
X51800Y-40284D01*
X51800Y-42490D01*
X50924Y-42490D01*
X50924Y-40451D01*
X50913Y-40233D01*
X50851Y-40082D01*
X50755Y-40054D01*
X50685Y-40125D01*
X50685Y-39984D01*
X50657Y-39888D01*
X50451Y-39815D01*
X50233Y-39826D01*
X50082Y-39888D01*
X50054Y-39984D01*
X50370Y-40299D01*
X50685Y-39984D01*
X50685Y-40125D01*
X50440Y-40370D01*
X50755Y-40685D01*
X50851Y-40657D01*
X50924Y-40451D01*
X50924Y-42490D01*
X50685Y-42490D01*
X50685Y-40755D01*
X50370Y-40440D01*
X50299Y-40511D01*
X50299Y-40370D01*
X49984Y-40054D01*
X49888Y-40082D01*
X49815Y-40288D01*
X49826Y-40506D01*
X49888Y-40657D01*
X49984Y-40685D01*
X50299Y-40370D01*
X50299Y-40511D01*
X50054Y-40755D01*
X50082Y-40851D01*
X50288Y-40924D01*
X50506Y-40913D01*
X50657Y-40851D01*
X50685Y-40755D01*
X50685Y-42490D01*
X48021Y-42490D01*
X47943Y-42411D01*
X47831Y-42365D01*
X47709Y-42365D01*
X47597Y-42411D01*
X47511Y-42497D01*
X47465Y-42609D01*
X47465Y-42730D01*
X47511Y-42842D01*
X47597Y-42928D01*
X47683Y-42964D01*
X47665Y-43009D01*
X47665Y-43130D01*
X47711Y-43242D01*
X47797Y-43328D01*
X47909Y-43375D01*
X48030Y-43375D01*
X48142Y-43328D01*
X48221Y-43250D01*
X55918Y-43250D01*
X55997Y-43328D01*
X56109Y-43375D01*
X56230Y-43375D01*
X56342Y-43328D01*
X56428Y-43243D01*
X56475Y-43131D01*
X56475Y-43009D01*
X56450Y-42950D01*
X56509Y-42975D01*
X56630Y-42975D01*
X56742Y-42928D01*
X56828Y-42843D01*
X56875Y-42731D01*
X56875Y-42609D01*
X56875Y-44690D01*
X54257Y-44690D01*
X54231Y-44628D01*
X54111Y-44508D01*
X53955Y-44443D01*
X53785Y-44443D01*
X53628Y-44508D01*
X53508Y-44628D01*
X53483Y-44690D01*
X53257Y-44690D01*
X53231Y-44628D01*
X53111Y-44508D01*
X52955Y-44443D01*
X52785Y-44443D01*
X52628Y-44508D01*
X52508Y-44628D01*
X52443Y-44784D01*
X52443Y-44954D01*
X52508Y-45111D01*
X52586Y-45190D01*
X52544Y-45190D01*
X52097Y-44742D01*
X52038Y-44703D01*
X51970Y-44690D01*
X50200Y-44690D01*
X50200Y-43784D01*
X50134Y-43626D01*
X50013Y-43505D01*
X49855Y-43440D01*
X49684Y-43440D01*
X49526Y-43505D01*
X49405Y-43626D01*
X49340Y-43784D01*
X49340Y-43955D01*
X49405Y-44113D01*
X49526Y-44234D01*
X49684Y-44300D01*
X49855Y-44300D01*
X50013Y-44234D01*
X50134Y-44113D01*
X50200Y-43955D01*
X50200Y-43784D01*
X50200Y-44690D01*
X50160Y-44690D01*
X50134Y-44626D01*
X50013Y-44505D01*
X49855Y-44440D01*
X49684Y-44440D01*
X49526Y-44505D01*
X49405Y-44626D01*
X49340Y-44784D01*
X49340Y-44955D01*
X49405Y-45113D01*
X49526Y-45234D01*
X49684Y-45300D01*
X49855Y-45300D01*
X50013Y-45234D01*
X50134Y-45113D01*
X50160Y-45050D01*
X51895Y-45050D01*
X52342Y-45497D01*
X52401Y-45536D01*
X52470Y-45550D01*
X52586Y-45550D01*
X52508Y-45628D01*
X52443Y-45784D01*
X52443Y-45954D01*
X52508Y-46111D01*
X52628Y-46231D01*
X52784Y-46296D01*
X52954Y-46296D01*
X53111Y-46231D01*
X53231Y-46111D01*
X53296Y-45955D01*
X53296Y-45785D01*
X53231Y-45628D01*
X53153Y-45550D01*
X53408Y-45550D01*
X53431Y-45573D01*
X53391Y-45584D01*
X53318Y-45789D01*
X53329Y-46006D01*
X53391Y-46155D01*
X53486Y-46182D01*
X53764Y-45905D01*
X53799Y-45870D01*
X53799Y-45870D01*
X53870Y-45799D01*
X53940Y-45870D01*
X53976Y-45905D01*
X54253Y-46182D01*
X54348Y-46155D01*
X54414Y-45969D01*
X54742Y-46297D01*
X54742Y-46297D01*
X54781Y-46323D01*
X54801Y-46336D01*
X54801Y-46336D01*
X54870Y-46350D01*
X54870Y-46350D01*
X58235Y-46350D01*
X57542Y-47042D01*
X57503Y-47101D01*
X57490Y-47170D01*
X57490Y-47870D01*
X57503Y-47938D01*
X57542Y-47997D01*
X57810Y-48265D01*
X57709Y-48265D01*
X57597Y-48311D01*
X57511Y-48397D01*
X57465Y-48509D01*
X57465Y-48620D01*
X56475Y-49610D01*
X56475Y-49009D01*
X56428Y-48897D01*
X56343Y-48811D01*
X56231Y-48765D01*
X56109Y-48765D01*
X55997Y-48811D01*
X55918Y-48890D01*
X55675Y-48890D01*
X55675Y-47609D01*
X55628Y-47497D01*
X55550Y-47418D01*
X55550Y-47121D01*
X55628Y-47043D01*
X55675Y-46931D01*
X55675Y-46809D01*
X55628Y-46697D01*
X55543Y-46611D01*
X55431Y-46565D01*
X55309Y-46565D01*
X55197Y-46611D01*
X55111Y-46697D01*
X55065Y-46809D01*
X55065Y-46930D01*
X55111Y-47042D01*
X55190Y-47121D01*
X55190Y-47418D01*
X55111Y-47497D01*
X55075Y-47585D01*
X55075Y-47309D01*
X55028Y-47197D01*
X54943Y-47111D01*
X54831Y-47065D01*
X54709Y-47065D01*
X54597Y-47111D01*
X54518Y-47190D01*
X54421Y-47190D01*
X54331Y-47190D01*
X54308Y-47167D01*
X54348Y-47155D01*
X54421Y-46951D01*
X54410Y-46733D01*
X54348Y-46584D01*
X54253Y-46557D01*
X54182Y-46628D01*
X54182Y-46486D01*
X54155Y-46391D01*
X54099Y-46371D01*
X54155Y-46348D01*
X54182Y-46253D01*
X53870Y-45940D01*
X53799Y-46011D01*
X53557Y-46253D01*
X53584Y-46348D01*
X53640Y-46368D01*
X53584Y-46391D01*
X53557Y-46486D01*
X53870Y-46799D01*
X54182Y-46486D01*
X54182Y-46628D01*
X53976Y-46834D01*
X53940Y-46870D01*
X53870Y-46940D01*
X53799Y-46870D01*
X53764Y-46834D01*
X53486Y-46557D01*
X53391Y-46584D01*
X53318Y-46789D01*
X53329Y-47006D01*
X53391Y-47155D01*
X53431Y-47167D01*
X53408Y-47190D01*
X53370Y-47190D01*
X53301Y-47203D01*
X53296Y-47206D01*
X53296Y-46785D01*
X53231Y-46628D01*
X53111Y-46508D01*
X52955Y-46443D01*
X52785Y-46443D01*
X52628Y-46508D01*
X52508Y-46628D01*
X52443Y-46784D01*
X52443Y-46954D01*
X52508Y-47111D01*
X52628Y-47231D01*
X52784Y-47296D01*
X52954Y-47296D01*
X53111Y-47231D01*
X53231Y-47111D01*
X53296Y-46955D01*
X53296Y-46785D01*
X53296Y-47206D01*
X53242Y-47242D01*
X53016Y-47469D01*
X52955Y-47443D01*
X52785Y-47443D01*
X52628Y-47508D01*
X52508Y-47628D01*
X52443Y-47784D01*
X52443Y-47954D01*
X52508Y-48111D01*
X52628Y-48231D01*
X52784Y-48296D01*
X52954Y-48296D01*
X53111Y-48231D01*
X53231Y-48111D01*
X53296Y-47955D01*
X53296Y-47785D01*
X53271Y-47723D01*
X53381Y-47613D01*
X53318Y-47789D01*
X53329Y-48006D01*
X53391Y-48155D01*
X53486Y-48182D01*
X53764Y-47905D01*
X53799Y-47870D01*
X53799Y-47870D01*
X53870Y-47799D01*
X53940Y-47870D01*
X53940Y-47870D01*
X53976Y-47905D01*
X54253Y-48182D01*
X54348Y-48155D01*
X54421Y-47951D01*
X54410Y-47733D01*
X54348Y-47584D01*
X54308Y-47573D01*
X54331Y-47550D01*
X54518Y-47550D01*
X54597Y-47628D01*
X54709Y-47675D01*
X54830Y-47675D01*
X54942Y-47628D01*
X55028Y-47543D01*
X55075Y-47431D01*
X55075Y-47309D01*
X55075Y-47585D01*
X55065Y-47609D01*
X55065Y-47730D01*
X55111Y-47842D01*
X55197Y-47928D01*
X55309Y-47975D01*
X55430Y-47975D01*
X55542Y-47928D01*
X55628Y-47843D01*
X55675Y-47731D01*
X55675Y-47609D01*
X55675Y-48890D01*
X55670Y-48890D01*
X55601Y-48903D01*
X55566Y-48927D01*
X55542Y-48942D01*
X55420Y-49065D01*
X55309Y-49065D01*
X55197Y-49111D01*
X55111Y-49197D01*
X55065Y-49309D01*
X55065Y-49430D01*
X55111Y-49542D01*
X55197Y-49628D01*
X55309Y-49675D01*
X55379Y-49675D01*
X55365Y-49709D01*
X55365Y-49820D01*
X54995Y-50190D01*
X54975Y-50190D01*
X54331Y-50190D01*
X54308Y-50167D01*
X54348Y-50155D01*
X54399Y-50013D01*
X54411Y-50042D01*
X54497Y-50128D01*
X54609Y-50175D01*
X54730Y-50175D01*
X54842Y-50128D01*
X54928Y-50043D01*
X54975Y-49931D01*
X54975Y-49809D01*
X54928Y-49697D01*
X54850Y-49618D01*
X54850Y-49221D01*
X54928Y-49143D01*
X54975Y-49031D01*
X54975Y-48909D01*
X54928Y-48797D01*
X54843Y-48711D01*
X54731Y-48665D01*
X54609Y-48665D01*
X54497Y-48711D01*
X54421Y-48787D01*
X54413Y-48795D01*
X54410Y-48733D01*
X54348Y-48584D01*
X54253Y-48557D01*
X54182Y-48628D01*
X54182Y-48486D01*
X54155Y-48391D01*
X54099Y-48371D01*
X54155Y-48348D01*
X54182Y-48253D01*
X53870Y-47940D01*
X53557Y-48253D01*
X53584Y-48348D01*
X53640Y-48368D01*
X53584Y-48391D01*
X53557Y-48486D01*
X53870Y-48799D01*
X54182Y-48486D01*
X54182Y-48628D01*
X53940Y-48870D01*
X54253Y-49182D01*
X54348Y-49155D01*
X54380Y-49066D01*
X54411Y-49142D01*
X54490Y-49221D01*
X54490Y-49618D01*
X54411Y-49697D01*
X54403Y-49717D01*
X54348Y-49584D01*
X54253Y-49557D01*
X54182Y-49628D01*
X54182Y-49486D01*
X54155Y-49391D01*
X54099Y-49371D01*
X54155Y-49348D01*
X54182Y-49253D01*
X53870Y-48940D01*
X53799Y-49011D01*
X53799Y-48870D01*
X53486Y-48557D01*
X53391Y-48584D01*
X53318Y-48789D01*
X53329Y-49006D01*
X53391Y-49155D01*
X53486Y-49182D01*
X53799Y-48870D01*
X53799Y-49011D01*
X53557Y-49253D01*
X53584Y-49348D01*
X53640Y-49368D01*
X53584Y-49391D01*
X53557Y-49486D01*
X53870Y-49799D01*
X54182Y-49486D01*
X54182Y-49628D01*
X53976Y-49834D01*
X53940Y-49870D01*
X53870Y-49940D01*
X53799Y-49870D01*
X53764Y-49834D01*
X53486Y-49557D01*
X53391Y-49584D01*
X53318Y-49789D01*
X53329Y-50006D01*
X53391Y-50155D01*
X53431Y-50167D01*
X53408Y-50190D01*
X53370Y-50190D01*
X53301Y-50203D01*
X53296Y-50206D01*
X53296Y-49785D01*
X53296Y-48785D01*
X53231Y-48628D01*
X53111Y-48508D01*
X52955Y-48443D01*
X52785Y-48443D01*
X52628Y-48508D01*
X52508Y-48628D01*
X52443Y-48784D01*
X52443Y-48954D01*
X52508Y-49111D01*
X52628Y-49231D01*
X52784Y-49296D01*
X52954Y-49296D01*
X53111Y-49231D01*
X53231Y-49111D01*
X53296Y-48955D01*
X53296Y-48785D01*
X53296Y-49785D01*
X53231Y-49628D01*
X53111Y-49508D01*
X52955Y-49443D01*
X52785Y-49443D01*
X52628Y-49508D01*
X52508Y-49628D01*
X52443Y-49784D01*
X52443Y-49954D01*
X52508Y-50111D01*
X52628Y-50231D01*
X52784Y-50296D01*
X52954Y-50296D01*
X53111Y-50231D01*
X53231Y-50111D01*
X53296Y-49955D01*
X53296Y-49785D01*
X53296Y-50206D01*
X53242Y-50242D01*
X53016Y-50469D01*
X52955Y-50443D01*
X52785Y-50443D01*
X52628Y-50508D01*
X52508Y-50628D01*
X52443Y-50784D01*
X52443Y-50954D01*
X52508Y-51111D01*
X52628Y-51231D01*
X52784Y-51296D01*
X52954Y-51296D01*
X53111Y-51231D01*
X53231Y-51111D01*
X53296Y-50955D01*
X53296Y-50785D01*
X53271Y-50723D01*
X53381Y-50613D01*
X53318Y-50789D01*
X53329Y-51006D01*
X53391Y-51155D01*
X53486Y-51182D01*
X53764Y-50905D01*
X53799Y-50870D01*
X53799Y-50870D01*
X53870Y-50799D01*
X53940Y-50870D01*
X53940Y-50870D01*
X53976Y-50905D01*
X54253Y-51182D01*
X54348Y-51155D01*
X54421Y-50951D01*
X54410Y-50733D01*
X54348Y-50584D01*
X54308Y-50573D01*
X54331Y-50550D01*
X55070Y-50550D01*
X55138Y-50536D01*
X55197Y-50497D01*
X55619Y-50075D01*
X55730Y-50075D01*
X55842Y-50028D01*
X55928Y-49943D01*
X55975Y-49831D01*
X55975Y-49709D01*
X55928Y-49597D01*
X55843Y-49511D01*
X55731Y-49465D01*
X55660Y-49465D01*
X55675Y-49431D01*
X55675Y-49319D01*
X55744Y-49250D01*
X55918Y-49250D01*
X55997Y-49328D01*
X56109Y-49375D01*
X56230Y-49375D01*
X56342Y-49328D01*
X56428Y-49243D01*
X56475Y-49131D01*
X56475Y-49009D01*
X56475Y-49610D01*
X55942Y-50142D01*
X55903Y-50201D01*
X55890Y-50270D01*
X55890Y-50518D01*
X55811Y-50597D01*
X55765Y-50709D01*
X55765Y-50830D01*
X55811Y-50942D01*
X55897Y-51028D01*
X56009Y-51075D01*
X56130Y-51075D01*
X56242Y-51028D01*
X56304Y-50967D01*
X56304Y-51119D01*
X56199Y-51163D01*
X56057Y-51304D01*
X55980Y-51489D01*
X55980Y-51690D01*
X56056Y-51875D01*
X56198Y-52017D01*
X56383Y-52094D01*
X56584Y-52094D01*
X56769Y-52018D01*
X56911Y-51876D01*
X56988Y-51691D01*
X56988Y-51490D01*
X56911Y-51305D01*
X56770Y-51163D01*
X56664Y-51119D01*
X56664Y-50530D01*
X58297Y-48897D01*
X58297Y-48897D01*
X58336Y-48838D01*
X58350Y-48770D01*
X58350Y-48770D01*
X58350Y-48504D01*
X58790Y-48944D01*
X58790Y-50570D01*
X58803Y-50638D01*
X58842Y-50697D01*
X60542Y-52397D01*
X60601Y-52436D01*
X60670Y-52450D01*
X61718Y-52450D01*
X61797Y-52528D01*
X61909Y-52575D01*
X62030Y-52575D01*
X62142Y-52528D01*
X62228Y-52443D01*
X62275Y-52331D01*
X62275Y-52209D01*
X62228Y-52097D01*
X62143Y-52011D01*
X62031Y-51965D01*
X61909Y-51965D01*
X61797Y-52011D01*
X61718Y-52090D01*
X60744Y-52090D01*
X60404Y-51750D01*
X61418Y-51750D01*
X61497Y-51828D01*
X61609Y-51875D01*
X61730Y-51875D01*
X61842Y-51828D01*
X61928Y-51743D01*
X61975Y-51631D01*
X61975Y-51509D01*
X61928Y-51397D01*
X61843Y-51311D01*
X61731Y-51265D01*
X61660Y-51265D01*
X61675Y-51231D01*
X61675Y-51109D01*
X61628Y-50997D01*
X61543Y-50911D01*
X61431Y-50865D01*
X61360Y-50865D01*
X61375Y-50831D01*
X61375Y-50709D01*
X61328Y-50597D01*
X61243Y-50511D01*
X61131Y-50465D01*
X61060Y-50465D01*
X61075Y-50431D01*
X61075Y-50309D01*
X61028Y-50197D01*
X60943Y-50111D01*
X60831Y-50065D01*
X60719Y-50065D01*
X60550Y-49895D01*
X60550Y-48781D01*
X60597Y-48828D01*
X60709Y-48875D01*
X60830Y-48875D01*
X60942Y-48828D01*
X61028Y-48743D01*
X61075Y-48631D01*
X61075Y-48519D01*
X61497Y-48097D01*
X61497Y-48097D01*
X61536Y-48038D01*
X61550Y-47970D01*
X61550Y-47970D01*
X61550Y-46504D01*
X61590Y-46544D01*
X61590Y-46670D01*
X61590Y-47270D01*
X61603Y-47338D01*
X61642Y-47397D01*
X62510Y-48265D01*
X62509Y-48265D01*
X62397Y-48311D01*
X62311Y-48397D01*
X62265Y-48509D01*
X62265Y-48630D01*
X62311Y-48742D01*
X62397Y-48828D01*
X62509Y-48875D01*
X62620Y-48875D01*
X62690Y-48944D01*
X62690Y-50995D01*
X62480Y-51204D01*
X62445Y-51190D01*
X62294Y-51190D01*
X62155Y-51247D01*
X62048Y-51354D01*
X61990Y-51494D01*
X61990Y-51645D01*
X62047Y-51785D01*
X62154Y-51892D01*
X62294Y-51950D01*
X62445Y-51950D01*
X62585Y-51892D01*
X62690Y-51787D01*
X62690Y-51918D01*
X62611Y-51997D01*
X62565Y-52109D01*
X62565Y-52230D01*
X62611Y-52342D01*
X62697Y-52428D01*
X62809Y-52475D01*
X62910Y-52475D01*
X62142Y-53242D01*
X62103Y-53301D01*
X62090Y-53370D01*
X62090Y-54695D01*
X61542Y-55242D01*
X59825Y-56960D01*
X59825Y-56909D01*
X59778Y-56797D01*
X59693Y-56711D01*
X59581Y-56665D01*
X59519Y-56665D01*
X58924Y-56070D01*
X58924Y-55351D01*
X58913Y-55133D01*
X58884Y-55061D01*
X58884Y-54249D01*
X58884Y-51690D01*
X58874Y-51441D01*
X58798Y-51258D01*
X58695Y-51221D01*
X58624Y-51292D01*
X58624Y-51151D01*
X58588Y-51048D01*
X58355Y-50962D01*
X58107Y-50971D01*
X57923Y-51048D01*
X57887Y-51151D01*
X58255Y-51519D01*
X58624Y-51151D01*
X58624Y-51292D01*
X58326Y-51590D01*
X58695Y-51959D01*
X58798Y-51922D01*
X58884Y-51690D01*
X58884Y-54249D01*
X58874Y-54000D01*
X58798Y-53817D01*
X58695Y-53780D01*
X58624Y-53851D01*
X58624Y-53710D01*
X58624Y-52030D01*
X58255Y-51661D01*
X58185Y-51731D01*
X58185Y-51590D01*
X57816Y-51221D01*
X57713Y-51258D01*
X57627Y-51491D01*
X57637Y-51739D01*
X57713Y-51922D01*
X57816Y-51959D01*
X58185Y-51590D01*
X58185Y-51731D01*
X57887Y-52030D01*
X57923Y-52133D01*
X58156Y-52218D01*
X58404Y-52209D01*
X58588Y-52133D01*
X58624Y-52030D01*
X58624Y-53710D01*
X58588Y-53607D01*
X58355Y-53521D01*
X58107Y-53530D01*
X57923Y-53607D01*
X57887Y-53710D01*
X58255Y-54078D01*
X58624Y-53710D01*
X58624Y-53851D01*
X58326Y-54149D01*
X58695Y-54518D01*
X58798Y-54481D01*
X58884Y-54249D01*
X58884Y-55061D01*
X58851Y-54982D01*
X58755Y-54954D01*
X58685Y-55025D01*
X58685Y-54884D01*
X58657Y-54788D01*
X58495Y-54730D01*
X58588Y-54692D01*
X58624Y-54589D01*
X58255Y-54220D01*
X58185Y-54291D01*
X58185Y-54149D01*
X57816Y-53780D01*
X57713Y-53817D01*
X57627Y-54050D01*
X57637Y-54298D01*
X57713Y-54481D01*
X57816Y-54518D01*
X58185Y-54149D01*
X58185Y-54291D01*
X57887Y-54589D01*
X57923Y-54692D01*
X58130Y-54768D01*
X58082Y-54788D01*
X58054Y-54884D01*
X58370Y-55199D01*
X58685Y-54884D01*
X58685Y-55025D01*
X58440Y-55270D01*
X58755Y-55585D01*
X58851Y-55557D01*
X58924Y-55351D01*
X58924Y-56070D01*
X58875Y-56020D01*
X58875Y-55909D01*
X58828Y-55797D01*
X58743Y-55711D01*
X58677Y-55684D01*
X58685Y-55655D01*
X58370Y-55340D01*
X58299Y-55411D01*
X58299Y-55270D01*
X57984Y-54954D01*
X57888Y-54982D01*
X57815Y-55188D01*
X57826Y-55406D01*
X57888Y-55557D01*
X57984Y-55585D01*
X58299Y-55270D01*
X58299Y-55411D01*
X58054Y-55655D01*
X58082Y-55751D01*
X58288Y-55824D01*
X58300Y-55824D01*
X58265Y-55909D01*
X58265Y-56030D01*
X58311Y-56142D01*
X58397Y-56228D01*
X58509Y-56275D01*
X58620Y-56275D01*
X59226Y-56881D01*
X59215Y-56909D01*
X59215Y-57030D01*
X59261Y-57142D01*
X59347Y-57228D01*
X59459Y-57275D01*
X59510Y-57275D01*
X59495Y-57290D01*
X57800Y-57290D01*
X57800Y-55184D01*
X57734Y-55026D01*
X57613Y-54905D01*
X57455Y-54840D01*
X57284Y-54840D01*
X57126Y-54905D01*
X57005Y-55026D01*
X56988Y-55068D01*
X56988Y-54049D01*
X56911Y-53864D01*
X56770Y-53722D01*
X56584Y-53645D01*
X56384Y-53645D01*
X56199Y-53722D01*
X56057Y-53863D01*
X55980Y-54048D01*
X55980Y-54249D01*
X56056Y-54434D01*
X56198Y-54576D01*
X56383Y-54653D01*
X56584Y-54653D01*
X56769Y-54577D01*
X56911Y-54435D01*
X56988Y-54250D01*
X56988Y-54049D01*
X56988Y-55068D01*
X56940Y-55184D01*
X56940Y-55355D01*
X57005Y-55513D01*
X57126Y-55634D01*
X57284Y-55700D01*
X57455Y-55700D01*
X57613Y-55634D01*
X57734Y-55513D01*
X57800Y-55355D01*
X57800Y-55184D01*
X57800Y-57290D01*
X56800Y-57290D01*
X56800Y-55544D01*
X56800Y-54944D01*
X56780Y-54896D01*
X56743Y-54859D01*
X56696Y-54840D01*
X56644Y-54840D01*
X56044Y-54840D01*
X55996Y-54859D01*
X55959Y-54896D01*
X55940Y-54944D01*
X55940Y-54995D01*
X55940Y-55595D01*
X55959Y-55643D01*
X55996Y-55680D01*
X56044Y-55700D01*
X56095Y-55700D01*
X56695Y-55700D01*
X56743Y-55680D01*
X56780Y-55643D01*
X56800Y-55596D01*
X56800Y-55544D01*
X56800Y-57290D01*
X55275Y-57290D01*
X55275Y-56709D01*
X55228Y-56597D01*
X55143Y-56511D01*
X55031Y-56465D01*
X54909Y-56465D01*
X54797Y-56511D01*
X54718Y-56590D01*
X54421Y-56590D01*
X54421Y-53951D01*
X54421Y-52951D01*
X54421Y-51951D01*
X54410Y-51733D01*
X54348Y-51584D01*
X54253Y-51557D01*
X54182Y-51628D01*
X54182Y-51486D01*
X54155Y-51391D01*
X54099Y-51371D01*
X54155Y-51348D01*
X54182Y-51253D01*
X53870Y-50940D01*
X53557Y-51253D01*
X53584Y-51348D01*
X53640Y-51368D01*
X53584Y-51391D01*
X53557Y-51486D01*
X53870Y-51799D01*
X54182Y-51486D01*
X54182Y-51628D01*
X53940Y-51870D01*
X54253Y-52182D01*
X54348Y-52155D01*
X54421Y-51951D01*
X54421Y-52951D01*
X54410Y-52733D01*
X54348Y-52584D01*
X54253Y-52557D01*
X54182Y-52628D01*
X54182Y-52486D01*
X54155Y-52391D01*
X54099Y-52371D01*
X54155Y-52348D01*
X54182Y-52253D01*
X53870Y-51940D01*
X53799Y-52011D01*
X53799Y-51870D01*
X53486Y-51557D01*
X53391Y-51584D01*
X53318Y-51789D01*
X53329Y-52006D01*
X53391Y-52155D01*
X53486Y-52182D01*
X53799Y-51870D01*
X53799Y-52011D01*
X53557Y-52253D01*
X53584Y-52348D01*
X53640Y-52368D01*
X53584Y-52391D01*
X53557Y-52486D01*
X53870Y-52799D01*
X54182Y-52486D01*
X54182Y-52628D01*
X53940Y-52870D01*
X54253Y-53182D01*
X54348Y-53155D01*
X54421Y-52951D01*
X54421Y-53951D01*
X54410Y-53733D01*
X54348Y-53584D01*
X54253Y-53557D01*
X54182Y-53628D01*
X54182Y-53486D01*
X54155Y-53391D01*
X54099Y-53371D01*
X54155Y-53348D01*
X54182Y-53253D01*
X53870Y-52940D01*
X53799Y-53011D01*
X53799Y-52870D01*
X53486Y-52557D01*
X53391Y-52584D01*
X53318Y-52789D01*
X53329Y-53006D01*
X53391Y-53155D01*
X53486Y-53182D01*
X53799Y-52870D01*
X53799Y-53011D01*
X53557Y-53253D01*
X53584Y-53348D01*
X53640Y-53368D01*
X53584Y-53391D01*
X53557Y-53486D01*
X53870Y-53799D01*
X54182Y-53486D01*
X54182Y-53628D01*
X53940Y-53870D01*
X54253Y-54182D01*
X54348Y-54155D01*
X54421Y-53951D01*
X54421Y-56590D01*
X54275Y-56590D01*
X54275Y-54709D01*
X54228Y-54597D01*
X54182Y-54551D01*
X54182Y-54253D01*
X53870Y-53940D01*
X53799Y-54011D01*
X53799Y-53870D01*
X53486Y-53557D01*
X53391Y-53584D01*
X53318Y-53789D01*
X53329Y-54006D01*
X53391Y-54155D01*
X53486Y-54182D01*
X53799Y-53870D01*
X53799Y-54011D01*
X53557Y-54253D01*
X53584Y-54348D01*
X53789Y-54421D01*
X54006Y-54410D01*
X54155Y-54348D01*
X54182Y-54253D01*
X54182Y-54551D01*
X54143Y-54511D01*
X54031Y-54465D01*
X53909Y-54465D01*
X53797Y-54511D01*
X53718Y-54590D01*
X53296Y-54590D01*
X53296Y-53785D01*
X53296Y-52785D01*
X53296Y-51785D01*
X53231Y-51628D01*
X53111Y-51508D01*
X52955Y-51443D01*
X52785Y-51443D01*
X52628Y-51508D01*
X52508Y-51628D01*
X52443Y-51784D01*
X52443Y-51954D01*
X52508Y-52111D01*
X52628Y-52231D01*
X52784Y-52296D01*
X52954Y-52296D01*
X53111Y-52231D01*
X53231Y-52111D01*
X53296Y-51955D01*
X53296Y-51785D01*
X53296Y-52785D01*
X53231Y-52628D01*
X53111Y-52508D01*
X52955Y-52443D01*
X52785Y-52443D01*
X52628Y-52508D01*
X52508Y-52628D01*
X52443Y-52784D01*
X52443Y-52954D01*
X52508Y-53111D01*
X52628Y-53231D01*
X52784Y-53296D01*
X52954Y-53296D01*
X53111Y-53231D01*
X53231Y-53111D01*
X53296Y-52955D01*
X53296Y-52785D01*
X53296Y-53785D01*
X53231Y-53628D01*
X53111Y-53508D01*
X52955Y-53443D01*
X52785Y-53443D01*
X52628Y-53508D01*
X52508Y-53628D01*
X52443Y-53784D01*
X52443Y-53954D01*
X52508Y-54111D01*
X52628Y-54231D01*
X52784Y-54296D01*
X52954Y-54296D01*
X53111Y-54231D01*
X53231Y-54111D01*
X53296Y-53955D01*
X53296Y-53785D01*
X53296Y-54590D01*
X52544Y-54590D01*
X51300Y-53345D01*
X51300Y-51784D01*
X51300Y-51784D01*
X51300Y-51144D01*
X51300Y-50544D01*
X51280Y-50496D01*
X51243Y-50459D01*
X51196Y-50440D01*
X51144Y-50440D01*
X50544Y-50440D01*
X50496Y-50459D01*
X50459Y-50496D01*
X50440Y-50544D01*
X50440Y-50595D01*
X50440Y-51195D01*
X50459Y-51243D01*
X50496Y-51280D01*
X50544Y-51300D01*
X50595Y-51300D01*
X51195Y-51300D01*
X51243Y-51280D01*
X51280Y-51243D01*
X51300Y-51196D01*
X51300Y-51144D01*
X51300Y-51784D01*
X51234Y-51626D01*
X51113Y-51505D01*
X50955Y-51440D01*
X50784Y-51440D01*
X50626Y-51505D01*
X50505Y-51626D01*
X50440Y-51784D01*
X50440Y-51955D01*
X50505Y-52113D01*
X50626Y-52234D01*
X50784Y-52300D01*
X50955Y-52300D01*
X51113Y-52234D01*
X51234Y-52113D01*
X51300Y-51955D01*
X51300Y-51784D01*
X51300Y-53345D01*
X50200Y-52245D01*
X50200Y-46144D01*
X50200Y-45544D01*
X50180Y-45496D01*
X50143Y-45459D01*
X50096Y-45440D01*
X50044Y-45440D01*
X49444Y-45440D01*
X49396Y-45459D01*
X49359Y-45496D01*
X49340Y-45544D01*
X49340Y-45595D01*
X49340Y-46195D01*
X49359Y-46243D01*
X49396Y-46280D01*
X49444Y-46300D01*
X49495Y-46300D01*
X50095Y-46300D01*
X50143Y-46280D01*
X50180Y-46243D01*
X50200Y-46196D01*
X50200Y-46144D01*
X50200Y-52245D01*
X49975Y-52020D01*
X49975Y-51909D01*
X49928Y-51797D01*
X49843Y-51711D01*
X49731Y-51665D01*
X49609Y-51665D01*
X49497Y-51711D01*
X49411Y-51797D01*
X49365Y-51909D01*
X49365Y-52030D01*
X49411Y-52142D01*
X49497Y-52228D01*
X49609Y-52275D01*
X49720Y-52275D01*
X52342Y-54897D01*
X52342Y-54897D01*
X52381Y-54923D01*
X52401Y-54936D01*
X52401Y-54936D01*
X52470Y-54950D01*
X52470Y-54950D01*
X53718Y-54950D01*
X53797Y-55028D01*
X53909Y-55075D01*
X54030Y-55075D01*
X54142Y-55028D01*
X54228Y-54943D01*
X54275Y-54831D01*
X54275Y-54709D01*
X54275Y-56590D01*
X53121Y-56590D01*
X53043Y-56511D01*
X52931Y-56465D01*
X52809Y-56465D01*
X52697Y-56511D01*
X52611Y-56597D01*
X52565Y-56709D01*
X52565Y-56830D01*
X52611Y-56942D01*
X52697Y-57028D01*
X52809Y-57075D01*
X52930Y-57075D01*
X53042Y-57028D01*
X53121Y-56950D01*
X54718Y-56950D01*
X54797Y-57028D01*
X54909Y-57075D01*
X55030Y-57075D01*
X55142Y-57028D01*
X55228Y-56943D01*
X55275Y-56831D01*
X55275Y-56709D01*
X55275Y-57290D01*
X51270Y-57290D01*
X51201Y-57303D01*
X51142Y-57342D01*
X50545Y-57940D01*
X50044Y-57940D01*
X49996Y-57959D01*
X49959Y-57996D01*
X49940Y-58044D01*
X49940Y-58095D01*
X49940Y-58695D01*
X49959Y-58743D01*
X49996Y-58780D01*
X50044Y-58800D01*
X50095Y-58800D01*
X50695Y-58800D01*
X50743Y-58780D01*
X50780Y-58743D01*
X50800Y-58696D01*
X50800Y-58644D01*
X50800Y-58194D01*
X51344Y-57650D01*
X51835Y-57650D01*
X51519Y-57966D01*
X51455Y-57940D01*
X51284Y-57940D01*
X51126Y-58005D01*
X51005Y-58126D01*
X50940Y-58284D01*
X50940Y-58455D01*
X51005Y-58613D01*
X51126Y-58734D01*
X51284Y-58800D01*
X51455Y-58800D01*
X51613Y-58734D01*
X51734Y-58613D01*
X51800Y-58455D01*
X51800Y-58284D01*
X51773Y-58220D01*
X52144Y-57850D01*
X52635Y-57850D01*
X52519Y-57966D01*
X52455Y-57940D01*
X52284Y-57940D01*
X52126Y-58005D01*
X52005Y-58126D01*
X51940Y-58284D01*
X51940Y-58455D01*
X52005Y-58613D01*
X52126Y-58734D01*
X52284Y-58800D01*
X52455Y-58800D01*
X52613Y-58734D01*
X52734Y-58613D01*
X52800Y-58455D01*
X52800Y-58284D01*
X52773Y-58220D01*
X52944Y-58050D01*
X53081Y-58050D01*
X53005Y-58126D01*
X52940Y-58284D01*
X52940Y-58455D01*
X53005Y-58613D01*
X53126Y-58734D01*
X53284Y-58800D01*
X53455Y-58800D01*
X53613Y-58734D01*
X53734Y-58613D01*
X53800Y-58455D01*
X53800Y-58284D01*
X53734Y-58126D01*
X53658Y-58050D01*
X54081Y-58050D01*
X54005Y-58126D01*
X53940Y-58284D01*
X53940Y-58455D01*
X54005Y-58613D01*
X54126Y-58734D01*
X54284Y-58800D01*
X54455Y-58800D01*
X54613Y-58734D01*
X54734Y-58613D01*
X54800Y-58455D01*
X54800Y-58284D01*
X54734Y-58126D01*
X54658Y-58050D01*
X55081Y-58050D01*
X55005Y-58126D01*
X54940Y-58284D01*
X54940Y-58455D01*
X55005Y-58613D01*
X55126Y-58734D01*
X55284Y-58800D01*
X55455Y-58800D01*
X55613Y-58734D01*
X55734Y-58613D01*
X55800Y-58455D01*
X55800Y-58284D01*
X55734Y-58126D01*
X55658Y-58050D01*
X56081Y-58050D01*
X56005Y-58126D01*
X55940Y-58284D01*
X55940Y-58455D01*
X56005Y-58613D01*
X56126Y-58734D01*
X56284Y-58800D01*
X56455Y-58800D01*
X56613Y-58734D01*
X56734Y-58613D01*
X56800Y-58455D01*
X56800Y-58284D01*
X56734Y-58126D01*
X56658Y-58050D01*
X57081Y-58050D01*
X57005Y-58126D01*
X56940Y-58284D01*
X56940Y-58455D01*
X57005Y-58613D01*
X57126Y-58734D01*
X57284Y-58800D01*
X57455Y-58800D01*
X57613Y-58734D01*
X57734Y-58613D01*
X57800Y-58455D01*
X57800Y-58284D01*
X57734Y-58126D01*
X57658Y-58050D01*
X58081Y-58050D01*
X58005Y-58126D01*
X57940Y-58284D01*
X57940Y-58455D01*
X58005Y-58613D01*
X58126Y-58734D01*
X58284Y-58800D01*
X58455Y-58800D01*
X58613Y-58734D01*
X58734Y-58613D01*
X58800Y-58455D01*
X58800Y-58284D01*
X58734Y-58126D01*
X58658Y-58050D01*
X59081Y-58050D01*
X59005Y-58126D01*
X58940Y-58284D01*
X58940Y-58455D01*
X59005Y-58613D01*
X59126Y-58734D01*
X59284Y-58800D01*
X59455Y-58800D01*
X59613Y-58734D01*
X59734Y-58613D01*
X59800Y-58455D01*
X59800Y-58284D01*
X59734Y-58126D01*
X59658Y-58050D01*
X60081Y-58050D01*
X60005Y-58126D01*
X59940Y-58284D01*
X59940Y-58455D01*
X60005Y-58613D01*
X60126Y-58734D01*
X60284Y-58800D01*
X60455Y-58800D01*
X60613Y-58734D01*
X60734Y-58613D01*
X60800Y-58455D01*
X60800Y-58284D01*
X60734Y-58126D01*
X60658Y-58050D01*
X61081Y-58050D01*
X61005Y-58126D01*
X60940Y-58284D01*
X60940Y-58455D01*
X61005Y-58613D01*
X61126Y-58734D01*
X61284Y-58800D01*
X61455Y-58800D01*
X61613Y-58734D01*
X61734Y-58613D01*
X61800Y-58455D01*
X61800Y-58284D01*
X61734Y-58126D01*
X61658Y-58050D01*
X61970Y-58050D01*
X62038Y-58036D01*
X62097Y-57997D01*
X65297Y-54797D01*
X65297Y-54797D01*
X65323Y-54758D01*
X65336Y-54738D01*
X65336Y-54738D01*
X65350Y-54670D01*
X65350Y-54670D01*
X65350Y-54458D01*
X65376Y-54484D01*
X65534Y-54550D01*
X65705Y-54550D01*
X65863Y-54484D01*
X65984Y-54363D01*
X66050Y-54205D01*
X66050Y-54034D01*
X66050Y-58081D01*
X66005Y-58126D01*
X65940Y-58284D01*
X65940Y-58455D01*
X66005Y-58613D01*
X66126Y-58734D01*
X66284Y-58800D01*
X66455Y-58800D01*
X66613Y-58734D01*
X66734Y-58613D01*
X66800Y-58455D01*
X66800Y-58284D01*
X66800Y-58820D01*
X65800Y-58820D01*
X65800Y-58284D01*
X65734Y-58126D01*
X65613Y-58005D01*
X65455Y-57940D01*
X65284Y-57940D01*
X65126Y-58005D01*
X65005Y-58126D01*
X64940Y-58284D01*
X64940Y-58455D01*
X65005Y-58613D01*
X65126Y-58734D01*
X65284Y-58800D01*
X65455Y-58800D01*
X65613Y-58734D01*
X65734Y-58613D01*
X65800Y-58455D01*
X65800Y-58284D01*
X65800Y-58820D01*
X64800Y-58820D01*
X64800Y-58284D01*
X64734Y-58126D01*
X64613Y-58005D01*
X64455Y-57940D01*
X64284Y-57940D01*
X64126Y-58005D01*
X64005Y-58126D01*
X63940Y-58284D01*
X63940Y-58455D01*
X64005Y-58613D01*
X64126Y-58734D01*
X64284Y-58800D01*
X64455Y-58800D01*
X64613Y-58734D01*
X64734Y-58613D01*
X64800Y-58455D01*
X64800Y-58284D01*
X64800Y-58820D01*
X63800Y-58820D01*
X63800Y-58284D01*
X63734Y-58126D01*
X63613Y-58005D01*
X63455Y-57940D01*
X63284Y-57940D01*
X63126Y-58005D01*
X63005Y-58126D01*
X62940Y-58284D01*
X62940Y-58455D01*
X63005Y-58613D01*
X63126Y-58734D01*
X63284Y-58800D01*
X63455Y-58800D01*
X63613Y-58734D01*
X63734Y-58613D01*
X63800Y-58455D01*
X63800Y-58284D01*
X63800Y-58820D01*
X62800Y-58820D01*
X62800Y-58284D01*
X62734Y-58126D01*
X62613Y-58005D01*
X62455Y-57940D01*
X62284Y-57940D01*
X62126Y-58005D01*
X62005Y-58126D01*
X61940Y-58284D01*
X61940Y-58455D01*
X62005Y-58613D01*
X62126Y-58734D01*
X62284Y-58800D01*
X62455Y-58800D01*
X62613Y-58734D01*
X62734Y-58613D01*
X62800Y-58455D01*
X62800Y-58284D01*
X62800Y-58820D01*
X47805Y-58820D01*
X47805Y-48339D01*
X47758Y-48227D01*
X47672Y-48141D01*
X47560Y-48095D01*
X47439Y-48094D01*
X47327Y-48141D01*
X47248Y-48220D01*
X46751Y-48220D01*
X46672Y-48141D01*
X46560Y-48095D01*
X46439Y-48094D01*
X46327Y-48141D01*
X46241Y-48227D01*
X46223Y-48269D01*
X44775Y-46820D01*
X44775Y-46709D01*
X44728Y-46597D01*
X44643Y-46511D01*
X44531Y-46465D01*
X44409Y-46465D01*
X44297Y-46511D01*
X44211Y-46597D01*
X44165Y-46709D01*
X44165Y-46830D01*
X44211Y-46942D01*
X44297Y-47028D01*
X44409Y-47075D01*
X44520Y-47075D01*
X45990Y-48544D01*
X45990Y-52170D01*
X46003Y-52238D01*
X46042Y-52297D01*
X46565Y-52819D01*
X46565Y-52930D01*
X46611Y-53042D01*
X46697Y-53128D01*
X46809Y-53175D01*
X46930Y-53175D01*
X47042Y-53128D01*
X47128Y-53043D01*
X47175Y-52931D01*
X47175Y-52809D01*
X47128Y-52697D01*
X47043Y-52611D01*
X46931Y-52565D01*
X46819Y-52565D01*
X46350Y-52095D01*
X46350Y-48667D01*
X46439Y-48704D01*
X46560Y-48705D01*
X46672Y-48658D01*
X46751Y-48580D01*
X47248Y-48580D01*
X47327Y-48658D01*
X47439Y-48704D01*
X47560Y-48705D01*
X47672Y-48658D01*
X47758Y-48572D01*
X47804Y-48460D01*
X47805Y-48339D01*
X47805Y-58820D01*
X46575Y-58820D01*
X46575Y-57909D01*
X46528Y-57797D01*
X46443Y-57711D01*
X46331Y-57665D01*
X46209Y-57665D01*
X46097Y-57711D01*
X46018Y-57790D01*
X45688Y-57790D01*
X45688Y-54114D01*
X45534Y-53741D01*
X45249Y-53455D01*
X44875Y-53300D01*
X44471Y-53300D01*
X44098Y-53454D01*
X43812Y-53740D01*
X43657Y-54113D01*
X43657Y-54517D01*
X43811Y-54890D01*
X43982Y-55062D01*
X43713Y-54951D01*
X43261Y-54953D01*
X43176Y-54988D01*
X43229Y-54955D01*
X43400Y-54537D01*
X43398Y-54085D01*
X43229Y-53676D01*
X43073Y-53577D01*
X43002Y-53648D01*
X43002Y-53507D01*
X42903Y-53350D01*
X42485Y-53179D01*
X42033Y-53181D01*
X41800Y-53278D01*
X41800Y-40685D01*
X41658Y-40343D01*
X41397Y-40082D01*
X41055Y-39940D01*
X40685Y-39939D01*
X40343Y-40081D01*
X40082Y-40342D01*
X39940Y-40684D01*
X39939Y-41054D01*
X40081Y-41396D01*
X40342Y-41658D01*
X40684Y-41799D01*
X41054Y-41800D01*
X41396Y-41658D01*
X41658Y-41397D01*
X41799Y-41055D01*
X41800Y-40685D01*
X41800Y-53278D01*
X41624Y-53350D01*
X41525Y-53507D01*
X42264Y-54245D01*
X43002Y-53507D01*
X43002Y-53648D01*
X42370Y-54280D01*
X42334Y-54316D01*
X42264Y-54386D01*
X42228Y-54422D01*
X42193Y-54457D01*
X42193Y-54316D01*
X41455Y-53577D01*
X41298Y-53676D01*
X41127Y-54094D01*
X41129Y-54546D01*
X41298Y-54955D01*
X41455Y-55054D01*
X42193Y-54316D01*
X42193Y-54457D01*
X41525Y-55125D01*
X41624Y-55281D01*
X42042Y-55452D01*
X42494Y-55450D01*
X42579Y-55415D01*
X42526Y-55448D01*
X42355Y-55866D01*
X42357Y-56318D01*
X42526Y-56727D01*
X42683Y-56826D01*
X43386Y-56123D01*
X43386Y-56123D01*
X43421Y-56088D01*
X43421Y-56088D01*
X43492Y-56017D01*
X43492Y-56017D01*
X43492Y-56017D01*
X43527Y-55982D01*
X43527Y-55982D01*
X44230Y-55279D01*
X44189Y-55214D01*
X44470Y-55331D01*
X44874Y-55331D01*
X45247Y-55177D01*
X45533Y-54892D01*
X45688Y-54518D01*
X45688Y-54114D01*
X45688Y-57790D01*
X45444Y-57790D01*
X45304Y-57650D01*
X45305Y-57539D01*
X45258Y-57427D01*
X45172Y-57341D01*
X45060Y-57295D01*
X44939Y-57294D01*
X44827Y-57341D01*
X44741Y-57427D01*
X44695Y-57539D01*
X44694Y-57660D01*
X44741Y-57772D01*
X44827Y-57858D01*
X44939Y-57904D01*
X45050Y-57905D01*
X45242Y-58097D01*
X45242Y-58097D01*
X45266Y-58112D01*
X45301Y-58136D01*
X45370Y-58150D01*
X45370Y-58150D01*
X46018Y-58150D01*
X46097Y-58228D01*
X46209Y-58275D01*
X46330Y-58275D01*
X46442Y-58228D01*
X46528Y-58143D01*
X46575Y-58031D01*
X46575Y-57909D01*
X46575Y-58820D01*
X44628Y-58820D01*
X44628Y-56309D01*
X44626Y-55857D01*
X44457Y-55448D01*
X44301Y-55349D01*
X43562Y-56088D01*
X44301Y-56826D01*
X44457Y-56727D01*
X44628Y-56309D01*
X44628Y-58820D01*
X44230Y-58820D01*
X44230Y-56897D01*
X43492Y-56158D01*
X42753Y-56897D01*
X42852Y-57053D01*
X43270Y-57224D01*
X43722Y-57222D01*
X44131Y-57053D01*
X44230Y-56897D01*
X44230Y-58820D01*
X41800Y-58820D01*
X41800Y-57435D01*
X41658Y-57093D01*
X41397Y-56832D01*
X41055Y-56690D01*
X40685Y-56689D01*
X40343Y-56831D01*
X40082Y-57092D01*
X39940Y-57434D01*
X39939Y-57804D01*
X40081Y-58146D01*
X40342Y-58408D01*
X40684Y-58549D01*
X41054Y-58550D01*
X41396Y-58408D01*
X41658Y-58147D01*
X41799Y-57805D01*
X41800Y-57435D01*
X41800Y-58820D01*
X39620Y-58820D01*
X39620Y-39620D01*
X78520Y-39620D01*
X78520Y-58820D01*
M02*
